<?xml version="1.0" encoding="iso-8859-1"?>
<!-- Generator: Adobe Illustrator 18.1.1, SVG Export Plug-In . SVG Version: 6.00 Build 0)  -->
<svg version="1.1" id="Capa_1" xmlns="http://www.w3.org/2000/svg" xmlns:xlink="http://www.w3.org/1999/xlink" x="0px" y="0px"
	 viewBox="0 0 48.666 48.666" style="enable-background:new 0 0 48.666 48.666;" xml:space="preserve">
<g>
	<path style="fill:#1D1C1A;" d="M28.594,19.811c-0.452-0.317-1.025-0.943-1.507-1.032c-0.232-0.043-0.523-0.072-0.883-0.072
		c0,0-0.161,0-0.36,0c-0.199,0-0.359-0.448-0.359-1v-2.318c0-0.552-0.448-1-1-1H22.43c-0.552,0-1,0.448-1,1v2.318
		c0,0.552-0.322,1-0.719,1s-0.719-0.448-0.719-1v-2.318c0-0.552-0.448-1-1-1h-2.056c-0.552,0-1,0.448-1,1v2.318
		c0,0.552-0.322,1-0.719,1s-0.719-0.448-0.719-1v-2.318c0-0.552-0.448-1-1-1H11.44c-0.552,0-1,0.448-1,1v2.465
		c0,0.552-0.439,1.176-0.782,1.608c-0.246,0.309-0.439,0.74-0.462,1.339l-0.067,1.095c-0.034,0.551-0.509,0.984-1.061,0.967
		L7.973,22.86c-0.552-0.017-1.452,0.087-1.864,0.455c-0.438,0.391-0.877,1.076-0.871,2.248c0.003,0.552-0.347,1.03-0.898,1.074
		l-2.127,0.169c-0.551,0.044-1.516,0.019-1.927,0.388c-0.401,0.36-0.54,1.141,0.667,2.831l3.011,3.494
		c0.361,0.418,1.101,0.758,1.653,0.758h27.176c0.552,0,1.366-0.257,1.818-0.575l13.344-9.381c0.452-0.318,1.035-1.038,0.492-1.144
		c-0.419-0.082-1.143-0.126-2.354-0.086C42.489,23.207,31.63,21.938,28.594,19.811z M7.987,26.49c-0.524,0-0.948-0.448-0.948-1
		v-0.159c0-0.552,0.425-1,0.948-1c0.524,0,0.949,0.448,0.949,1v0.159C8.936,26.042,8.511,26.49,7.987,26.49z M10.931,25.892
		c-0.524,0-0.948-0.448-0.948-1v-0.158c0-0.552,0.425-1,0.948-1c0.524,0,0.949,0.448,0.949,1v0.158
		C11.88,25.444,11.455,25.892,10.931,25.892z M13.841,25.892c-0.524,0-0.949-0.448-0.949-1v-0.158c0-0.552,0.425-1,0.949-1
		s0.948,0.448,0.948,1v0.158C14.79,25.444,14.365,25.892,13.841,25.892z M16.523,25.63c-0.524,0-0.948-0.448-0.948-1v-0.158
		c0-0.552,0.425-1,0.948-1s0.948,0.448,0.948,1v0.158C17.471,25.182,17.046,25.63,16.523,25.63z M19.202,25.368
		c-0.524,0-0.948-0.448-0.948-1V24.21c0-0.552,0.425-1,0.948-1s0.948,0.448,0.948,1v0.158C20.151,24.92,19.726,25.368,19.202,25.368
		z M21.882,25.107c-0.524,0-0.948-0.448-0.948-1v-0.158c0-0.552,0.424-1,0.948-1s0.948,0.448,0.948,1v0.158
		C22.83,24.659,22.406,25.107,21.882,25.107z M24.562,24.845c-0.524,0-0.948-0.448-0.948-1v-0.158c0-0.552,0.425-1,0.948-1
		s0.948,0.448,0.948,1v0.158C25.51,24.397,25.085,24.845,24.562,24.845z M27.242,24.582c-0.524,0-0.948-0.448-0.948-1v-0.157
		c0-0.552,0.425-1,0.948-1s0.948,0.448,0.948,1v0.157C28.19,24.134,27.765,24.582,27.242,24.582z M29.922,24.321
		c-0.524,0-0.948-0.448-0.948-1v-0.157c0-0.552,0.425-1,0.948-1s0.948,0.448,0.948,1v0.157
		C30.87,23.873,30.445,24.321,29.922,24.321z"/>
</g>
<g>
</g>
<g>
</g>
<g>
</g>
<g>
</g>
<g>
</g>
<g>
</g>
<g>
</g>
<g>
</g>
<g>
</g>
<g>
</g>
<g>
</g>
<g>
</g>
<g>
</g>
<g>
</g>
<g>
</g>
</svg>
