<?xml version="1.0" encoding="iso-8859-1"?>
<!-- Generator: Adobe Illustrator 16.0.0, SVG Export Plug-In . SVG Version: 6.00 Build 0)  -->
<!DOCTYPE svg PUBLIC "-//W3C//DTD SVG 1.1//EN" "http://www.w3.org/Graphics/SVG/1.1/DTD/svg11.dtd">
<svg version="1.1" id="Capa_1" xmlns="http://www.w3.org/2000/svg" xmlns:xlink="http://www.w3.org/1999/xlink" x="0px" y="0px"
	 width="355.209px" height="355.209px" viewBox="0 0 355.209 355.209" style="enable-background:new 0 0 355.209 355.209;"
	 xml:space="preserve">
<g>
	<g>
		<path d="M86.94,234.342c-17.69,0-32.025,14.332-32.025,32.022c0,17.691,14.335,32.021,32.025,32.021
			c17.695,0,32.027-14.33,32.027-32.021C118.967,248.674,104.635,234.342,86.94,234.342z M86.94,280.288
			c-7.69,0-13.921-6.231-13.921-13.922c0-7.693,6.23-13.921,13.921-13.921s13.925,6.228,13.925,13.921
			C100.865,274.056,94.63,280.288,86.94,280.288z"/>
		<path d="M274.949,234.342c-17.689,0-32.025,14.332-32.025,32.022c0,17.691,14.336,32.021,32.025,32.021
			c17.695,0,32.027-14.33,32.027-32.021C306.977,248.674,292.645,234.342,274.949,234.342z M274.949,280.288
			c-7.689,0-13.922-6.231-13.922-13.922c0-7.693,6.23-13.921,13.922-13.921s13.926,6.228,13.926,13.921
			C288.875,274.056,282.639,280.288,274.949,280.288z"/>
		<path d="M336.068,56.823H42.101c-10.525,0-20.858,8.438-22.963,18.75L3.827,165.329C1.722,175.642,0,192.69,0,203.215
			l0.957,44.014c0,10.523,8.611,19.136,19.136,19.136h29.08c0-20.823,16.941-37.763,37.766-37.763
			c20.826,0,37.77,16.939,37.77,37.763h112.475c0-20.823,16.941-37.763,37.766-37.763c20.826,0,37.77,16.939,37.77,37.763h23.352
			c10.525,0,19.139-8.612,19.139-19.136V75.959C355.205,65.434,346.594,56.823,336.068,56.823z M90.048,185.407H45.453l7.066-16.738
			c1.233-2.921-0.134-6.289-3.055-7.522c-2.923-1.233-6.29,0.135-7.522,3.056l-8.921,21.127
			c-16.668-0.736-19.058-6.767-17.708-14.035l5.092-34.401h69.644L90.048,185.407L90.048,185.407z M90.048,115.845H23.521
			l4.95-33.441c1.441-7.761,9.078-14.111,16.973-14.111h44.604V115.845z M175.205,185.407H101.53v-48.512h73.675V185.407z
			 M175.205,115.845H101.53V68.292h73.675V115.845z M260.361,185.407h-73.676v-48.512h73.676V185.407z M260.361,115.845h-73.676
			V68.292h73.676V115.845z M343.469,171.055c0,7.894-6.457,14.352-14.352,14.352h-57.275v-48.512h71.627V171.055L343.469,171.055z
			 M343.469,115.845h-71.627V68.292h57.275c7.895,0,14.352,6.458,14.352,14.353V115.845z"/>
	</g>
</g>
<g>
</g>
<g>
</g>
<g>
</g>
<g>
</g>
<g>
</g>
<g>
</g>
<g>
</g>
<g>
</g>
<g>
</g>
<g>
</g>
<g>
</g>
<g>
</g>
<g>
</g>
<g>
</g>
<g>
</g>
</svg>
