<?xml version="1.0" standalone="no"?>
<!DOCTYPE svg PUBLIC "-//W3C//DTD SVG 1.1//EN" "http://www.w3.org/Graphics/SVG/1.1/DTD/svg11.dtd" >
<svg xmlns="http://www.w3.org/2000/svg">
<metadata></metadata>
<defs>
<font id="veronregular" horiz-adv-x="1638" >
<font-face units-per-em="2048" ascent="1729" descent="-319" />
<missing-glyph horiz-adv-x="1024" />
<glyph horiz-adv-x="0" />
<glyph unicode="&#xd;" horiz-adv-x="0" />
<glyph horiz-adv-x="0" />
<glyph horiz-adv-x="0" />
<glyph unicode=" "  horiz-adv-x="1024" />
<glyph unicode="&#x09;" horiz-adv-x="1024" />
<glyph unicode="&#xa0;" horiz-adv-x="1024" />
<glyph unicode="A" horiz-adv-x="2136" d="M51 0l1018 1534l1016 -1534h-23l-190 287h-1610l-188 -287h-23zM276 307h1584l-791 1196z" />
<glyph unicode="B" horiz-adv-x="880" d="M51 0v1536h389q80 0 152 -30.5t124 -83t82.5 -124t30.5 -151.5q0 -70 -22.5 -132.5t-63.5 -112.5t-96 -85t-119 -49q63 -16 118.5 -51t96.5 -85t63.5 -111.5t22.5 -131.5q0 -80 -30.5 -151.5t-82.5 -124t-124 -83t-152 -30.5h-389zM72 20h368q76 0 143.5 29t118 79 t79 117.5t28.5 143.5q0 74 -27.5 139.5t-76 115.5t-113 80t-137.5 34v20q74 2 138 33t112.5 80t76 115.5t27.5 140.5q0 76 -28.5 143.5t-79 117.5t-118 79t-143.5 29h-368v-1496z" />
<glyph unicode="C" horiz-adv-x="1593" d="M51 768q0 160 60.5 299t165 243.5t243.5 165t299 60.5q125 0 238.5 -38t209 -106.5t166 -162.5t109.5 -205h-20q-41 106 -110 196.5t-161 156t-201.5 102.5t-230.5 37q-154 0 -290 -59.5t-237.5 -161t-160.5 -237.5t-59 -290t59 -290t160.5 -237.5t238 -161t289.5 -59.5 q121 0 230.5 37t201.5 101.5t161 154.5t110 199h20q-39 -113 -109.5 -207t-166 -161.5t-209 -105.5t-238.5 -38q-160 0 -299 60.5t-243.5 165t-165 243.5t-60.5 299z" />
<glyph unicode="D" d="M51 0v1536h768q160 0 299 -60.5t243.5 -165t165 -243.5t60.5 -299t-60.5 -299t-165 -243.5t-243.5 -165t-299 -60.5h-768zM72 20h747q154 0 290 59.5t237.5 161t161 237.5t59.5 290t-59.5 290t-161 237.5t-237.5 161t-290 59.5h-747v-1496z" />
<glyph unicode="E" horiz-adv-x="1126" d="M51 0v1536h1024v-20h-1003v-738h798v-20h-798v-738h1003v-20h-1024z" />
<glyph unicode="F" horiz-adv-x="1126" d="M51 0v1536h1024v-20h-1003v-738h798v-20h-798v-758h-21z" />
<glyph unicode="G" d="M51 768q0 160 60.5 299t165 243.5t243.5 165t299 60.5q125 0 238.5 -38t209 -106.5t166 -162.5t109.5 -205h-22q-39 106 -109 196.5t-161 156t-201.5 102.5t-229.5 37q-154 0 -290 -59.5t-237.5 -161t-160.5 -237.5t-59 -290t59 -290t160.5 -237.5t238 -161t289.5 -59.5 q154 0 288 58.5t235.5 158t162 233.5t62.5 288h-748v20h768q0 -164 -60.5 -305t-165 -246.5t-243.5 -166t-299 -60.5t-299 60.5t-243.5 165t-165 243.5t-60.5 299z" />
<glyph unicode="H" horiz-adv-x="1536" d="M51 0v1536h21v-758h1392v758h21v-1536h-21v758h-1392v-758h-21z" />
<glyph unicode="I" horiz-adv-x="921" d="M51 0v20h400v1496h-400v20h819v-20h-399v-1496h399v-20h-819z" />
<glyph unicode="J" d="M51 0h21q0 -154 59 -290t160.5 -237.5t238 -159.5t289.5 -58q154 0 290 58t237.5 159.5t161 237.5t59.5 290v1516h-400v20h420v-1536q0 -158 -60.5 -297t-165 -243.5t-243.5 -165t-299 -60.5t-299 60.5t-243.5 165t-165 243.5t-60.5 297z" />
<glyph unicode="K" horiz-adv-x="1122" d="M51 0v1536h21v-1473l975 1473h24l-510 -768l510 -768h-24l-498 750z" />
<glyph unicode="L" horiz-adv-x="1126" d="M51 0v1536h21v-1516h1003v-20h-1024z" />
<glyph unicode="M" horiz-adv-x="4124" d="M51 0l1018 1534l993 -1501l996 1501l1015 -1534h-22l-993 1503l-996 -1503l-993 1503l-995 -1503h-23z" />
<glyph unicode="N" horiz-adv-x="3129" d="M51 0l1018 1534l993 -1501l996 1501h20l-1016 -1534l-993 1503l-995 -1503h-23z" />
<glyph unicode="O" d="M51 768q0 160 60.5 299t165 243.5t243.5 165t299 60.5t299 -60.5t243.5 -165t165 -243.5t60.5 -299t-60.5 -299t-165 -243.5t-243.5 -165t-299 -60.5t-299 60.5t-243.5 165t-165 243.5t-60.5 299zM72 768q0 -154 59 -290t160.5 -237.5t238 -161t289.5 -59.5 q154 0 290 59.5t237.5 161t161 237.5t59.5 290t-59.5 290t-161 237.5t-237.5 161t-290 59.5t-290 -59.5t-237.5 -161t-160.5 -237.5t-59 -290z" />
<glyph unicode="P" horiz-adv-x="880" d="M51 0v1536h389q80 0 152 -30.5t124 -83t82.5 -124t30.5 -151.5t-30.5 -151.5t-82.5 -124t-124 -83t-152 -30.5h-368v-758h-21zM72 778h368q76 0 143.5 29t118 79t79 117.5t28.5 143.5t-28.5 143.5t-79 117.5t-118 79t-143.5 29h-368v-738z" />
<glyph unicode="Q" d="M51 768q0 160 60.5 299t165 243.5t243.5 165t299 60.5t299 -60.5t243.5 -165t165 -243.5t60.5 -299q0 -106 -27.5 -204.5t-78.5 -184.5t-122 -156.5t-157 -120.5q17 -54 17 -110q0 -45 -11 -92q-24 -105 -104 -183l-14 15q74 74 97 171q11 46 11 90q0 50 -14 99 q-82 -45 -174 -68.5t-191 -23.5q-160 0 -299 60.5t-243.5 165t-165 243.5t-60.5 299zM72 768q0 -106 28.5 -203.5t79.5 -182.5t123 -153.5t158 -115.5q27 82 94 153q57 57 129 85t145.5 28t145.5 -27.5t129 -85.5q63 -63 92 -143q82 49 150.5 116.5t117.5 150.5t76 179.5 t27 198.5q0 154 -59.5 290t-161 237.5t-237.5 161t-290 59.5t-290 -59.5t-237.5 -161t-160.5 -237.5t-59 -290zM479 102q158 -82 340 -82q98 0 188.5 24t170.5 67q-14 39 -35.5 74.5t-52.5 66.5q-53 53 -122 79.5t-139.5 26.5t-138 -26.5t-121.5 -79.5q-31 -33 -54 -71 t-36 -79z" />
<glyph unicode="R" horiz-adv-x="1103" d="M51 0v1536h502q104 0 195.5 -35t159 -95t106.5 -140t39 -172q0 -90 -39 -170t-106.5 -139.5t-159 -94.5t-195.5 -35h-221l534 -655h-28l-549 676h264q94 0 181 30.5t153.5 86t105.5 132t39 169.5q0 100 -43 179t-111.5 132t-153.5 82t-171 29h-481v-1516h-21z" />
<glyph unicode="S" horiz-adv-x="997" d="M51 389h21q0 -76 33.5 -143.5t92 -117.5t135.5 -79t165 -29t165.5 29t136 79t92.5 117.5t34 143.5q0 102 -38 165.5t-99.5 102.5t-139.5 61.5t-160.5 42t-160.5 43t-139.5 64.5t-99.5 107.5t-38 171.5q0 80 35 151.5t95.5 124t142.5 83t174 30.5t174 -30.5t143.5 -83 t96 -124t34.5 -151.5h-20q0 76 -34 143.5t-92.5 117.5t-136 79t-165.5 29t-165 -29t-135.5 -79t-92 -117.5t-33.5 -143.5q0 -102 37.5 -164.5t99 -102.5t139.5 -62.5t161 -42t161 -43t139 -64.5t99 -107.5t38 -171.5q0 -80 -34.5 -151.5t-96 -124t-143.5 -83t-174 -30.5 t-174 30.5t-142.5 83t-95.5 124t-35 151.5z" />
<glyph unicode="T" horiz-adv-x="2129" d="M51 1516v20h2028v-20h-1004v-1516h-20v1516h-1004z" />
<glyph unicode="U" d="M51 768v768h21v-768q0 -154 59 -290t160.5 -237.5t238 -161t289.5 -59.5q154 0 290 59.5t237.5 161t161 237.5t59.5 290v768h20v-768q0 -160 -60.5 -299t-165 -243.5t-243.5 -165t-299 -60.5t-299 60.5t-243.5 165t-165 243.5t-60.5 299z" />
<glyph unicode="V" horiz-adv-x="2136" d="M51 1534h23l995 -1503l993 1503h23l-1016 -1534z" />
<glyph unicode="W" horiz-adv-x="4124" d="M51 1534h23l995 -1503l993 1503l996 -1503l993 1503h22l-1015 -1534l-996 1501l-993 -1501z" />
<glyph unicode="X" horiz-adv-x="1142" d="M51 1536h23l497 -754l498 754h23l-510 -770l508 -766h-21l-498 752l-497 -752h-21l508 766z" />
<glyph unicode="Y" horiz-adv-x="1142" d="M51 1536h23l497 -754l498 754h23l-1018 -1536h-21l508 766z" />
<glyph unicode="Z" horiz-adv-x="1146" d="M51 1516v20h1045l-1006 -1518h1006v-18h-1039l13 18l989 1498h-1008z" />
<glyph unicode="a" horiz-adv-x="2136" d="M51 0l1018 1534l1016 -1534h-23l-663 1004h-660l-665 -1004h-23zM752 1024h632l-315 479z" />
<glyph unicode="b" horiz-adv-x="880" d="M51 0v1536h389q80 0 152 -30.5t124 -83t82.5 -124t30.5 -151.5q0 -70 -22.5 -132.5t-63.5 -112.5t-96 -85t-119 -49q63 -16 118.5 -51t96.5 -85t63.5 -111.5t22.5 -131.5q0 -80 -30.5 -151.5t-82.5 -124t-124 -83t-152 -30.5h-389zM72 20h368q76 0 143.5 29t118 79 t79 117.5t28.5 143.5q0 74 -27.5 139.5t-76 115.5t-113 80t-137.5 34v20q74 2 138 33t112.5 80t76 115.5t27.5 140.5q0 76 -28.5 143.5t-79 117.5t-118 79t-143.5 29h-368v-1496z" />
<glyph unicode="c" horiz-adv-x="1593" d="M51 768q0 160 60.5 299t165 243.5t243.5 165t299 60.5q125 0 238.5 -38t209 -106.5t166 -162.5t109.5 -205h-20q-41 106 -110 196.5t-161 156t-201.5 102.5t-230.5 37q-154 0 -290 -59.5t-237.5 -161t-160.5 -237.5t-59 -290t59 -290t160.5 -237.5t238 -161t289.5 -59.5 q121 0 230.5 37t201.5 101.5t161 154.5t110 199h20q-39 -113 -109.5 -207t-166 -161.5t-209 -105.5t-238.5 -38q-160 0 -299 60.5t-243.5 165t-165 243.5t-60.5 299z" />
<glyph unicode="d" d="M51 0v1536h768q160 0 299 -60.5t243.5 -165t165 -243.5t60.5 -299t-60.5 -299t-165 -243.5t-243.5 -165t-299 -60.5h-768zM72 20h747q154 0 290 59.5t237.5 161t161 237.5t59.5 290t-59.5 290t-161 237.5t-237.5 161t-290 59.5h-747v-1496z" />
<glyph unicode="e" horiz-adv-x="1126" d="M51 0v1536h1024v-20h-1003v-738h798v-20h-798v-738h1003v-20h-1024z" />
<glyph unicode="f" horiz-adv-x="1126" d="M51 0v1536h1024v-20h-1003v-738h798v-20h-798v-758h-21z" />
<glyph unicode="g" d="M51 768q0 160 60.5 299t165 243.5t243.5 165t299 60.5q125 0 238.5 -38t209 -106.5t166 -162.5t109.5 -205h-22q-39 106 -109 196.5t-161 156t-201.5 102.5t-229.5 37q-154 0 -290 -59.5t-237.5 -161t-160.5 -237.5t-59 -290t59 -290t160.5 -237.5t238 -161t289.5 -59.5 q154 0 288 58.5t235.5 158t162 233.5t62.5 288h-748v20h768q0 -164 -60.5 -305t-165 -246.5t-243.5 -166t-299 -60.5t-299 60.5t-243.5 165t-165 243.5t-60.5 299z" />
<glyph unicode="h" horiz-adv-x="1536" d="M51 0v1536h21v-1024h1392v1024h21v-1536h-21v492h-1392v-492h-21z" />
<glyph unicode="i" horiz-adv-x="921" d="M51 0v20h400v1496h-400v20h819v-20h-399v-1496h399v-20h-819z" />
<glyph unicode="j" d="M51 768h21q0 -154 59 -290t160.5 -237.5t238 -161t289.5 -59.5q154 0 290 59.5t237.5 161t161 237.5t59.5 290v748h-400v20h420v-768q0 -160 -60.5 -299t-165 -243.5t-243.5 -165t-299 -60.5t-299 60.5t-243.5 165t-165 243.5t-60.5 299z" />
<glyph unicode="k" horiz-adv-x="1148" d="M51 0v1536h21v-1130l999 1130h25l-676 -768l678 -768h-29l-663 752l-334 -379v-373h-21z" />
<glyph unicode="l" horiz-adv-x="1126" d="M51 0v1536h21v-1516h1003v-20h-1024z" />
<glyph unicode="m" horiz-adv-x="2093" d="M51 0v1536l993 -1505l998 1505v-1536h-21v1470l-977 -1470l-972 1470v-1470h-21z" />
<glyph unicode="n" horiz-adv-x="2064" d="M51 0v1536l1942 -1497v1497h20v-1536l-1941 1495v-1495h-21z" />
<glyph unicode="o" d="M51 768q0 160 60.5 299t165 243.5t243.5 165t299 60.5t299 -60.5t243.5 -165t165 -243.5t60.5 -299t-60.5 -299t-165 -243.5t-243.5 -165t-299 -60.5t-299 60.5t-243.5 165t-165 243.5t-60.5 299zM72 768q0 -154 59 -290t160.5 -237.5t238 -161t289.5 -59.5 q154 0 290 59.5t237.5 161t161 237.5t59.5 290t-59.5 290t-161 237.5t-237.5 161t-290 59.5t-290 -59.5t-237.5 -161t-160.5 -237.5t-59 -290z" />
<glyph unicode="p" horiz-adv-x="1103" d="M51 0v1536h502q104 0 195.5 -35t159 -95t106.5 -140t39 -172q0 -90 -46 -186.5t-159 -176.5t-302 -131t-474 -51v-549h-21zM72 569q276 0 460.5 48.5t295 123t157.5 167.5t47 186q0 100 -43 179t-111.5 132t-153.5 82t-171 29h-481v-947z" />
<glyph unicode="q" d="M51 768q0 160 60.5 299t165 243.5t243.5 165t299 60.5t299 -60.5t243.5 -165t165 -243.5t60.5 -299q0 -106 -27.5 -204.5t-78.5 -184.5t-122 -156.5t-157 -120.5q17 -54 17 -110q0 -45 -11 -92q-24 -105 -104 -183l-14 15q74 74 97 171q11 46 11 90q0 50 -14 99 q-82 -45 -174 -68.5t-191 -23.5q-160 0 -299 60.5t-243.5 165t-165 243.5t-60.5 299zM72 768q0 -106 28.5 -203.5t79.5 -182.5t123 -153.5t158 -115.5q27 82 94 153q57 57 129 85t145.5 28t145.5 -27.5t129 -85.5q63 -63 92 -143q82 49 150.5 116.5t117.5 150.5t76 179.5 t27 198.5q0 154 -59.5 290t-161 237.5t-237.5 161t-290 59.5t-290 -59.5t-237.5 -161t-160.5 -237.5t-59 -290zM479 102q158 -82 340 -82q98 0 188.5 24t170.5 67q-14 39 -35.5 74.5t-52.5 66.5q-53 53 -122 79.5t-139.5 26.5t-138 -26.5t-121.5 -79.5q-31 -33 -54 -71 t-36 -79z" />
<glyph unicode="r" horiz-adv-x="1103" d="M51 0v1536h502q104 0 195.5 -35t159 -95t106.5 -140t39 -172q0 -90 -42 -180.5t-131 -161t-225.5 -114.5t-322.5 -44l534 -594h-28l-549 614q195 0 335 41t231 107.5t134 152.5t43 179q0 100 -43 179t-111.5 132t-153.5 82t-171 29h-481v-1516h-21z" />
<glyph unicode="s" horiz-adv-x="997" d="M51 389h21q0 -76 33.5 -143.5t92 -117.5t135.5 -79t165 -29t165.5 29t136 79t92.5 117.5t34 143.5q0 102 -38 165.5t-99.5 102.5t-139.5 61.5t-160.5 42t-160.5 43t-139.5 64.5t-99.5 107.5t-38 171.5q0 80 35 151.5t95.5 124t142.5 83t174 30.5t174 -30.5t143.5 -83 t96 -124t34.5 -151.5h-20q0 76 -34 143.5t-92.5 117.5t-136 79t-165.5 29t-165 -29t-135.5 -79t-92 -117.5t-33.5 -143.5q0 -102 37.5 -164.5t99 -102.5t139.5 -62.5t161 -42t161 -43t139 -64.5t99 -107.5t38 -171.5q0 -80 -34.5 -151.5t-96 -124t-143.5 -83t-174 -30.5 t-174 30.5t-142.5 83t-95.5 124t-35 151.5z" />
<glyph unicode="t" horiz-adv-x="2129" d="M51 1516v20h2028v-20h-1004v-1516h-20v1516h-1004z" />
<glyph unicode="u" d="M51 768v768h21v-768q0 -154 59 -290t160.5 -237.5t238 -161t289.5 -59.5q154 0 290 59.5t237.5 161t161 237.5t59.5 290v768h20v-768q0 -160 -60.5 -299t-165 -243.5t-243.5 -165t-299 -60.5t-299 60.5t-243.5 165t-165 243.5t-60.5 299z" />
<glyph unicode="v" horiz-adv-x="2136" d="M51 1534h23l995 -1503l993 1503h23l-1016 -1534z" />
<glyph unicode="w" horiz-adv-x="2109" d="M51 0v1536h21v-1491l983 760l983 -760v1491h20v-1536l-4 2l-999 772l-1002 -772z" />
<glyph unicode="x" horiz-adv-x="1142" d="M51 1536h23l497 -754l498 754h23l-510 -770l508 -766h-21l-498 752l-497 -752h-21l508 766z" />
<glyph unicode="y" horiz-adv-x="1142" d="M51 1536h23l497 -754l498 754h23l-1018 -1536h-21l508 766z" />
<glyph unicode="z" horiz-adv-x="1146" d="M51 1516v20h1045l-1006 -1518h1006v-18h-1039l13 18l989 1498h-1008z" />
<glyph unicode="&#x2000;" horiz-adv-x="768" />
<glyph unicode="&#x2001;" horiz-adv-x="1536" />
<glyph unicode="&#x2002;" horiz-adv-x="768" />
<glyph unicode="&#x2003;" horiz-adv-x="1536" />
<glyph unicode="&#x2004;" horiz-adv-x="512" />
<glyph unicode="&#x2005;" horiz-adv-x="384" />
<glyph unicode="&#x2006;" horiz-adv-x="256" />
<glyph unicode="&#x2007;" horiz-adv-x="256" />
<glyph unicode="&#x2008;" horiz-adv-x="192" />
<glyph unicode="&#x2009;" horiz-adv-x="307" />
<glyph unicode="&#x200a;" horiz-adv-x="85" />
<glyph unicode="&#x202f;" horiz-adv-x="307" />
<glyph unicode="&#x205f;" horiz-adv-x="384" />
<glyph unicode="&#x25fc;" horiz-adv-x="1536" d="M0 0v1536h1536v-1536h-1536z" />
</font>
</defs>
</svg>
