<?xml version="1.0" standalone="no"?>
<!DOCTYPE svg PUBLIC "-//W3C//DTD SVG 1.1//EN" "http://www.w3.org/Graphics/SVG/1.1/DTD/svg11.dtd" >
<svg xmlns="http://www.w3.org/2000/svg" xmlns:xlink="http://www.w3.org/1999/xlink" version="1.1">
<metadata></metadata>
<defs>
<font id="ultimapdabhairlineitalic" horiz-adv-x="1165" >
<font-face units-per-em="2048" ascent="1638" descent="-410" />
<missing-glyph horiz-adv-x="591" />
<glyph horiz-adv-x="0" />
<glyph unicode="&#xd;" horiz-adv-x="0" />
<glyph unicode=" "  horiz-adv-x="591" />
<glyph unicode="&#x09;" horiz-adv-x="591" />
<glyph unicode="&#xa0;" horiz-adv-x="591" />
<glyph unicode="!" horiz-adv-x="360" d="M72 0l22 166h21l-23 -166h-20zM115 322l153 1153h21l-154 -1153h-20z" />
<glyph unicode="&#x22;" horiz-adv-x="473" d="M49 1104l330 371h27l-332 -371h-25zM215 1104l330 371h26l-331 -371h-25z" />
<glyph unicode="#" horiz-adv-x="1249" d="M49 461l4 20h228l170 512h-330l2 21h334l151 461h21l-152 -461h475l152 461h20l-151 -461h225l-2 -21h-229l-168 -512h329l-4 -20h-331l-152 -461h-23l152 461h-475l-152 -461h-20l151 461h-225zM303 481h475l168 512h-475z" />
<glyph unicode="$" horiz-adv-x="743" d="M49 469l21 12q-4 -90 60.5 -150.5t172.5 -60.5q57 0 107.5 17.5t89.5 48.5t64.5 73t31.5 91q10 76 -37 115.5t-119 74.5q-39 18 -77.5 36.5t-77.5 37.5q-37 18 -69 37.5t-53.5 44t-31.5 56.5t-4 75q6 51 31.5 96t65.5 78t90.5 52.5t105.5 21.5l33 250h20l-33 -250 q68 -2 120 -31t81 -76l-4 -43q-23 57 -77 93t-132 36q-53 0 -101 -17.5t-86 -48t-62.5 -72.5t-31.5 -89q-6 -39 4.5 -67.5t31 -51t49 -41t63.5 -35.5q39 -18 78 -36.5t78 -36.5t71.5 -38t56 -43.5t33.5 -54t4 -73.5q-6 -53 -32.5 -97.5t-67.5 -78t-94 -53t-111 -21.5 l-32 -250h-21l33 250q-109 4 -175.5 65.5t-66.5 153.5z" />
<glyph unicode="%" horiz-adv-x="1449" d="M53 0l1317 1475h27l-1317 -1475h-27zM143 873.5q-4 80.5 7 160.5q10 80 35.5 161t65.5 146.5t95 107.5t125 42q68 0 112 -42t66.5 -107.5t27.5 -146.5t-5 -161t-37 -160.5t-67 -146t-95 -107.5t-123 -42q-70 0 -113.5 42t-66.5 107.5t-27 146zM164 876.5 q4 -77.5 25.5 -140t61.5 -100.5t101 -38q59 0 109.5 38t88.5 99.5t63.5 140t35.5 158.5t6 159t-25.5 140.5t-61.5 99t-101 37.5q-59 0 -109.5 -37.5t-88.5 -99t-63.5 -140.5t-35.5 -159t-6 -157.5zM772 279.5q-4 80.5 6 160.5t37 161t67 146.5t95 107.5t123 42t111.5 -42 t67.5 -108.5t27.5 -147.5t-6.5 -159q-10 -80 -36.5 -160.5t-66.5 -146t-95 -107.5t-123 -42q-70 0 -114 42t-66.5 107.5t-26.5 146zM793 281.5q4 -78.5 26.5 -140t62.5 -99.5t99 -38q61 0 111.5 38t88.5 99.5t63.5 140t35.5 158.5t6 158t-26.5 140.5t-62.5 100.5t-99 38 q-61 0 -111.5 -38t-88.5 -99.5t-63.5 -140.5t-35.5 -159t-6 -158.5z" />
<glyph unicode="&#x26;" horiz-adv-x="1218" d="M57 342q12 90 61.5 163t117 131t146.5 105t150 88q-25 37 -57.5 81t-62 94.5t-47 105.5t-9.5 113q8 70 41 120t79 82.5t101.5 49t110.5 16.5q61 0 112.5 -18.5t87.5 -53.5t53 -84t9 -112q-10 -72 -50 -129.5t-96 -105.5t-119.5 -88t-121.5 -77l344 -520q33 57 58.5 125 t35.5 150h21q-10 -88 -35.5 -155t-66.5 -138l186 -287h-27l-174 266q-86 -123 -201.5 -201.5t-275.5 -78.5q-78 0 -149.5 24.5t-124 71.5t-80 112.5t-17.5 149.5zM78 342q-10 -78 15.5 -140.5t76.5 -106.5t119.5 -67.5t142.5 -23.5q154 0 269.5 79t193.5 204l-354 526 q-68 -41 -145 -86t-143.5 -101.5t-114.5 -126t-60 -157.5zM377 1223q-6 -49 12.5 -101.5t47 -103.5t61 -97.5t55.5 -78.5q51 33 113.5 71.5t118 84.5t95.5 101.5t50 123.5q8 59 -9.5 105t-52 78t-83 48t-99.5 16q-55 0 -108.5 -17t-95.5 -49t-69.5 -78t-35.5 -103z" />
<glyph unicode="'" horiz-adv-x="307" d="M49 1104l330 371h27l-332 -371h-25z" />
<glyph unicode="(" horiz-adv-x="548" d="M76 489q37 281 172 531t358 455h41q-119 -92 -213 -211t-163.5 -250t-113.5 -265.5t-61 -259.5q-16 -123 -8 -258t43 -265t98.5 -249.5t157.5 -214.5h-41q-172 205 -238.5 459t-31.5 528z" />
<glyph unicode=")" horiz-adv-x="550" d="M-162 -498q119 92 213 211t163 249t113 265t60 260q16 123 8 258.5t-42 265.5t-97 249.5t-158 214.5h41q172 -205 240 -459.5t31 -528.5q-37 -281 -172.5 -530.5t-358.5 -454.5h-41z" />
<glyph unicode="*" horiz-adv-x="745" d="M66 961l286 165l-286 164l10 19l286 -166v332h21v-332l287 166l10 -19l-287 -164l287 -165l-10 -19l-287 166v-332h-21v332l-286 -166z" />
<glyph unicode="+" horiz-adv-x="1445" d="M154 727v21h559v559h20v-559h559v-21h-559v-559h-20v559h-559z" />
<glyph unicode="," horiz-adv-x="194" d="M-49 -119l43 119h-4l20 166h21l-21 -166l-43 -119h-16z" />
<glyph unicode="-" horiz-adv-x="870" d="M47 444l4 21h697l-5 -21h-696z" />
<glyph unicode="." horiz-adv-x="194" d="M-10 0l20 166h21l-21 -166h-20z" />
<glyph unicode="/" horiz-adv-x="505" d="M-98 0l680 1475h22l-680 -1475h-22z" />
<glyph unicode="0" d="M144.5 470q-7.5 134 11.5 267q18 131 60 266.5t108.5 243t156.5 176t201 68.5q113 0 184.5 -68.5t109.5 -176t45 -243t-9 -266.5q-18 -133 -61.5 -267t-110 -241.5t-156.5 -176t-201 -68.5q-113 0 -184.5 68.5t-109 176t-45 241.5zM165 473q7 -131 44 -235.5t104.5 -169 t171.5 -64.5q102 0 187.5 64.5t150 169t106.5 235.5t60 264t10 264.5t-44.5 235.5t-104.5 168.5t-170 64.5q-104 0 -189 -64.5t-148.5 -168.5t-105.5 -235.5t-61 -264.5q-18 -133 -11 -264z" />
<glyph unicode="1" d="M477 0l191 1444l-95 -68l2 27l121 88l-198 -1491h-21z" />
<glyph unicode="2" d="M43 0l2 20q66 47 162 106.5t205.5 131.5t220 155t203 177t156 197.5t77.5 216.5q12 100 -11.5 185t-75.5 147.5t-130 98t-174 35.5q-94 0 -179 -33.5t-154 -93t-116 -141.5t-63 -176q0 -6 -1 -11t-1 -11l-17 28q0 4 1.5 7t1.5 8q20 94 69 176t120 141t158 93t183 34 q100 0 182 -37t137.5 -102.5t80 -154.5t10.5 -193q-16 -113 -80 -218.5t-155 -201t-201.5 -179t-218 -155.5t-203 -130.5t-156.5 -99.5h887l-2 -20h-918z" />
<glyph unicode="3" d="M96 121l4 29q53 -70 134 -108t182 -38q96 0 183 36t156.5 98.5t116 147.5t60.5 185q12 100 -11.5 185t-75.5 147.5t-130 98.5t-174 36l2 20q53 0 101 19.5t86 54.5t62.5 81t32.5 101q6 55 -6 101.5t-40.5 81.5t-71.5 54t-97 19q-111 0 -194 -79l4 28q84 72 194 72 q57 0 103.5 -21.5t77 -58.5t45 -87t6.5 -110q-12 -96 -72.5 -165.5t-146.5 -98.5q82 -14 148.5 -56t109.5 -105.5t61 -144.5t6 -173q-14 -104 -62 -193.5t-120 -155t-164 -102t-192 -36.5t-181 35.5t-137 101.5z" />
<glyph unicode="4" d="M80 559l2 21l852 895h27l-121 -895h200l-2 -21h-200l-74 -559h-21l74 559h-737zM109 580h710l117 870z" />
<glyph unicode="5" d="M145 33l2 24q90 -53 209 -53q96 0 183.5 36t157 98.5t115.5 147.5t58 185q14 100 -9 185t-75.5 147.5t-130 98.5t-174.5 36q-53 0 -104 -11.5t-98 -31.5l75 580h650l-3 -21h-628l-70 -528q43 16 88 24t92 8q100 0 182.5 -36.5t136.5 -102t78.5 -155t10.5 -193.5 t-61.5 -193.5t-120 -155t-163.5 -102t-192 -36.5q-59 0 -111.5 13t-97.5 36z" />
<glyph unicode="6" d="M74 471q29 217 138.5 406.5t276.5 339.5q102 90 216 157.5t239 116.5l4 -18q-244 -96 -432 -261q-129 -111 -224 -246t-149 -288q72 127 197 203.5t272 76.5q100 0 182.5 -36.5t136.5 -102t78.5 -155t10.5 -193.5t-61.5 -193.5t-120 -155t-163.5 -102t-192 -36.5 q-100 0 -182 36.5t-137 102t-80 155t-10 193.5zM94 471q-12 -100 11.5 -185t75.5 -147.5t130 -98.5t174 -36t183.5 36t157 98.5t115.5 147.5t58 185q14 100 -9 185t-75.5 147.5t-130 98.5t-174.5 36q-96 0 -184 -36t-156.5 -98.5t-114.5 -147.5t-61 -185z" />
<glyph unicode="7" d="M205 1454l2 21h948l-858 -1475h-23l846 1454h-915z" />
<glyph unicode="8" d="M74 471q12 92 52 173t99.5 144.5t137 105.5t163.5 56q-78 29 -119.5 98.5t-29.5 165.5q8 59 35.5 109.5t68.5 87.5t92.5 58.5t108.5 21.5t104.5 -21.5t79 -58.5t45 -87t4.5 -110q-12 -96 -72.5 -165.5t-146.5 -98.5q82 -14 147.5 -56t108.5 -105.5t61.5 -144.5t6.5 -173 q-14 -104 -61.5 -193.5t-120 -155t-163.5 -102t-192 -36.5q-102 0 -183 36.5t-136 102t-80 155t-10 193.5zM94 471q-12 -100 11.5 -185t75.5 -147.5t130 -98.5t174 -36t183.5 36t157 98.5t115.5 147.5t58 185q14 100 -9 185t-75.5 147.5t-130 98.5t-174.5 36q-96 0 -184 -36 t-156.5 -98.5t-114.5 -147.5t-61 -185zM399 1214q-8 -55 4.5 -101t41 -81t71.5 -54.5t96 -19.5q51 0 99.5 19.5t86.5 54.5t63.5 81t33.5 101q6 55 -6 101.5t-41 81.5t-72 54t-96 19t-100.5 -19t-85 -54t-63 -81t-32.5 -102z" />
<glyph unicode="9" d="M145 1004q14 104 61.5 193t120 154.5t164 102.5t191.5 37t182 -37t137.5 -102.5t80 -154.5t10.5 -193q-29 -217 -137.5 -406.5t-278.5 -339.5q-102 -90 -216 -157.5t-237 -116.5l-6 18q121 47 230.5 112.5t201.5 145.5q131 113 225.5 248t147.5 289q-72 -127 -197 -204 t-272 -77q-100 0 -182 37t-136.5 102.5t-79 154.5t-10.5 194zM166 1004q-12 -100 10.5 -185.5t74.5 -148t131 -98t175 -35.5t183 35.5t157 98t116 148t58 185.5t-11.5 185t-75.5 147.5t-130 98t-174 35.5t-183 -35.5t-157 -98t-116 -147.5t-58 -185z" />
<glyph unicode=":" horiz-adv-x="194" d="M-10 0l20 166h21l-21 -166h-20zM92 776l23 166h20l-22 -166h-21z" />
<glyph unicode=";" horiz-adv-x="194" d="M-49 -119l43 119h-4l20 166h21l-21 -166l-43 -119h-16zM92 776l23 166h20l-22 -166h-21z" />
<glyph unicode="&#x3c;" horiz-adv-x="1445" d="M154 727v21l1138 483v-21l-1112 -473l1112 -473v-20z" />
<glyph unicode="=" horiz-adv-x="1445" d="M154 494v20h1138v-20h-1138zM154 961v20h1138v-20h-1138z" />
<glyph unicode="&#x3e;" horiz-adv-x="1445" d="M154 244v20l1112 473l-1112 473v21l1138 -483v-21z" />
<glyph unicode="?" horiz-adv-x="884" d="M8 0l21 166h20l-20 -166h-21zM49 322l33 241q41 -20 89 -31.5t101 -11.5q96 0 184.5 36t157 98.5t114.5 147.5t60 185q12 100 -11 185t-75.5 147.5t-130 98.5t-174.5 36q-117 0 -223 -53l4 24q51 23 106.5 36.5t114.5 13.5q100 0 182.5 -37t137.5 -102.5t79.5 -155 t10.5 -193.5t-62.5 -193t-120 -155t-163.5 -102.5t-193 -36.5q-90 0 -172 32l-26 -210h-23z" />
<glyph unicode="@" horiz-adv-x="1601" d="M109 743q0 156 58 289t157.5 230.5t232.5 151.5t283 54q135 0 253.5 -42t208 -120.5t140.5 -191.5t51 -252q0 -117 -40 -219t-103.5 -178t-140 -120t-148.5 -44q-29 0 -53.5 9t-40 28.5t-19.5 50.5t6 72q-51 -78 -119.5 -119t-177.5 -41q-57 0 -106 22.5t-85 60.5 t-56.5 90t-20.5 114q0 94 35 196.5t97.5 188.5t149.5 141t193 55q111 0 179.5 -48t107.5 -138l55 147h21l-140 -360l-83 -215q-16 -43 -26.5 -85t-7.5 -75t25.5 -53t69.5 -20q66 0 137.5 42t132 114.5t99.5 171t39 212.5q0 129 -48.5 237.5t-133.5 185.5t-200.5 120 t-250.5 43q-152 0 -282 -55.5t-225 -150.5t-149.5 -224t-54.5 -275q0 -176 57.5 -310t155.5 -224t227 -136t271 -46q94 0 181 24.5t164 68.5t141.5 103.5t113.5 126.5h22q-49 -78 -118.5 -141.5t-151.5 -108.5t-172 -69.5t-180 -24.5q-135 0 -266.5 43t-234.5 133 t-166.5 229.5t-63.5 331.5zM410 588q0 -57 19.5 -105.5t53 -84.5t80.5 -56t103 -20q43 0 88 11t88 39.5t82 77t67 123.5l146 381q-16 55 -46 93t-69 60.5t-82 32t-84 9.5q-100 0 -182 -55.5t-140.5 -139.5t-91 -182t-32.5 -184z" />
<glyph unicode="A" horiz-adv-x="1411" d="M-98 0l891 1475h22l498 -1475h-23l-188 557h-842l-336 -557h-22zM272 578h824l-295 872z" />
<glyph unicode="B" horiz-adv-x="1046" d="M72 0l196 1475h199q102 0 186 -29t143 -79q58 -51 86 -119q20 -50 20 -105q0 -20 -3 -41q-8 -63 -39 -119.5t-80 -102.5t-112.5 -80t-137.5 -52h7q98 -4 179 -35t136 -81q56 -50 82 -116q19 -48 19 -100q0 -20 -3 -41q-10 -80 -57 -147.5t-121 -119t-169 -80t-200 -28.5 h-331zM94 20h314q102 0 193 28t160.5 76t114 112.5t54.5 138.5q2 17 2 33q0 54 -20 103q-26 64 -84 112.5t-141 76t-185 27.5h-314zM193 748h178q100 0 188 27.5t155.5 75.5t111 112.5t53.5 138.5q2 18 2 35q1 55 -19 103q-26 64 -81.5 111.5t-135.5 75t-180 27.5h-180z" />
<glyph unicode="C" horiz-adv-x="1480" d="M109 737q20 160 101 297t200.5 238.5t272.5 160t318 58.5q147 0 272.5 -46t217.5 -130l-4 -27q-92 86 -216 134t-272 48q-162 0 -310 -56t-266 -155.5t-194.5 -233.5t-97.5 -288q-6 -50 -7 -97q0 -100 29 -191q42 -134 132 -233t223 -155.5t295 -56.5q158 0 301 53.5 t260 145.5l-4 -27q-117 -92 -260.5 -142t-298.5 -50q-166 0 -302.5 58t-230.5 160q-94 100 -137 238q-29 92 -29 195q0 50 7 102z" />
<glyph unicode="D" horiz-adv-x="1572" d="M72 0l196 1475h518q164 0 298.5 -57.5t225.5 -157.5q90 -99 132 -233q28 -90 29 -191q0 -48 -7 -99q-20 -156 -98 -290t-195.5 -233t-266 -156.5t-312.5 -57.5h-520zM94 20h500q160 0 305 55.5t259 152t189 227t95 282.5q7 51 7 99q0 97 -27 184q-40 131 -129 227 t-219 151.5t-290 55.5h-499z" />
<glyph unicode="E" horiz-adv-x="1015" d="M72 0l196 1475h738l-2 -21h-719l-92 -706h708l-4 -21h-709l-94 -707h740l-5 -20h-757z" />
<glyph unicode="F" horiz-adv-x="923" d="M72 0l196 1475h688l-4 -21h-667l-92 -706h614l-2 -21h-617l-96 -727h-20z" />
<glyph unicode="G" horiz-adv-x="1556" d="M109 737q20 160 101 297t200.5 238.5t272.5 160t318 58.5q147 0 272.5 -46t217.5 -130l-4 -27q-92 86 -216 134t-272 48q-162 0 -310 -56t-266 -155.5t-194.5 -233.5t-97.5 -288q-6 -50 -6 -97q0 -100 28 -191q42 -134 132 -233t223 -155.5t295 -56.5q150 0 287 48 t249 134l64 463h20l-63 -473q-117 -92 -260.5 -142t-298.5 -50q-172 0 -311.5 61t-233.5 170q-88 102 -128 235q-26 88 -26 184q0 50 7 103z" />
<glyph unicode="H" horiz-adv-x="1490" d="M72 0l196 1475h21l-96 -727h1107l99 727h20l-196 -1475h-21l96 727h-1110l-96 -727h-20z" />
<glyph unicode="I" horiz-adv-x="360" d="M72 0l196 1475h21l-197 -1475h-20z" />
<glyph unicode="J" horiz-adv-x="552" d="M-35 -14l4 20q8 -2 29 -2q57 0 108.5 21.5t93.5 59.5t68.5 89t34.5 113l158 1188h22l-159 -1188q-10 -68 -41 -125.5t-78 -98.5q-91 -79 -206 -79h-3q-20 0 -31 2z" />
<glyph unicode="K" horiz-adv-x="1132" d="M72 0l196 1475h21l-96 -721h63q162 0 309.5 55t264 152.5t193.5 229.5t99 284h21q-20 -139 -85 -262t-163 -219.5t-225 -161t-269 -87.5q141 -20 255 -85.5t190 -164t108 -225.5q21 -82 22 -170q0 -49 -7 -100h-21q8 56 8 109q0 103 -30 193q-45 136 -140.5 231.5 t-232.5 147.5t-299 52h-64l-98 -733h-20z" />
<glyph unicode="L" horiz-adv-x="1021" d="M72 0l196 1475h21l-195 -1455h766l-4 -20h-784z" />
<glyph unicode="M" horiz-adv-x="1695" d="M72 0l196 1475h27l545 -797l757 797h27l-197 -1475h-20l192 1450l-761 -803h-4l-549 803l-193 -1450h-20z" />
<glyph unicode="N" horiz-adv-x="1660" d="M72 0l196 1475h27l1079 -1450l193 1450h22l-196 -1475h-27l-1081 1450l-193 -1450h-20z" />
<glyph unicode="O" horiz-adv-x="1802" d="M109 737q20 160 101 297t200.5 238.5t272.5 160t318 58.5q168 0 304.5 -58.5t229.5 -160t136 -238.5q29 -94 30 -198q0 -48 -7 -99q-23 -160 -102 -297t-198.5 -238.5t-272 -159.5t-320.5 -58q-166 0 -302.5 58t-230.5 160q-94 100 -137 238q-29 92 -29 195q0 50 7 102z M131 737q-6 -50 -7 -97q0 -100 29 -191q42 -134 132 -233t223 -155.5t295 -56.5q164 0 312.5 56.5t265 155.5t193.5 233t97 288q7 51 7 100q0 99 -28 188q-40 134 -130 233.5t-223.5 155.5t-297.5 56q-162 0 -310 -56t-266 -155.5t-194.5 -233.5t-97.5 -288z" />
<glyph unicode="P" horiz-adv-x="1009" d="M72 0l196 1475h310q102 0 186 -29t142 -80q58 -50 86 -118q20 -50 21 -106q0 -20 -3 -42q-10 -78 -56.5 -146.5t-118 -119t-163.5 -79t-195 -28.5h-289l-96 -727h-20zM193 748h288q100 0 188.5 27.5t156 75.5t110.5 111.5t53 137.5q3 20 3 40q0 52 -20 98 q-26 64 -81 112.5t-136 76t-180 27.5h-290z" />
<glyph unicode="Q" horiz-adv-x="1802" d="M109 737q20 160 101 297t200.5 238.5t272.5 160t318 58.5q168 0 305.5 -58.5t230.5 -160t135 -238.5q28 -93 28 -196q0 -49 -6 -101q-20 -154 -94 -284.5t-185 -233.5l193 -219h-31l-178 205q-123 -104 -275.5 -162.5t-322.5 -58.5q-166 0 -302.5 58t-230.5 159.5 t-137 238.5q-29 93 -29 195q0 50 7 102zM131 737q-6 -50 -6 -97q0 -100 28 -191q42 -134 132 -233t223 -155.5t295 -56.5q164 0 312.5 56.5t265 155.5t193.5 233t97 288q7 51 7 100q0 98 -28 188q-40 134 -130 233.5t-223.5 155.5t-297.5 56q-162 0 -310 -56t-266 -155.5 t-194.5 -233.5t-97.5 -288z" />
<glyph unicode="R" horiz-adv-x="1155" d="M72 0l196 1475h310q102 0 186 -29t142 -80q58 -50 86 -118q20 -50 21 -106q0 -20 -3 -42q-10 -78 -56.5 -145.5t-117 -118t-161.5 -80t-192 -29.5q127 -29 228.5 -96.5t169 -162.5t97.5 -214q19 -76 19 -158q0 -47 -6 -96h-20q5 46 5 91q0 103 -29 196q-42 133 -133 230 t-224 153.5t-293 56.5h-109l-96 -727h-20zM193 748h288q100 0 188.5 27.5t156 75.5t110.5 111.5t53 137.5q3 20 3 40q0 52 -20 98q-26 64 -81 112.5t-136 76t-180 27.5h-290z" />
<glyph unicode="S" horiz-adv-x="970" d="M16 313l23 29q-1 -15 -1 -29q0 -57 18 -105q24 -62 68 -107.5t108.5 -71t142.5 -25.5q82 0 155.5 27.5t131 77t95.5 115t48 141.5q3 21 3 41q0 50 -18 89q-26 54 -75 94t-114.5 72.5t-133.5 65.5t-130.5 66.5t-108.5 76.5q-46 42 -70 100q-16 40 -16 92q0 22 3 46 q10 80 49 150.5t96.5 122t130.5 81t150 29.5q100 0 176 -45t117 -121l-6 -39q-35 84 -109.5 134t-179.5 50q-74 0 -142.5 -27.5t-122.5 -76.5t-91 -115.5t-47 -142.5q-3 -23 -3 -43q1 -49 17 -87q24 -54 68.5 -95t105 -73t123.5 -62q72 -37 139.5 -71t117.5 -76t76 -98 q18 -40 18 -93q0 -21 -3 -43q-10 -80 -50 -151t-101.5 -122t-138 -80.5t-162.5 -29.5q-78 0 -142.5 24.5t-112.5 69.5t-75 104.5t-27 130.5z" />
<glyph unicode="T" horiz-adv-x="1351" d="M162 1454l2 21h1220l-4 -21h-598l-194 -1454h-21l193 1454h-598z" />
<glyph unicode="U" horiz-adv-x="1544" d="M145 557l123 918h21l-123 -918q-5 -39 -6 -77q0 -74 22 -141q32 -101 100 -175t168.5 -117t223.5 -43t235.5 43t200.5 117t145.5 175t73.5 218l123 918h21l-123 -918q-16 -119 -73.5 -221.5t-146.5 -179.5q-92 -80 -209.5 -126t-248.5 -46q-133 0 -240.5 48t-179.5 134 q-66 78 -94 176q-18 63 -19 133q0 40 6 82z" />
<glyph unicode="V" horiz-adv-x="1224" d="M98 1475h23l397 -1448l782 1448h23l-797 -1475h-22z" />
<glyph unicode="W" horiz-adv-x="2308" d="M98 1475h23l366 -1446l754 1446h23l366 -1446l754 1446h20l-766 -1475h-22l-369 1446l-751 -1446h-23z" />
<glyph unicode="X" horiz-adv-x="1368" d="M-98 0l768 737l-572 738h27l561 -723l752 723h28l-768 -738l572 -737h-29l-559 723l-752 -723h-28z" />
<glyph unicode="Y" horiz-adv-x="1134" d="M98 1475h27l455 -637l624 637h29l-645 -658l-109 -817h-20l108 817z" />
<glyph unicode="Z" horiz-adv-x="1275" d="M-98 0l1425 1454h-1190l2 21h1235l-1425 -1455h1231l-2 -20h-1276z" />
<glyph unicode="[" horiz-adv-x="679" d="M6 -498l262 1973h422l-2 -21h-403l-256 -1931h403l-2 -21h-424z" />
<glyph unicode="\" horiz-adv-x="505" d="M98 1475h21l289 -1475h-23z" />
<glyph unicode="]" horiz-adv-x="679" d="M-78 -498l4 21h402l258 1931h-404l2 21h424l-262 -1973h-424z" />
<glyph unicode="^" horiz-adv-x="1097" d="M0 881l535 594h28l535 -594h-29l-520 579l-522 -579h-27z" />
<glyph unicode="_" horiz-adv-x="1097" d="M0 -168h1098v-20h-1098v20z" />
<glyph unicode="`" horiz-adv-x="0" d="M524 1454h27l231 -371h-24z" />
<glyph unicode="a" horiz-adv-x="1091" d="M72 449q14 111 66 203.5t131 160.5t179.5 106.5t210.5 38.5q72 0 138.5 -14t144.5 -43l-119 -901h-20l24 188q-115 -109 -213 -156.5t-204 -47.5q-86 0 -156 34.5t-115 96t-63 146.5q-10 47 -11 99q0 43 7 89zM92 449q-5 -40 -5 -77q1 -54 11 -104q18 -82 60.5 -140 t108 -91t147.5 -33q104 0 200.5 50t216.5 165l89 668q-72 27 -134.5 39t-128.5 12q-109 0 -205 -37t-171.5 -102.5t-125 -154.5t-63.5 -195z" />
<glyph unicode="b" horiz-adv-x="1091" d="M78 41l190 1434h21l-96 -721q115 106 212 155t205 49q86 0 156 -34.5t115 -96t63 -146.5q10 -48 10 -101q0 -41 -6 -86q-14 -111 -66.5 -204t-131 -161t-179 -106.5t-211.5 -38.5q-72 0 -138 14t-144 43zM100 55q72 -27 134.5 -39t127.5 -12q106 0 204 37t173.5 102.5 t125 155t63.5 195.5q5 40 5 77q-1 54 -11 103q-18 82 -60.5 140t-108 91t-147.5 33q-104 0 -201.5 -50t-216.5 -165z" />
<glyph unicode="c" horiz-adv-x="845" d="M74 471q14 104 62 193.5t120 155t164 102t192 36.5q104 0 191 -40l-2 -23q-41 20 -89 31.5t-102 11.5q-96 0 -184 -36t-156.5 -98.5t-114.5 -147.5t-61 -185q-4 -34 -4 -66q0 -63 16 -119q24 -85 75.5 -147.5t129.5 -98.5t174 -36q119 0 222 53l-2 -24 q-51 -23 -106.5 -36t-115.5 -13q-102 0 -183 36.5t-136 102t-80 155.5q-16 56 -16 117q0 37 6 76z" />
<glyph unicode="d" horiz-adv-x="1091" d="M78 494q12 102 54 187t103.5 146.5t139.5 96t166 34.5q106 0 190 -48t172 -156l96 721h21l-191 -1434q-86 -29 -157.5 -43t-141.5 -14q-113 0 -202.5 38.5t-150 106.5t-87.5 161q-17 60 -17 127q0 37 5 77zM98 494q-5 -38 -5 -73q1 -65 17 -123q26 -90 84 -155t144 -102 t194 -37q66 0 132.5 12.5t146.5 38.5l88 668q-90 115 -174 165t-188 50q-82 0 -156 -33t-132.5 -91t-98 -140t-52.5 -180z" />
<glyph unicode="e" horiz-adv-x="1056" d="M74 471q14 104 58 193.5t110.5 155t149.5 102t173 36.5q82 0 150.5 -31.5t116.5 -86.5q50 -56 76 -132q25 -71 24 -154v-13v-15h-828q-4 -14 -5 -27.5t-5 -27.5q-4 -34 -4 -66q0 -63 16 -119q24 -85 75.5 -147.5t129.5 -98.5t174 -36q98 0 186.5 36t157.5 101l-2 -28 q-72 -59 -158.5 -94t-185.5 -35q-102 0 -183 36.5t-136 102t-80 155.5q-16 56 -16 117q0 37 6 76zM111 547h800q0 86 -25.5 157.5t-71.5 124t-110.5 81t-140.5 28.5q-78 0 -149.5 -28.5t-132 -81t-104.5 -124t-66 -157.5z" />
<glyph unicode="f" horiz-adv-x="421" d="M49 922l2 20h191l32 246q8 63 38 119.5t74 96.5t100.5 63.5t117.5 23.5q86 0 150 -45l-4 -25q-61 49 -148 49q-57 0 -108.5 -21.5t-93.5 -59t-69.5 -89t-35.5 -112.5l-33 -246h162l-2 -20h-162l-123 -922h-20l123 922h-191z" />
<glyph unicode="g" horiz-adv-x="1091" d="M-39 -373l4 31q53 -72 134 -112t186 -40q96 0 183 36t156.5 98.5t115.5 147.5t59 185l28 215q-115 -109 -213 -156.5t-204 -47.5q-86 0 -156 34.5t-115 96t-63 146.5q-11 47 -11 99q0 43 7 89q14 111 66 203.5t131 160.5t179.5 106.5t210.5 38.5q72 0 138.5 -14 t144.5 -43l-123 -928q-14 -104 -61 -193t-120 -154.5t-164 -102.5t-191 -37q-102 0 -184.5 38t-137.5 103zM92 449q-5 -40 -5 -77q0 -55 11 -104q17 -82 60 -140t108.5 -91t147.5 -33q104 0 200.5 50t216.5 165l89 668q-72 27 -134.5 39t-128.5 12q-109 0 -205 -37 t-171.5 -102.5t-125 -154.5t-63.5 -195z" />
<glyph unicode="h" horiz-adv-x="1030" d="M72 0l196 1475h21l-96 -721q55 92 146 148t196 56q76 0 136 -29.5t101 -81.5q40 -52 58 -122q11 -45 12 -94q0 -28 -4 -58l-76 -573h-21l76 571q4 31 4 60q0 47 -10 87q-16 66 -55 115.5t-96.5 77t-127.5 27.5q-113 0 -206 -65.5t-142 -176.5l-92 -696h-20z" />
<glyph unicode="i" horiz-adv-x="360" d="M72 0l125 942h20l-125 -942h-20zM246 1309l22 166h21l-23 -166h-20z" />
<glyph unicode="j" horiz-adv-x="360" d="M-295 -512l4 20q8 -2 29 -2q57 0 108.5 21.5t92.5 59.5t68.5 89.5t35.5 112.5l154 1153h20l-154 -1153q-8 -66 -37.5 -121t-73.5 -95t-100.5 -63.5t-117.5 -23.5h-13.5t-15.5 2zM246 1309l22 166h21l-23 -166h-20z" />
<glyph unicode="k" horiz-adv-x="962" d="M72 0l196 1475h21l-131 -983h20q123 0 231.5 34.5t192.5 96t138.5 143.5t66.5 176h20q-12 -86 -55 -161.5t-111.5 -136t-157.5 -101.5t-190 -60q98 -12 191.5 -47t164 -94t107.5 -144q27 -62 27 -138q0 -29 -4 -60h-21q4 31 4 59q0 91 -39 159q-51 89 -142 145.5 t-204.5 82t-220.5 25.5h-20l-64 -471h-20z" />
<glyph unicode="l" horiz-adv-x="360" d="M72 0l196 1475h21l-197 -1475h-20z" />
<glyph unicode="m" horiz-adv-x="1718" d="M72 0l125 942h20l-24 -188q55 92 146 148t196 56q129 0 211.5 -80.5t93.5 -209.5q23 63 61.5 116.5t88.5 92t109.5 60t123.5 21.5q76 0 136 -29.5t101 -81.5q40 -52 58 -122q11 -45 12 -94q0 -28 -4 -58l-76 -573h-20l75 571q4 31 4 60q0 47 -10 87q-16 66 -55 115.5 t-96.5 77t-126.5 27.5q-72 0 -136.5 -27.5t-115.5 -77t-86 -116t-45 -144.5l-76 -573h-21l76 571q4 31 4 60q0 47 -10 87q-16 66 -55 115.5t-96.5 77t-127.5 27.5q-113 0 -206 -65.5t-142 -176.5l-92 -696h-20z" />
<glyph unicode="n" horiz-adv-x="1030" d="M72 0l125 942h20l-24 -188q55 92 146 148t196 56q76 0 136 -29.5t101 -81.5q40 -52 58 -122q11 -45 12 -94q0 -28 -4 -58l-76 -573h-21l76 571q4 31 4 60q0 47 -10 87q-16 66 -55 115.5t-96.5 77t-127.5 27.5q-113 0 -206 -65.5t-142 -176.5l-92 -696h-20z" />
<glyph unicode="o" d="M74 471q14 104 62 193.5t120 155t164 102t192 36.5t182.5 -36.5t136.5 -101.5q55 -66 79 -156q16 -57 15 -119q0 -36 -5 -74q-14 -104 -61.5 -193.5t-120 -155t-163.5 -102t-192 -36.5q-100 0 -182 36.5t-137 102t-80 155.5q-16 56 -16 117q0 37 6 76zM94 471 q-4 -34 -4 -66q0 -63 16 -119q24 -85 75.5 -147.5t129.5 -98.5t174 -36t183.5 36t157 98.5t115.5 147.5t58 185q5 38 5 74q0 59 -14 111q-23 85 -75.5 147.5t-130 98.5t-174.5 36q-96 0 -184 -36t-156.5 -98.5t-114.5 -147.5t-61 -185z" />
<glyph unicode="p" horiz-adv-x="1091" d="M6 -498l184 1399q86 29 158 43t141 14q113 0 203 -38.5t150.5 -106.5t87.5 -161q17 -60 17 -128q0 -37 -5 -75q-12 -102 -54 -187.5t-103.5 -147t-139.5 -96t-166 -34.5q-106 0 -190 48t-172 156l-90 -686h-21zM121 219q88 -115 173 -165t189 -50q82 0 156 33t132 91 t98.5 140.5t52.5 180.5q5 38 5 73q0 65 -17 122q-25 89 -83.5 154.5t-145.5 102.5t-194 37q-66 0 -132 -12.5t-146 -38.5z" />
<glyph unicode="q" horiz-adv-x="1091" d="M72 449q14 111 66 203.5t131 160.5t179.5 106.5t210.5 38.5q72 0 138.5 -14t144.5 -43l-184 -1399h-21l90 686q-115 -109 -213 -156.5t-204 -47.5q-86 0 -156 34.5t-115 96t-63 146.5q-11 47 -11 99q0 43 7 89zM92 449q-5 -40 -5 -77q0 -55 11 -104q17 -82 60 -140 t108.5 -91t147.5 -33q104 0 200.5 50t216.5 165l89 668q-72 27 -134.5 39t-128.5 12q-109 0 -205 -37t-171.5 -102.5t-125 -154.5t-63.5 -195z" />
<glyph unicode="r" horiz-adv-x="747" d="M72 0l125 942h20l-24 -188q55 92 146 148t196 56q72 0 130 -26.5t99 -73.5l-19 -12q-39 43 -93 67.5t-120 24.5q-113 0 -206 -65.5t-142 -176.5l-92 -696h-20z" />
<glyph unicode="s" horiz-adv-x="743" d="M14 203l21 12v-11q-1 -84 59 -140q64 -60 174 -60q57 0 107.5 17.5t89.5 48t64.5 72.5t31.5 91q1 11 1 20q0 25 -7 46q-10 29 -31.5 50.5t-52.5 40t-65 34.5q-41 18 -79 36.5t-77 37.5q-37 18 -68.5 37.5t-53.5 44t-32 55.5q-6 19 -6 43q0 14 2 31q6 53 33 98t67.5 79 t93 53t109.5 19q72 0 127.5 -28.5t83.5 -77.5l-6 -43q-23 57 -76 93t-131 36q-55 0 -103 -17.5t-85 -48t-61.5 -72.5t-30.5 -91q-2 -14 -2 -27q0 -57 37 -91q45 -42 112 -75q39 -18 78 -36.5t78 -37.5q39 -18 71.5 -37.5t54.5 -42.5q22 -24 34 -55q8 -20 8 -46q0 -13 -2 -28 q-6 -53 -34 -98t-71 -78.5t-97 -53t-114 -19.5q-114 0 -184 61q-69 59 -68 153v5z" />
<glyph unicode="t" horiz-adv-x="696" d="M90 922l4 20h266l41 315h21l-41 -315h276l-2 -20h-276l-86 -635q-3 -23 -3 -45q0 -36 8 -68q13 -52 45 -89.5t78 -59t103 -21.5q16 0 25 2l-2 -22h-25q-61 0 -111.5 23.5t-84.5 63.5t-48 95q-9 35 -9 75q0 22 3 46l84 635h-266z" />
<glyph unicode="u" horiz-adv-x="1030" d="M121 371l76 571h20l-76 -571q-4 -30 -4 -58q1 -47 11 -89q16 -66 54 -115.5t95 -77t129 -27.5q113 0 206 65.5t142 176.5l92 696h21l-125 -942h-21l25 188q-55 -92 -146.5 -148t-195.5 -56q-76 0 -136.5 29.5t-101.5 81.5t-58 123q-11 45 -11 94q0 29 4 59z" />
<glyph unicode="v" horiz-adv-x="868" d="M27 942h22l291 -917l534 917h23l-549 -942h-22z" />
<glyph unicode="w" horiz-adv-x="1560" d="M27 942h22l270 -915l478 915h22l232 -915l514 915h22l-528 -942h-23l-233 913l-475 -913h-23z" />
<glyph unicode="x" horiz-adv-x="915" d="M-98 0l506 471l-381 471h28l369 -457l489 457h29l-506 -471l381 -471h-29l-368 457l-490 -457h-28z" />
<glyph unicode="y" horiz-adv-x="843" d="M-117 -498l453 676l-309 764h24l299 -741l498 741h22l-964 -1440h-23z" />
<glyph unicode="z" horiz-adv-x="860" d="M-74 0l850 922h-686l4 20h727l-850 -922h727l-2 -20h-770z" />
<glyph unicode="{" horiz-adv-x="655" d="M53 477l2 21q37 0 74 25.5t68.5 73.5t56.5 114.5t35 148.5l35 266q10 74 39.5 137.5t72.5 110.5t96.5 74t112.5 27h21l-2 -21h-21q-53 0 -102 -24.5t-89 -67.5t-68 -103.5t-38 -132.5l-37 -266q-20 -139 -76.5 -240.5t-130.5 -130.5q66 -31 96.5 -131t12.5 -241l-35 -267 q-10 -72 2 -132t41 -103t72 -67.5t96 -24.5h21l-5 -21h-20q-59 0 -105.5 27t-77 74t-43 110.5t-1.5 136.5l34 267q10 82 4 148.5t-25 113.5t-49 72.5t-67 25.5z" />
<glyph unicode="|" horiz-adv-x="356" d="M168 -498v1973h20v-1973h-20z" />
<glyph unicode="}" horiz-adv-x="655" d="M-78 -498l4 21h21q51 0 101 24.5t90 67.5t67.5 103.5t38.5 131.5l35 267q8 70 28.5 131t48 109.5t60.5 82t69 47.5q-66 31 -95.5 131.5t-10.5 241.5l35 266q8 72 -3.5 132.5t-41 103.5t-72.5 67.5t-94 24.5h-21l2 21h21q59 0 106 -27t78 -74t43 -110.5t2 -137.5l-35 -266 q-10 -82 -4 -148.5t25.5 -113.5t49.5 -72.5t67 -25.5l-2 -21q-37 0 -73 -25.5t-69 -73.5t-56.5 -114.5t-35.5 -148.5l-37 -267q-10 -74 -39.5 -137t-72.5 -110t-96.5 -74t-112.5 -27h-21z" />
<glyph unicode="~" horiz-adv-x="1447" d="M154 717v22q176 125 301 125q57 0 130.5 -27.5t147.5 -60.5t142.5 -60.5t117.5 -27.5q29 0 57.5 6t62.5 22.5t77 44t104 70.5v-22q-92 -66 -160.5 -103.5t-140.5 -37.5q-55 0 -125.5 27.5t-143.5 60t-143.5 60.5t-127.5 28q-29 0 -55.5 -5t-59.5 -18.5t-77 -39 t-107 -64.5z" />
<glyph unicode="&#xa1;" horiz-adv-x="360" d="M6 -498l152 1153h22l-153 -1153h-21zM180 811l21 166h20l-20 -166h-21z" />
<glyph unicode="&#xa2;" horiz-adv-x="845" d="M109 737q14 102 61 190.5t117.5 154t161 103.5t188.5 40l33 250h20l-33 -250q100 -2 181 -41l-2 -23q-41 20 -89.5 31.5t-101.5 11.5q-96 0 -183 -35.5t-156.5 -98t-116 -147.5t-58.5 -186q-14 -100 9.5 -185t75.5 -147.5t130 -98.5t174 -36q121 0 223 54l-4 -25 q-98 -45 -211 -49l-32 -250h-21l33 250q-98 2 -178 40t-133.5 103.5t-77 153.5t-10.5 190z" />
<glyph unicode="&#xa3;" horiz-adv-x="1042" d="M-33 0l336 727h-217l2 21h225l203 440q31 68 82 125t113 98q55 37 114.5 58.5t118.5 21.5q20 0 31 -2l-10 -21q-10 2 -29 2q-57 0 -116.5 -21.5t-113 -59t-98.5 -89t-71 -112.5l-203 -440h307l-2 -21h-313l-326 -707h860l-2 -20h-891z" />
<glyph unicode="&#xa4;" horiz-adv-x="1138" d="M98 281l138 137q-59 66 -93 147.5t-34 171.5t33.5 172t93.5 148l-138 137l15 14l137 -137q66 59 147.5 93t171.5 34t172 -34t148 -93l137 137l14 -14l-137 -137q59 -66 93 -148t34 -172t-33.5 -172t-93.5 -147l137 -137l-14 -15l-137 137q-66 -59 -148 -93t-172 -34 t-172 34t-147 93l-137 -137zM129 737q0 -92 35 -172t94 -139t139 -94t172 -35t172 35t139.5 94t94.5 139t35 172t-35 172t-94.5 139.5t-139 94.5t-172.5 35q-92 0 -172 -35t-139 -94.5t-94 -139.5t-35 -172z" />
<glyph unicode="&#xa5;" horiz-adv-x="1134" d="M82 651l2 21h465l18 145l-61 86h-391l2 21h375l-394 551h27l455 -637l624 637h29l-541 -551h375l-4 -21h-391l-84 -86l-19 -145h463l-2 -21h-465l-86 -651h-20l86 651h-463z" />
<glyph unicode="&#xa6;" horiz-adv-x="356" d="M168 254h20v-752h-20v752zM168 723v752h20v-752h-20z" />
<glyph unicode="&#xa7;" horiz-adv-x="1011" d="M109 610q0 84 31.5 154t86.5 123q-45 41 -70.5 94t-25.5 127q0 80 28.5 150.5t79 122t119 81t146.5 29.5q100 0 180 -45t131 -121v-39q-45 84 -126 134t-185 50q-74 0 -138.5 -27.5t-111.5 -76.5t-74.5 -115.5t-27.5 -142.5t30.5 -130t79.5 -95t113.5 -73t132.5 -62 q92 -43 173 -83t138 -96q39 -39 61.5 -87.5t22.5 -114.5q0 -84 -31.5 -154t-85.5 -123q43 -41 70 -94t27 -127q0 -80 -30 -150.5t-80 -122t-118.5 -81t-146.5 -29.5q-98 0 -179 45t-130 121v39q43 -84 125 -134.5t184 -50.5q74 0 138.5 28t112.5 77t75.5 114.5t27.5 141.5 t-30.5 131t-81 96t-115 73t-131.5 62q-92 43 -174 83t-137 98q-39 39 -61.5 87t-22.5 113zM129 610q0 -76 33 -129t86 -93t122.5 -72.5t141.5 -65.5q72 -35 139.5 -69t118.5 -77q53 49 83 116t30 145q0 76 -33 130t-87 94t-123 72.5t-140 65.5q-72 35 -138.5 68.5 t-119.5 76.5q-53 -49 -83 -116.5t-30 -145.5z" />
<glyph unicode="&#xa8;" horiz-adv-x="0" d="M434 1083l23 166h20l-22 -166h-21zM803 1083l22 166h21l-23 -166h-20z" />
<glyph unicode="&#xa9;" horiz-adv-x="1724" d="M109 737q0 156 59 293t161.5 239.5t240 162t292.5 59.5q156 0 293 -59.5t239.5 -162t162 -239.5t59.5 -293t-59.5 -293t-162 -239.5t-239.5 -161.5t-293 -59t-293 59t-239.5 161.5t-161.5 240t-59 292.5zM129 737q0 -152 57.5 -286t156.5 -233t233.5 -156.5t285.5 -57.5 q152 0 286 57.5t233.5 156.5t156.5 233t57 286t-57 286t-156.5 233.5t-233.5 156.5t-286 57t-286 -57t-233 -156.5t-156.5 -233.5t-57.5 -286zM236 737q0 127 49 237.5t133 191.5t198.5 127t245.5 46q117 0 220.5 -36.5t185.5 -102.5v-20q-80 68 -183.5 105.5t-222.5 37.5 q-129 0 -239.5 -45t-193.5 -124t-130 -186.5t-47 -230.5t47 -230.5t130 -186t193.5 -123.5t239.5 -45q125 0 232.5 42t189.5 115v-20q-84 -72 -191.5 -113t-230.5 -41q-131 0 -245.5 46t-198.5 127t-133 191.5t-49 237.5z" />
<glyph unicode="&#xaa;" horiz-adv-x="759" d="M154 1182q8 68 40.5 124t80 97t108.5 64.5t129 23.5q41 0 83 -8t91 -29l-74 -547h-20l14 107q-66 -59 -124 -88t-122 -29q-106 0 -164.5 80t-41.5 205zM174 1182q-16 -119 39 -191.5t152 -72.5q59 0 116.5 29.5t128.5 96.5l54 396q-43 16 -80 23t-74 7 q-63 0 -120.5 -21.5t-102.5 -60t-75 -92t-38 -114.5z" />
<glyph unicode="&#xab;" horiz-adv-x="878" d="M49 459l4 24l412 281l-4 -27l-393 -266l321 -266l-2 -27zM381 459l2 24l412 281l-2 -27l-394 -266l322 -266l-4 -27z" />
<glyph unicode="&#xac;" horiz-adv-x="360" d="M-74 522l4 27l238 178l100 748h21l-99 -732l238 179l-2 -27l-238 -178l-96 -717h-20l92 700z" />
<glyph unicode="&#xad;" horiz-adv-x="870" d="M47 444l4 21h697l-5 -21h-696z" />
<glyph unicode="&#xae;" horiz-adv-x="1097" d="M94 1036q0 94 36 177t97.5 144.5t144.5 97.5t177 36t177 -36t144.5 -97.5t97.5 -144.5t36 -177t-36 -177t-97.5 -144.5t-144.5 -97t-177 -35.5t-177 35.5t-144.5 97t-97.5 144.5t-36 177zM115 1036q0 -90 33.5 -169t93 -138t138.5 -93t169 -34t169 34t138 93t93 138 t34 169t-34 169t-93 138.5t-138 93t-169 33.5t-169 -33.5t-138.5 -93t-93 -138.5t-33.5 -169zM352 696v676h146q92 0 155.5 -50t63.5 -124q0 -68 -52.5 -115t-132.5 -57q82 -29 144 -88q47 -47 72.5 -108.5t25.5 -133.5h-20q0 68 -24.5 125.5t-65.5 100.5q-47 47 -111 74.5 t-137 27.5h-43v-328h-21zM373 1044h125q86 0 142 45.5t56 108.5t-56 108.5t-142 45.5h-125v-308z" />
<glyph unicode="&#xaf;" horiz-adv-x="0" d="M352 1083l2 21h555l-4 -21h-553z" />
<glyph unicode="&#xb0;" horiz-adv-x="790" d="M94 1190q0 61 23.5 116.5t64.5 96.5t96.5 64.5t116.5 23.5t116.5 -23.5t96.5 -64.5t64.5 -96.5t23.5 -116.5t-23.5 -116.5t-64.5 -96.5t-96 -64.5t-117 -23.5q-61 0 -116.5 23.5t-96.5 64.5t-64.5 96t-23.5 117zM115 1190q0 -59 21.5 -109.5t60.5 -89.5t89 -60.5 t109 -21.5q57 0 108.5 21.5t90.5 60.5t60.5 89.5t21.5 109.5q0 57 -21.5 108.5t-60.5 90t-90 60t-109 21.5q-59 0 -109 -21.5t-89 -60t-60.5 -90t-21.5 -108.5z" />
<glyph unicode="&#xb1;" horiz-adv-x="1445" d="M154 84v20h1138v-20h-1138zM154 811v20h559v560h20v-560h559v-20h-559v-559h-20v559h-559z" />
<glyph unicode="&#xb2;" horiz-adv-x="731" d="M66 582l2 18q31 23 70.5 48.5t86.5 53.5q63 39 139 91.5t142.5 115t116 132t59.5 147.5q8 59 -6 109.5t-45 87t-77 58t-103 21.5q-55 0 -105.5 -19.5t-91.5 -55t-68.5 -84t-38.5 -103.5v-9t-2 -17l-16 28l2 10q12 57 42 107.5t73 86.5t96 56.5t111 20.5q61 0 111 -22.5 t84 -62.5t48.5 -94.5t5.5 -117.5q-10 -78 -59 -150.5t-115.5 -135t-142.5 -117t-139 -95.5q-41 -27 -78 -48t-66 -40h525l-2 -20h-559z" />
<glyph unicode="&#xb3;" horiz-adv-x="690" d="M76 657l4 29q72 -94 192 -94q57 0 108.5 21.5t92.5 58.5t68.5 87t36.5 109q8 59 -6.5 109.5t-46 87.5t-79 58.5t-104.5 21.5l2 20q66 0 113 42t57 108q8 66 -27.5 107.5t-97.5 41.5q-66 0 -123 -55l4 31q55 45 121 45q70 0 111 -49.5t33 -120.5q-8 -53 -41 -95t-80 -63 q96 -23 147 -100.5t37 -188.5q-8 -63 -38 -117.5t-74 -94.5t-99 -62.5t-117 -22.5q-61 0 -110 22.5t-84 63.5z" />
<glyph unicode="&#xb4;" horiz-adv-x="0" d="M475 1083l332 371h24l-329 -371h-27z" />
<glyph unicode="&#xb5;" horiz-adv-x="1030" d="M6 -496q25 193 43.5 329t30.5 233.5t21.5 165t16.5 122t14 105.5t15.5 115.5t20.5 152.5t29 215h20l-76 -571q-10 -80 6.5 -146.5t54.5 -116t95 -77t129 -27.5q113 0 206 65.5t142 176.5l92 696h21l-125 -942h-21l25 188q-55 -92 -146.5 -148t-195.5 -56 q-119 0 -199 69.5t-102 182.5l-96 -732h-21z" />
<glyph unicode="&#xb6;" horiz-adv-x="921" d="M94 1024q0 106 35 189t97.5 141.5t150.5 89.5t196 31h181v-1973h-21v1952h-160v-1952h-20v1071h-37q-98 2 -176 40t-132 100.5t-84 142.5t-30 168z" />
<glyph unicode="&#xb7;" horiz-adv-x="192" d="M86 653v168h20v-166z" />
<glyph unicode="&#xb8;" horiz-adv-x="0" d="M342 -373l2 23q33 -16 59 -17q45 0 80 31t41 78t-20.5 77.5t-71.5 30.5q-23 0 -57 -14l20 164h21l-17 -133q20 4 37 4q53 0 85 -38t24 -91q-8 -55 -49 -93t-95 -38q-27 0 -59 16z" />
<glyph unicode="&#xb9;" horiz-adv-x="329" d="M119 582l114 862l-57 -41l2 27l82 59l-121 -907h-20z" />
<glyph unicode="&#xba;" horiz-adv-x="765" d="M156 1194q8 63 37.5 117.5t73.5 94.5t99.5 62.5t116.5 22.5t110.5 -22.5t83.5 -62.5t48 -94.5t6 -117.5t-36.5 -117.5t-72.5 -94.5t-99.5 -62.5t-116.5 -22.5t-111.5 22.5t-84.5 62.5t-48.5 94t-5.5 118zM176 1194q-8 -59 6.5 -109.5t45 -87t76.5 -58t104 -21.5 q57 0 108 21.5t92 58t68 87t35 109.5t-5.5 109.5t-44 87t-76.5 58t-104 21.5q-57 0 -108 -21.5t-93 -58t-69 -87t-35 -109.5z" />
<glyph unicode="&#xbb;" horiz-adv-x="878" d="M12 178l4 27l392 266l-322 266l4 27l338 -281l-4 -24zM344 178l2 27l393 266l-321 266l4 27l336 -281l-4 -24z" />
<glyph unicode="&#xbc;" horiz-adv-x="1351" d="M-98 0l1317 1475h26l-1317 -1475h-26zM119 582l114 862l-57 -41l2 27l82 59l-121 -907h-20zM629 336l2 18l512 539h22l-71 -537h120l-2 -20h-120l-45 -336h-21l45 336h-442zM659 356h414l68 506z" />
<glyph unicode="&#xbd;" horiz-adv-x="1513" d="M-98 0l1317 1475h26l-1317 -1475h-26zM119 582l114 862l-57 -41l2 27l82 59l-121 -907h-20zM770 0l2 18q31 23 71 48.5t87 54.5q63 41 139 93t142.5 113.5t115.5 131t59 147.5q8 59 -6 109.5t-44.5 87.5t-77 58.5t-103.5 21.5q-55 0 -105.5 -19.5t-91 -55.5t-68.5 -84 t-38 -103v-9.5t-2 -17.5l-19 29l3 10q12 57 41.5 107.5t72.5 86t96.5 56t112.5 20.5q61 0 111.5 -22.5t84 -62.5t48 -94t6.5 -118q-10 -78 -59.5 -150.5t-116 -135t-142 -116.5t-139.5 -95q-41 -27 -77.5 -48.5t-65.5 -40.5h524l-2 -20h-559z" />
<glyph unicode="&#xbe;" horiz-adv-x="1619" d="M76 657l4 29q72 -94 192 -94q57 0 108.5 21.5t92.5 58.5t68.5 87t36.5 109q8 59 -6.5 109.5t-46 87.5t-79 58.5t-104.5 21.5l2 20q66 0 113 42t57 108q8 66 -27.5 107.5t-97.5 41.5q-66 0 -123 -55l4 31q55 45 121 45q70 0 111 -49.5t33 -120.5q-8 -53 -41 -95t-80 -63 q96 -23 147 -100.5t37 -188.5q-8 -63 -38 -117.5t-74 -94.5t-99 -62.5t-117 -22.5q-61 0 -110 22.5t-84 63.5zM170 0l1319 1475h24l-1316 -1475h-27zM897 336l2 18l514 539h21l-70 -537h119l-2 -20h-121l-45 -336h-21l45 336h-442zM928 356h413l68 506z" />
<glyph unicode="&#xbf;" horiz-adv-x="884" d="M-6 -27q14 104 61 193.5t120 155t164 102.5t193 37q88 0 170 -33l29 211h21l-33 -242q-41 20 -89 31.5t-102 11.5q-96 0 -183 -35.5t-156.5 -98t-115.5 -147.5t-59 -186q-12 -100 10.5 -185t75 -147.5t131 -98.5t175.5 -36q119 0 221 54l-2 -25q-53 -23 -108.5 -36 t-115.5 -13q-100 0 -182 37t-136 102.5t-78.5 154.5t-10.5 193zM752 795l22 166h21l-23 -166h-20z" />
<glyph unicode="&#xc0;" horiz-adv-x="1411" d="M-98 0l891 1475h22l498 -1475h-23l-188 557h-842l-336 -557h-22zM272 578h824l-295 872zM578 1952h24l234 -371h-27z" />
<glyph unicode="&#xc1;" horiz-adv-x="1411" d="M-98 0l891 1475h22l498 -1475h-23l-188 557h-842l-336 -557h-22zM272 578h824l-295 872zM809 1581l330 371h26l-331 -371h-25z" />
<glyph unicode="&#xc2;" horiz-adv-x="1411" d="M-98 0l891 1475h22l498 -1475h-23l-188 557h-842l-336 -557h-22zM272 578h824l-295 872zM522 1581l332 371h27l231 -371h-27l-221 354l-315 -354h-27z" />
<glyph unicode="&#xc3;" horiz-adv-x="1411" d="M-98 0l891 1475h22l498 -1475h-23l-188 557h-842l-336 -557h-22zM272 578h824l-295 872zM502 1567q2 25 10 48t23.5 42.5t42 31t67.5 11.5q49 0 94 -18.5t89 -40t88.5 -39t89.5 -17.5q49 0 80.5 25.5t39.5 89.5h21q-4 -25 -11.5 -49.5t-22.5 -43t-42 -30.5t-67 -12 q-49 0 -94.5 17t-89.5 38.5t-88 40t-89 18.5q-49 0 -81 -24.5t-40 -87.5h-20z" />
<glyph unicode="&#xc4;" horiz-adv-x="1411" d="M-98 0l891 1475h22l498 -1475h-23l-188 557h-842l-336 -557h-22zM272 578h824l-295 872zM623 1581l22 166h21l-23 -166h-20zM991 1581l23 166h20l-22 -166h-21z" />
<glyph unicode="&#xc5;" horiz-adv-x="1411" d="M-98 0l891 1475h22l498 -1475h-23l-188 557h-842l-336 -557h-22zM272 578h824l-295 872zM653 1749q6 39 24.5 72.5t47.5 58.5t64.5 39t74.5 14t71 -14t53.5 -39t31.5 -58.5t6 -72.5q-6 -39 -24.5 -73t-47 -58.5t-64.5 -38.5t-75 -14t-70.5 14t-53 38.5t-32 58.5t-6.5 73z M674 1749q-4 -35 5 -64.5t28.5 -51t47 -35t62.5 -13.5q70 0 124.5 48t64.5 116q8 68 -34 116t-110 48q-70 0 -124 -48t-64 -116z" />
<glyph unicode="&#xc6;" horiz-adv-x="1812" d="M-98 0l1163 1475h737l-2 -21h-719l-92 -706h709l-4 -21h-709l-94 -707h739l-4 -20h-758l74 557h-575l-441 -557h-24zM381 578h565l113 860z" />
<glyph unicode="&#xc7;" horiz-adv-x="1480" d="M109 737q20 160 101 297t200.5 238.5t272.5 160t318 58.5q147 0 272.5 -46t217.5 -130l-4 -27q-92 86 -216 134t-272 48q-162 0 -310 -56t-266 -155.5t-194.5 -233.5t-97.5 -288q-20 -154 22 -288t132 -233t223 -155.5t295 -56.5q158 0 301 53.5t260 145.5l-4 -27 q-117 -90 -256 -140t-293 -52l-14 -117q20 4 37 4q53 0 83.5 -38t24.5 -91q-8 -55 -49 -93t-94 -38q-31 0 -60 16l2 23q33 -16 60 -17q45 0 79.5 31t41.5 78q6 47 -21 77.5t-72 30.5q-23 0 -59 -14l21 148q-164 2 -299.5 61t-227.5 160.5t-134 238t-21 293.5z" />
<glyph unicode="&#xc8;" horiz-adv-x="1015" d="M72 0l196 1475h738l-2 -21h-719l-92 -706h708l-4 -21h-709l-94 -707h740l-5 -20h-757zM526 1952h27l231 -371h-24z" />
<glyph unicode="&#xc9;" horiz-adv-x="1015" d="M72 0l196 1475h738l-2 -21h-719l-92 -706h708l-4 -21h-709l-94 -707h740l-5 -20h-757zM465 1581l332 371h26l-331 -371h-27z" />
<glyph unicode="&#xca;" horiz-adv-x="1015" d="M72 0l196 1475h738l-2 -21h-719l-92 -706h708l-4 -21h-709l-94 -707h740l-5 -20h-757zM356 1581l332 371h27l231 -371h-24l-224 354l-315 -354h-27z" />
<glyph unicode="&#xcb;" horiz-adv-x="1015" d="M72 0l196 1475h738l-2 -21h-719l-92 -706h708l-4 -21h-709l-94 -707h740l-5 -20h-757zM473 1581l21 166h20l-20 -166h-21zM840 1581l22 166h21l-23 -166h-20z" />
<glyph unicode="&#xcc;" horiz-adv-x="360" d="M43 1952h27l233 -371h-27zM72 0l196 1475h21l-197 -1475h-20z" />
<glyph unicode="&#xcd;" horiz-adv-x="360" d="M72 0l196 1475h21l-197 -1475h-20zM281 1581l331 371h27l-332 -371h-26z" />
<glyph unicode="&#xce;" horiz-adv-x="360" d="M-2 1581l330 371h26l234 -371h-27l-223 354l-315 -354h-25zM72 0l196 1475h21l-197 -1475h-20z" />
<glyph unicode="&#xcf;" horiz-adv-x="360" d="M72 0l196 1475h21l-197 -1475h-20zM98 1581l21 166h22l-22 -166h-21zM465 1581l22 166h21l-23 -166h-20z" />
<glyph unicode="&#xd0;" horiz-adv-x="1572" d="M-59 727l2 21h227l98 727h518q164 0 298.5 -57.5t225.5 -157t132.5 -233.5t21.5 -290t-98 -290t-195.5 -233t-266 -156.5t-312.5 -57.5h-520l96 727h-227zM94 20h500q160 0 305 55.5t259 152t189 227t95 282.5t-20 283t-129 227t-219 151.5t-290 55.5h-499l-92 -706h552 l-2 -21h-555z" />
<glyph unicode="&#xd1;" horiz-adv-x="1660" d="M72 0l196 1475h27l1079 -1450l193 1450h22l-196 -1475h-27l-1081 1450l-193 -1450h-20zM627 1567q2 25 10 48t23.5 42.5t42 31t67.5 11.5q49 0 94 -18.5t89 -40t88 -39t89 -17.5q49 0 80 25.5t41 89.5h21q-4 -25 -11.5 -49.5t-22.5 -43t-42 -30.5t-68 -12q-49 0 -94 17 t-89 38.5t-88 40t-89 18.5q-49 0 -81 -24.5t-40 -87.5h-20z" />
<glyph unicode="&#xd2;" horiz-adv-x="1802" d="M109 737q20 160 101 297t200.5 238.5t272.5 160t318 58.5q168 0 304.5 -58.5t229.5 -160t136 -238.5t23 -297q-23 -160 -102 -297t-198.5 -238.5t-272 -159.5t-320.5 -58q-166 0 -302.5 58t-230.5 159.5t-137 239t-22 296.5zM131 737q-20 -154 22 -288t132 -233 t223 -155.5t295 -56.5q164 0 312.5 56.5t265 155.5t193.5 233t97 288t-20.5 288t-130.5 233.5t-223.5 155.5t-297.5 56q-162 0 -310 -56t-266 -155.5t-194.5 -233.5t-97.5 -288zM809 1952h25l233 -371h-27z" />
<glyph unicode="&#xd3;" horiz-adv-x="1802" d="M109 737q20 160 101 297t200.5 238.5t272.5 160t318 58.5q168 0 304.5 -58.5t229.5 -160t136 -238.5t23 -297q-23 -160 -102 -297t-198.5 -238.5t-272 -159.5t-320.5 -58q-166 0 -302.5 58t-230.5 159.5t-137 239t-22 296.5zM131 737q-20 -154 22 -288t132 -233 t223 -155.5t295 -56.5q164 0 312.5 56.5t265 155.5t193.5 233t97 288t-20.5 288t-130.5 233.5t-223.5 155.5t-297.5 56q-162 0 -310 -56t-266 -155.5t-194.5 -233.5t-97.5 -288zM965 1581l329 371h27l-332 -371h-24z" />
<glyph unicode="&#xd4;" horiz-adv-x="1802" d="M109 737q20 160 101 297t200.5 238.5t272.5 160t318 58.5q168 0 304.5 -58.5t229.5 -160t136 -238.5t23 -297q-23 -160 -102 -297t-198.5 -238.5t-272 -159.5t-320.5 -58q-166 0 -302.5 58t-230.5 159.5t-137 239t-22 296.5zM131 737q-20 -154 22 -288t132 -233 t223 -155.5t295 -56.5q164 0 312.5 56.5t265 155.5t193.5 233t97 288t-20.5 288t-130.5 233.5t-223.5 155.5t-297.5 56q-162 0 -310 -56t-266 -155.5t-194.5 -233.5t-97.5 -288zM719 1581l330 371h26l234 -371h-27l-221 354l-318 -354h-24z" />
<glyph unicode="&#xd5;" horiz-adv-x="1802" d="M109 737q20 160 101 297t200.5 238.5t272.5 160t318 58.5q168 0 304.5 -58.5t229.5 -160t136 -238.5t23 -297q-23 -160 -102 -297t-198.5 -238.5t-272 -159.5t-320.5 -58q-166 0 -302.5 58t-230.5 159.5t-137 239t-22 296.5zM131 737q-20 -154 22 -288t132 -233 t223 -155.5t295 -56.5q164 0 312.5 56.5t265 155.5t193.5 233t97 288t-20.5 288t-130.5 233.5t-223.5 155.5t-297.5 56q-162 0 -310 -56t-266 -155.5t-194.5 -233.5t-97.5 -288zM696 1567q4 25 12.5 48t24 42.5t42 31t67.5 11.5q49 0 94 -18.5t89 -40t88 -39t89 -17.5 q47 0 79 25.5t42 89.5h20q-4 -25 -12 -49.5t-23.5 -43t-42 -30.5t-65.5 -12q-49 0 -95 17t-90 38.5t-88 40t-89 18.5q-47 0 -79 -24.5t-40 -87.5h-23z" />
<glyph unicode="&#xd6;" horiz-adv-x="1802" d="M109 737q20 160 101 297t200.5 238.5t272.5 160t318 58.5q168 0 304.5 -58.5t229.5 -160t136 -238.5t23 -297q-23 -160 -102 -297t-198.5 -238.5t-272 -159.5t-320.5 -58q-166 0 -302.5 58t-230.5 159.5t-137 239t-22 296.5zM131 737q-20 -154 22 -288t132 -233 t223 -155.5t295 -56.5q164 0 312.5 56.5t265 155.5t193.5 233t97 288t-20.5 288t-130.5 233.5t-223.5 155.5t-297.5 56q-162 0 -310 -56t-266 -155.5t-194.5 -233.5t-97.5 -288zM819 1581l23 166h20l-22 -166h-21zM1188 1581l20 166h21l-21 -166h-20z" />
<glyph unicode="&#xd7;" horiz-adv-x="1445" d="M154 182l555 555l-555 555l14 15l555 -555l555 555l14 -15l-555 -555l555 -555l-14 -14l-555 555l-555 -555z" />
<glyph unicode="&#xd8;" horiz-adv-x="1802" d="M109 737q20 160 101 297t200.5 238.5t272.5 160t318 58.5q147 0 271.5 -45t216.5 -125l172 170l14 -14l-172 -170q111 -104 162.5 -250t28.5 -320q-20 -160 -99 -297t-200 -238.5t-273.5 -159.5t-320.5 -58q-141 0 -261 42t-212 119l-164 -161l-12 14l161 160 q-117 104 -172 252.5t-32 326.5zM131 737q-20 -154 22 -288t132 -233t223 -155.5t295 -56.5q164 0 312.5 56.5t265 155.5t193.5 233t97 288t-20.5 288t-130.5 233.5t-223.5 155.5t-297.5 56q-162 0 -310 -56t-266 -155.5t-194.5 -233.5t-97.5 -288z" />
<glyph unicode="&#xd9;" horiz-adv-x="1544" d="M145 557l123 918h21l-123 -918q-16 -117 15.5 -218t100 -175t169 -117t223.5 -43t235.5 43t200.5 117t145.5 175t73.5 218l123 918h21l-123 -918q-16 -119 -73.5 -221.5t-146.5 -179.5q-92 -80 -209.5 -126t-248.5 -46q-133 0 -240.5 48t-179.5 134q-66 78 -94.5 176 t-12.5 215zM780 1952h25l233 -371h-26z" />
<glyph unicode="&#xda;" horiz-adv-x="1544" d="M145 557l123 918h21l-123 -918q-16 -117 15.5 -218t100 -175t169 -117t223.5 -43t235.5 43t200.5 117t145.5 175t73.5 218l123 918h21l-123 -918q-16 -119 -73.5 -221.5t-146.5 -179.5q-92 -80 -209.5 -126t-248.5 -46q-133 0 -240.5 48t-179.5 134q-66 78 -94.5 176 t-12.5 215zM731 1581l330 371h26l-331 -371h-25z" />
<glyph unicode="&#xdb;" horiz-adv-x="1544" d="M145 557l123 918h21l-123 -918q-16 -117 15.5 -218t100 -175t169 -117t223.5 -43t235.5 43t200.5 117t145.5 175t73.5 218l123 918h21l-123 -918q-16 -119 -73.5 -221.5t-146.5 -179.5q-92 -80 -209.5 -126t-248.5 -46q-133 0 -240.5 48t-179.5 134q-66 78 -94.5 176 t-12.5 215zM590 1581l330 371h26l234 -371h-27l-221 354l-318 -354h-24z" />
<glyph unicode="&#xdc;" horiz-adv-x="1544" d="M145 557l123 918h21l-123 -918q-16 -117 15.5 -218t100 -175t169 -117t223.5 -43t235.5 43t200.5 117t145.5 175t73.5 218l123 918h21l-123 -918q-16 -119 -73.5 -221.5t-146.5 -179.5q-92 -80 -209.5 -126t-248.5 -46q-133 0 -240.5 48t-179.5 134q-66 78 -94.5 176 t-12.5 215zM690 1581l23 166h20l-22 -166h-21zM1057 1581l22 166h21l-21 -166h-22z" />
<glyph unicode="&#xdd;" horiz-adv-x="1134" d="M98 1475h27l455 -637l624 637h29l-645 -658l-109 -817h-20l108 817zM664 1581l331 371h25l-330 -371h-26z" />
<glyph unicode="&#xde;" horiz-adv-x="1009" d="M72 0l196 1475h21l-49 -363h288q102 0 186.5 -28.5t142.5 -80t86 -119t18 -147.5t-56.5 -147.5t-117 -118.5t-163 -80t-194.5 -29h-289l-49 -362h-20zM143 385h289q100 0 188.5 27.5t156 76t110.5 111.5t53 137t-15.5 137.5t-81 111.5t-136 76t-181.5 28h-288z" />
<glyph unicode="&#xdf;" horiz-adv-x="1044" d="M72 0l147 1108q10 80 49 150.5t96.5 122t130 81t152.5 29.5t144.5 -29.5t108.5 -81t63.5 -122t9.5 -150.5q-10 -68 -39 -129t-73 -109.5t-101.5 -83t-120.5 -49.5q66 -14 118 -48t88 -82t50 -109t6 -131q-10 -80 -51 -151t-102.5 -122t-138.5 -80.5t-163 -29.5 t-156.5 30.5t-117.5 83.5l4 31q43 -57 113.5 -91t159.5 -34q82 0 155.5 27.5t132 77t96 115t48.5 141.5q10 76 -10.5 142t-66.5 115.5t-112.5 77t-146.5 27.5l4 21q76 0 144.5 27.5t122.5 76.5t90 114.5t46 141.5t-9 142.5t-60 115.5t-102.5 76.5t-137.5 27.5 q-74 0 -142.5 -27.5t-123.5 -76.5t-91 -115.5t-46 -142.5l-148 -1108h-20z" />
<glyph unicode="&#xe0;" horiz-adv-x="1091" d="M72 449q14 111 66 203.5t131 160.5t179.5 106.5t210.5 38.5q72 0 138.5 -14t144.5 -43l-119 -901h-20l24 188q-115 -109 -213 -156.5t-204 -47.5q-86 0 -156 34.5t-115 96t-63.5 146.5t-3.5 188zM92 449q-12 -98 5.5 -180.5t60.5 -140.5t108.5 -91t147.5 -33 q104 0 200.5 50t216.5 165l89 668q-72 27 -134.5 39t-128.5 12q-109 0 -205 -37t-171.5 -102.5t-125 -154.5t-63.5 -195zM485 1454h25l233 -371h-26z" />
<glyph unicode="&#xe1;" horiz-adv-x="1091" d="M72 449q14 111 66 203.5t131 160.5t179.5 106.5t210.5 38.5q72 0 138.5 -14t144.5 -43l-119 -901h-20l24 188q-115 -109 -213 -156.5t-204 -47.5q-86 0 -156 34.5t-115 96t-63.5 146.5t-3.5 188zM92 449q-12 -98 5.5 -180.5t60.5 -140.5t108.5 -91t147.5 -33 q104 0 200.5 50t216.5 165l89 668q-72 27 -134.5 39t-128.5 12q-109 0 -205 -37t-171.5 -102.5t-125 -154.5t-63.5 -195zM580 1083l331 371h25l-330 -371h-26z" />
<glyph unicode="&#xe2;" horiz-adv-x="1091" d="M72 449q14 111 66 203.5t131 160.5t179.5 106.5t210.5 38.5q72 0 138.5 -14t144.5 -43l-119 -901h-20l24 188q-115 -109 -213 -156.5t-204 -47.5q-86 0 -156 34.5t-115 96t-63.5 146.5t-3.5 188zM92 449q-12 -98 5.5 -180.5t60.5 -140.5t108.5 -91t147.5 -33 q104 0 200.5 50t216.5 165l89 668q-72 27 -134.5 39t-128.5 12q-109 0 -205 -37t-171.5 -102.5t-125 -154.5t-63.5 -195zM371 1083l331 371h27l232 -371h-27l-221 355l-316 -355h-26z" />
<glyph unicode="&#xe3;" horiz-adv-x="1091" d="M72 449q14 111 66 203.5t131 160.5t179.5 106.5t210.5 38.5q72 0 138.5 -14t144.5 -43l-119 -901h-20l24 188q-115 -109 -213 -156.5t-204 -47.5q-86 0 -156 34.5t-115 96t-63.5 146.5t-3.5 188zM92 449q-12 -98 5.5 -180.5t60.5 -140.5t108.5 -91t147.5 -33 q104 0 200.5 50t216.5 165l89 668q-72 27 -134.5 39t-128.5 12q-109 0 -205 -37t-171.5 -102.5t-125 -154.5t-63.5 -195zM283 1069q2 25 10 48.5t23.5 43t42 30.5t67.5 11q49 0 94 -18.5t89 -40t88 -39t89 -17.5q47 0 79 26t42 89h21q-4 -25 -11.5 -49.5t-22.5 -42.5 t-42 -30.5t-68 -12.5q-49 0 -95 17.5t-90 39t-87 40t-88 18.5q-49 0 -81 -24.5t-40 -88.5h-20z" />
<glyph unicode="&#xe4;" horiz-adv-x="1091" d="M72 449q14 111 66 203.5t131 160.5t179.5 106.5t210.5 38.5q72 0 138.5 -14t144.5 -43l-119 -901h-20l24 188q-115 -109 -213 -156.5t-204 -47.5q-86 0 -156 34.5t-115 96t-63.5 146.5t-3.5 188zM92 449q-12 -98 5.5 -180.5t60.5 -140.5t108.5 -91t147.5 -33 q104 0 200.5 50t216.5 165l89 668q-72 27 -134.5 39t-128.5 12q-109 0 -205 -37t-171.5 -102.5t-125 -154.5t-63.5 -195zM475 1083l23 166h20l-22 -166h-21zM844 1083l22 166h21l-23 -166h-20z" />
<glyph unicode="&#xe5;" horiz-adv-x="1091" d="M72 449q14 111 66 203.5t131 160.5t179.5 106.5t210.5 38.5q72 0 138.5 -14t144.5 -43l-119 -901h-20l24 188q-115 -109 -213 -156.5t-204 -47.5q-86 0 -156 34.5t-115 96t-63.5 146.5t-3.5 188zM92 449q-12 -98 5.5 -180.5t60.5 -140.5t108.5 -91t147.5 -33 q104 0 200.5 50t216.5 165l89 668q-72 27 -134.5 39t-128.5 12q-109 0 -205 -37t-171.5 -102.5t-125 -154.5t-63.5 -195zM510 1251q6 39 24.5 73t47 58.5t64.5 39t75 14.5q78 0 125 -53.5t37 -131.5q-6 -39 -24.5 -72.5t-47.5 -58t-64.5 -39t-74.5 -14.5t-71 14.5t-53.5 39 t-31.5 58t-6 72.5zM530 1251q-8 -68 34 -116t112 -48q33 0 64.5 13.5t57 35t43 51t21.5 64.5q8 68 -34 116t-109 48q-70 0 -124 -48t-65 -116z" />
<glyph unicode="&#xe6;" horiz-adv-x="1843" d="M72 449q14 111 66 203.5t131 160.5t179.5 106.5t210.5 38.5q72 0 138.5 -14t144.5 -43l-35 -274q31 74 77 135t104.5 104t126 67.5t141.5 24.5q82 0 150.5 -31.5t115.5 -87t73.5 -132t26.5 -166.5v-15h-827q-4 -14 -5 -27.5t-3 -27.5q-14 -100 9.5 -185t75.5 -147.5 t130 -98.5t174 -36q98 0 186 36t160 101l-4 -28q-72 -59 -159 -94t-185 -35q-82 0 -151.5 24.5t-123 69.5t-87 107.5t-46.5 138.5l-43 -324h-20l24 188q-115 -109 -213 -156.5t-204 -47.5q-86 0 -156 34.5t-115 96t-63.5 146.5t-3.5 188zM92 449q-12 -98 5.5 -180.5 t60.5 -140.5t108.5 -91t147.5 -33q104 0 200.5 50t216.5 165l89 668q-72 27 -134.5 39t-128.5 12q-109 0 -205 -37t-171.5 -102.5t-125 -154.5t-63.5 -195zM901 547h801q0 86 -25.5 157.5t-71.5 124t-110.5 81t-140.5 28.5q-78 0 -149.5 -28.5t-132 -81t-104.5 -124 t-67 -157.5z" />
<glyph unicode="&#xe7;" horiz-adv-x="845" d="M74 471q14 104 62 193.5t120 155t164 102t192 36.5q104 0 191 -40l-2 -23q-41 20 -89 31.5t-102 11.5q-96 0 -184 -36t-156.5 -98.5t-114.5 -147.5t-61 -185q-12 -100 11.5 -185t75.5 -147.5t130 -98.5t174 -36q119 0 222 53l-2 -24q-98 -45 -211 -49l-17 -117 q10 2 18.5 3t18.5 1q53 0 84 -38t25 -91q-8 -55 -49.5 -93t-94.5 -38q-27 0 -59 16l4 23q33 -16 59 -17q45 0 79 31t40 78t-19.5 77.5t-70.5 30.5q-23 0 -59 -14l20 148q-98 2 -178 39.5t-133 103.5t-77 154t-11 190z" />
<glyph unicode="&#xe8;" horiz-adv-x="1056" d="M74 471q14 104 58 193.5t110.5 155t149.5 102t173 36.5q82 0 150.5 -31.5t117 -87t75 -132t24.5 -166.5v-15h-828q-4 -14 -5 -27.5t-5 -27.5q-12 -100 11.5 -185t75.5 -147.5t130 -98.5t174 -36q98 0 186.5 36t157.5 101l-2 -28q-72 -59 -158.5 -94t-185.5 -35 q-102 0 -183 36.5t-136 102t-80 155t-10 193.5zM111 547h800q0 86 -25.5 157.5t-71.5 124t-110.5 81t-140.5 28.5q-78 0 -149.5 -28.5t-132 -81t-104.5 -124t-66 -157.5zM381 1454h27l231 -371h-25z" />
<glyph unicode="&#xe9;" horiz-adv-x="1056" d="M74 471q14 104 58 193.5t110.5 155t149.5 102t173 36.5q82 0 150.5 -31.5t117 -87t75 -132t24.5 -166.5v-15h-828q-4 -14 -5 -27.5t-5 -27.5q-12 -100 11.5 -185t75.5 -147.5t130 -98.5t174 -36q98 0 186.5 36t157.5 101l-2 -28q-72 -59 -158.5 -94t-185.5 -35 q-102 0 -183 36.5t-136 102t-80 155t-10 193.5zM111 547h800q0 86 -25.5 157.5t-71.5 124t-110.5 81t-140.5 28.5q-78 0 -149.5 -28.5t-132 -81t-104.5 -124t-66 -157.5zM518 1083l332 371h24l-329 -371h-27z" />
<glyph unicode="&#xea;" horiz-adv-x="1056" d="M74 471q14 104 58 193.5t110.5 155t149.5 102t173 36.5q82 0 150.5 -31.5t117 -87t75 -132t24.5 -166.5v-15h-828q-4 -14 -5 -27.5t-5 -27.5q-12 -100 11.5 -185t75.5 -147.5t130 -98.5t174 -36q98 0 186.5 36t157.5 101l-2 -28q-72 -59 -158.5 -94t-185.5 -35 q-102 0 -183 36.5t-136 102t-80 155t-10 193.5zM111 547h800q0 86 -25.5 157.5t-71.5 124t-110.5 81t-140.5 28.5q-78 0 -149.5 -28.5t-132 -81t-104.5 -124t-66 -157.5zM279 1083l331 371h27l231 -371h-24l-223 355l-316 -355h-26z" />
<glyph unicode="&#xeb;" horiz-adv-x="1056" d="M74 471q14 104 58 193.5t110.5 155t149.5 102t173 36.5q82 0 150.5 -31.5t117 -87t75 -132t24.5 -166.5v-15h-828q-4 -14 -5 -27.5t-5 -27.5q-12 -100 11.5 -185t75.5 -147.5t130 -98.5t174 -36q98 0 186.5 36t157.5 101l-2 -28q-72 -59 -158.5 -94t-185.5 -35 q-102 0 -183 36.5t-136 102t-80 155t-10 193.5zM111 547h800q0 86 -25.5 157.5t-71.5 124t-110.5 81t-140.5 28.5q-78 0 -149.5 -28.5t-132 -81t-104.5 -124t-66 -157.5zM381 1083l20 166h21l-21 -166h-20zM748 1083l22 166h21l-23 -166h-20z" />
<glyph unicode="&#xec;" horiz-adv-x="360" d="M-23 1454h27l232 -371h-25zM72 0l125 942h20l-125 -942h-20z" />
<glyph unicode="&#xed;" horiz-adv-x="360" d="M72 0l125 942h20l-125 -942h-20zM215 1083l332 371h26l-331 -371h-27z" />
<glyph unicode="&#xee;" horiz-adv-x="360" d="M-70 1083l332 371h27l231 -371h-24l-224 355l-315 -355h-27zM72 0l125 942h20l-125 -942h-20z" />
<glyph unicode="&#xef;" horiz-adv-x="360" d="M31 1083l22 166h21l-23 -166h-20zM72 0l125 942h20l-125 -942h-20zM399 1083l23 166h20l-22 -166h-21z" />
<glyph unicode="&#xf0;" d="M74 471q14 104 62 193.5t120 155t164 102t192 36.5q150 0 255.5 -79.5t142.5 -210.5q-10 197 -86 360.5t-209 286.5l-338 -154l-6 19l327 149q-47 43 -102 79t-115 65l13 18q123 -59 227 -152l334 152l6 -18l-326 -148q166 -154 244 -373t43 -479q-14 -104 -62.5 -193.5 t-120 -155t-164 -103t-192.5 -37.5t-182 36.5t-137 102t-80 155t-10 193.5zM94 471q-12 -100 11.5 -185t75.5 -147.5t130 -98.5t174 -36t183.5 36t157 98.5t115.5 147.5t58 185q14 100 -9 185t-75.5 147.5t-130 98.5t-174.5 36q-96 0 -184 -36t-156.5 -98.5t-114.5 -147.5 t-61 -185z" />
<glyph unicode="&#xf1;" horiz-adv-x="1030" d="M72 0l125 942h20l-24 -188q55 92 146 148t196 56q76 0 136 -29.5t101 -81.5t58.5 -122t7.5 -152l-76 -573h-21l76 571q10 80 -6 146.5t-55 116t-96.5 77t-127.5 27.5q-113 0 -206 -65.5t-142 -176.5l-92 -696h-20zM244 1069q4 25 12 48.5t23.5 43t42 30.5t67.5 11 q49 0 94 -18.5t89 -40t88.5 -39t89.5 -17.5q47 0 78.5 26t41.5 89h21q-4 -25 -12.5 -49.5t-23.5 -42.5t-42 -30.5t-65 -12.5q-49 0 -95.5 17.5t-90.5 39t-88 40t-89 18.5q-47 0 -79 -24.5t-40 -88.5h-22z" />
<glyph unicode="&#xf2;" d="M74 471q14 104 62 193.5t120 155t164 102t192 36.5t182.5 -36.5t136.5 -102t78.5 -155t10.5 -193.5t-61.5 -193.5t-120 -155t-163.5 -102t-192 -36.5q-100 0 -182 36.5t-137 102t-80 155t-10 193.5zM94 471q-12 -100 11.5 -185t75.5 -147.5t130 -98.5t174 -36t183.5 36 t157 98.5t115.5 147.5t58 185q14 100 -9 185t-75.5 147.5t-130 98.5t-174.5 36q-96 0 -184 -36t-156.5 -98.5t-114.5 -147.5t-61 -185zM442 1454h27l233 -371h-26z" />
<glyph unicode="&#xf3;" d="M74 471q14 104 62 193.5t120 155t164 102t192 36.5t182.5 -36.5t136.5 -102t78.5 -155t10.5 -193.5t-61.5 -193.5t-120 -155t-163.5 -102t-192 -36.5q-100 0 -182 36.5t-137 102t-80 155t-10 193.5zM94 471q-12 -100 11.5 -185t75.5 -147.5t130 -98.5t174 -36t183.5 36 t157 98.5t115.5 147.5t58 185q14 100 -9 185t-75.5 147.5t-130 98.5t-174.5 36q-96 0 -184 -36t-156.5 -98.5t-114.5 -147.5t-61 -185zM559 1083l332 371h24l-329 -371h-27z" />
<glyph unicode="&#xf4;" d="M74 471q14 104 62 193.5t120 155t164 102t192 36.5t182.5 -36.5t136.5 -102t78.5 -155t10.5 -193.5t-61.5 -193.5t-120 -155t-163.5 -102t-192 -36.5q-100 0 -182 36.5t-137 102t-80 155t-10 193.5zM94 471q-12 -100 11.5 -185t75.5 -147.5t130 -98.5t174 -36t183.5 36 t157 98.5t115.5 147.5t58 185q14 100 -9 185t-75.5 147.5t-130 98.5t-174.5 36q-96 0 -184 -36t-156.5 -98.5t-114.5 -147.5t-61 -185zM334 1083l332 371h24l234 -371h-27l-221 355l-316 -355h-26z" />
<glyph unicode="&#xf5;" d="M74 471q14 104 62 193.5t120 155t164 102t192 36.5t182.5 -36.5t136.5 -102t78.5 -155t10.5 -193.5t-61.5 -193.5t-120 -155t-163.5 -102t-192 -36.5q-100 0 -182 36.5t-137 102t-80 155t-10 193.5zM94 471q-12 -100 11.5 -185t75.5 -147.5t130 -98.5t174 -36t183.5 36 t157 98.5t115.5 147.5t58 185q14 100 -9 185t-75.5 147.5t-130 98.5t-174.5 36q-96 0 -184 -36t-156.5 -98.5t-114.5 -147.5t-61 -185zM313 1069q2 25 10.5 48.5t23.5 43t42 30.5t68 11q49 0 94 -18.5t89 -40t88 -39t89 -17.5q49 0 80 26t41 89h20q-4 -25 -11 -49.5 t-22.5 -42.5t-42 -30.5t-67.5 -12.5q-49 0 -94 17.5t-89 39t-88 40t-89 18.5q-49 0 -81 -24.5t-40 -88.5h-21z" />
<glyph unicode="&#xf6;" d="M74 471q14 104 62 193.5t120 155t164 102t192 36.5t182.5 -36.5t136.5 -102t78.5 -155t10.5 -193.5t-61.5 -193.5t-120 -155t-163.5 -102t-192 -36.5q-100 0 -182 36.5t-137 102t-80 155t-10 193.5zM94 471q-12 -100 11.5 -185t75.5 -147.5t130 -98.5t174 -36t183.5 36 t157 98.5t115.5 147.5t58 185q14 100 -9 185t-75.5 147.5t-130 98.5t-174.5 36q-96 0 -184 -36t-156.5 -98.5t-114.5 -147.5t-61 -185zM434 1083l23 166h20l-22 -166h-21zM803 1083l22 166h21l-23 -166h-20z" />
<glyph unicode="&#xf7;" horiz-adv-x="1445" d="M154 727v21h1138v-21h-1138zM692 369q0 12 9.5 21t21.5 9t21.5 -9t9.5 -21t-9.5 -21.5t-21.5 -9.5t-21.5 9t-9.5 22zM692 1106q0 12 9.5 21.5t21.5 9.5t21.5 -9.5t9.5 -21.5t-9.5 -21.5t-21.5 -9.5t-21.5 9.5t-9.5 21.5z" />
<glyph unicode="&#xf8;" d="M39 0l125 123q-55 66 -80 155t-10 193q14 104 62 193.5t120 155t164 102t192 36.5q88 0 161 -27.5t128 -78.5l109 106l16 -16l-108 -106q61 -66 89.5 -160t12.5 -205q-14 -104 -61.5 -193.5t-120 -155t-163.5 -102t-192 -36.5q-94 0 -172 31.5t-131 90.5l-125 -122z M94 471q-12 -100 11.5 -185t75.5 -147.5t130 -98.5t174 -36t183.5 36t157 98.5t115.5 147.5t58 185q14 100 -9 185t-75.5 147.5t-130 98.5t-174.5 36q-96 0 -184 -36t-156.5 -98.5t-114.5 -147.5t-61 -185z" />
<glyph unicode="&#xf9;" horiz-adv-x="1030" d="M121 371l76 571h20l-76 -571q-10 -80 6.5 -146.5t54.5 -116t95 -77t129 -27.5q113 0 206 65.5t142 176.5l92 696h21l-125 -942h-21l25 188q-55 -92 -146.5 -148t-195.5 -56q-76 0 -136.5 29.5t-101.5 81.5t-58 123t-7 153zM457 1454h24l234 -371h-27z" />
<glyph unicode="&#xfa;" horiz-adv-x="1030" d="M121 371l76 571h20l-76 -571q-10 -80 6.5 -146.5t54.5 -116t95 -77t129 -27.5q113 0 206 65.5t142 176.5l92 696h21l-125 -942h-21l25 188q-55 -92 -146.5 -148t-195.5 -56q-76 0 -136.5 29.5t-101.5 81.5t-58 123t-7 153zM408 1083l329 371h27l-332 -371h-24z" />
<glyph unicode="&#xfb;" horiz-adv-x="1030" d="M121 371l76 571h20l-76 -571q-10 -80 6.5 -146.5t54.5 -116t95 -77t129 -27.5q113 0 206 65.5t142 176.5l92 696h21l-125 -942h-21l25 188q-55 -92 -146.5 -148t-195.5 -56q-76 0 -136.5 29.5t-101.5 81.5t-58 123t-7 153zM266 1083l330 371h27l233 -371h-27l-221 355 l-317 -355h-25z" />
<glyph unicode="&#xfc;" horiz-adv-x="1030" d="M121 371l76 571h20l-76 -571q-10 -80 6.5 -146.5t54.5 -116t95 -77t129 -27.5q113 0 206 65.5t142 176.5l92 696h21l-125 -942h-21l25 188q-55 -92 -146.5 -148t-195.5 -56q-76 0 -136.5 29.5t-101.5 81.5t-58 123t-7 153zM367 1083l22 166h21l-23 -166h-20zM735 1083 l21 166h20l-20 -166h-21z" />
<glyph unicode="&#xfd;" horiz-adv-x="843" d="M-117 -498l453 676l-309 764h24l299 -741l498 741h22l-964 -1440h-23zM457 1083l329 371h27l-332 -371h-24z" />
<glyph unicode="&#xfe;" horiz-adv-x="1091" d="M6 -498l262 1973h21l-76 -568q78 27 144.5 39t131.5 12q113 0 203 -38.5t150.5 -106.5t87 -160.5t12.5 -203.5q-12 -102 -54 -187.5t-103.5 -147t-139.5 -96t-166 -34.5q-106 0 -190 48t-172 156l-90 -686h-21zM121 219q88 -115 173 -165t189 -50q82 0 156 33t132 91 t98.5 140.5t52.5 180.5q14 106 -11.5 195t-84 154.5t-145.5 102.5t-194 37q-66 0 -132 -12.5t-146 -38.5z" />
<glyph unicode="&#xff;" horiz-adv-x="843" d="M-117 -498l453 676l-309 764h24l299 -741l498 741h22l-964 -1440h-23zM272 1083l23 166h20l-20 -166h-23zM641 1083l23 166h20l-22 -166h-21z" />
<glyph unicode="&#x152;" horiz-adv-x="1890" d="M170 737q20 156 98 290t195 233.5t266.5 157t312.5 57.5h840l-4 -21h-717l-94 -706h711l-4 -21h-709l-94 -707h739l-4 -20h-860q-164 0 -298 57.5t-225.5 156.5t-132 233.5t-20.5 289.5zM190 737q-20 -152 21 -282.5t129 -227t218 -152t290 -55.5h102l191 1434h-103 q-160 0 -305 -55.5t-259 -151.5t-188.5 -227t-95.5 -283z" />
<glyph unicode="&#x153;" horiz-adv-x="1978" d="M74 471q14 104 62 193.5t120 155t164 102t192 36.5q86 0 160 -27.5t127 -78.5t86 -120.5t39 -151.5q27 82 74 151.5t108.5 120.5t134 78.5t150.5 27.5q82 0 150.5 -31.5t115.5 -87t74 -132t27 -166.5v-15h-828q-4 -14 -5 -27.5t-5 -27.5q-12 -100 11.5 -185t75.5 -147.5 t130 -98.5t174 -36q98 0 186.5 36t159.5 101l-4 -28q-72 -59 -159 -94t-185 -35q-88 0 -160.5 28.5t-127 78.5t-86 120t-38.5 154q-29 -84 -80 -154t-118.5 -120t-147.5 -78.5t-168 -28.5q-100 0 -182 36.5t-137 102t-80 155t-10 193.5zM94 471q-12 -100 11.5 -185 t75.5 -147.5t130 -98.5t174 -36t183.5 36t157 98.5t115.5 147.5t58 185q14 100 -9 185t-75.5 147.5t-130 98.5t-174.5 36q-96 0 -184 -36t-156.5 -98.5t-114.5 -147.5t-61 -185zM1036 547h801q0 86 -25.5 157.5t-71.5 124t-110.5 81t-140.5 28.5q-78 0 -149.5 -28.5 t-132 -81t-104.5 -124t-67 -157.5z" />
<glyph unicode="&#x178;" horiz-adv-x="1134" d="M98 1475h27l455 -637l624 637h29l-645 -658l-109 -817h-20l108 817zM485 1581l23 166h20l-22 -166h-21zM852 1581l22 166h21l-23 -166h-20z" />
<glyph unicode="&#x2c6;" horiz-adv-x="0" d="M334 1083l332 371h24l234 -371h-27l-221 355l-316 -355h-26z" />
<glyph unicode="&#x2dc;" horiz-adv-x="0" d="M313 1069q2 25 10.5 48.5t23.5 43t42 30.5t68 11q49 0 94 -18.5t89 -40t88 -39t89 -17.5q49 0 80 26t41 89h20q-4 -25 -11 -49.5t-22.5 -42.5t-42 -30.5t-67.5 -12.5q-49 0 -94 17.5t-89 39t-88 40t-89 18.5q-49 0 -81 -24.5t-40 -88.5h-21z" />
<glyph unicode="&#x2000;" horiz-adv-x="976" />
<glyph unicode="&#x2001;" horiz-adv-x="1952" />
<glyph unicode="&#x2002;" horiz-adv-x="976" />
<glyph unicode="&#x2003;" horiz-adv-x="1952" />
<glyph unicode="&#x2004;" horiz-adv-x="650" />
<glyph unicode="&#x2005;" horiz-adv-x="488" />
<glyph unicode="&#x2006;" horiz-adv-x="325" />
<glyph unicode="&#x2007;" horiz-adv-x="325" />
<glyph unicode="&#x2008;" horiz-adv-x="244" />
<glyph unicode="&#x2009;" horiz-adv-x="390" />
<glyph unicode="&#x200a;" horiz-adv-x="108" />
<glyph unicode="&#x2010;" horiz-adv-x="870" d="M47 444l4 21h697l-5 -21h-696z" />
<glyph unicode="&#x2011;" horiz-adv-x="870" d="M47 444l4 21h697l-5 -21h-696z" />
<glyph unicode="&#x2012;" horiz-adv-x="870" d="M47 444l4 21h697l-5 -21h-696z" />
<glyph unicode="&#x2013;" horiz-adv-x="1304" d="M59 532l4 21h1131l-2 -21h-1133z" />
<glyph unicode="&#x2014;" horiz-adv-x="2365" d="M59 532l4 21h2192l-2 -21h-2194z" />
<glyph unicode="&#x2018;" horiz-adv-x="194" d="M147 1190l23 166l41 119h16l-41 -119h4l-22 -166h-21z" />
<glyph unicode="&#x2019;" horiz-adv-x="194" d="M129 1190l41 119h-4l22 166h21l-21 -166l-43 -119h-16z" />
<glyph unicode="&#x201a;" horiz-adv-x="194" d="M-49 -119l43 119h-4l20 166h21l-21 -166l-43 -119h-16z" />
<glyph unicode="&#x201c;" horiz-adv-x="411" d="M147 1190l23 166l41 119h16l-41 -119h4l-22 -166h-21zM365 1190l20 166l43 119h16l-41 -119h5l-23 -166h-20z" />
<glyph unicode="&#x201d;" horiz-adv-x="411" d="M129 1190l41 119h-4l22 166h21l-21 -166l-43 -119h-16zM346 1190l41 119h-4l23 166h20l-20 -166l-44 -119h-16z" />
<glyph unicode="&#x201e;" horiz-adv-x="411" d="M-49 -119l43 119h-4l20 166h21l-21 -166l-43 -119h-16zM168 -119l43 119h-4l20 166h21l-21 -166l-43 -119h-16z" />
<glyph unicode="&#x2022;" horiz-adv-x="278" d="M109 737q0 12 9 21.5t21 9.5t21.5 -9.5t9.5 -21.5t-9 -21t-22 -9q-12 0 -21 9t-9 21z" />
<glyph unicode="&#x2026;" horiz-adv-x="1517" d="M-10 0l20 166h21l-21 -166h-20zM649 0l23 166h20l-20 -166h-23zM1311 0l22 166h21l-21 -166h-22z" />
<glyph unicode="&#x202f;" horiz-adv-x="390" />
<glyph unicode="&#x2039;" horiz-adv-x="546" d="M49 459l4 24l412 281l-4 -27l-393 -266l321 -266l-2 -27z" />
<glyph unicode="&#x203a;" horiz-adv-x="546" d="M12 178l4 27l392 266l-322 266l4 27l338 -281l-4 -24z" />
<glyph unicode="&#x205f;" horiz-adv-x="488" />
<glyph unicode="&#x2122;" horiz-adv-x="1886" d="M86 1454v21h733v-21h-356v-872h-21v872h-356zM903 582v893h23l385 -476l385 476h22v-893h-20v862l-385 -473h-6l-383 473v-862h-21z" />
<glyph unicode="&#x25fc;" horiz-adv-x="942" d="M0 0v942h942v-942h-942z" />
<glyph unicode="&#xfb01;" horiz-adv-x="780" d="M49 922l2 20h191l32 246q8 63 38 119.5t74 96.5t100.5 63.5t117.5 23.5q86 0 150 -45l-4 -25q-61 49 -148 49q-57 0 -108.5 -21.5t-93.5 -59t-69.5 -89t-35.5 -112.5l-33 -246h377l-125 -942h-20l122 922h-356l-123 -922h-20l123 922h-191z" />
<glyph unicode="&#xfb02;" horiz-adv-x="780" d="M49 922l2 20h191l32 246q8 63 38 119.5t74 96.5t100.5 63.5t117.5 23.5q29 0 56.5 -6t50.5 -10l-197 -1475h-20l192 1456q-35 14 -84 14q-57 0 -108.5 -21.5t-93.5 -59t-69.5 -89t-35.5 -112.5l-33 -246h162l-2 -20h-162l-123 -922h-20l123 922h-191z" />
</font>
</defs>
</svg>
