<?xml version="1.0" standalone="no"?>
<!DOCTYPE svg PUBLIC "-//W3C//DTD SVG 1.1//EN" "http://www.w3.org/Graphics/SVG/1.1/DTD/svg11.dtd" >
<svg xmlns="http://www.w3.org/2000/svg">
<metadata></metadata>
<defs>
<font id="ultimapdadultralightitalic" horiz-adv-x="1183" >
<font-face units-per-em="2048" ascent="1638" descent="-410" />
<missing-glyph horiz-adv-x="598" />
<glyph horiz-adv-x="0" />
<glyph unicode="&#xd;" horiz-adv-x="0" />
<glyph unicode=" "  horiz-adv-x="598" />
<glyph unicode="&#x09;" horiz-adv-x="598" />
<glyph unicode="&#xa0;" horiz-adv-x="598" />
<glyph unicode="!" horiz-adv-x="374" d="M70 0l24 172h39l-24 -172h-39zM115 324l149 1151l43 2l-155 -1153h-37z" />
<glyph unicode="&#x22;" horiz-adv-x="495" d="M68 1108l325 369h41l-332 -369h-34zM209 1108l328 369h38l-329 -369h-37z" />
<glyph unicode="#" horiz-adv-x="1255" d="M49 457l4 28h228l165 504h-325l4 29h332l149 457h29l-150 -457h469l150 457h29l-150 -457h221l-2 -29h-229l-164 -504h324l-5 -28h-329l-150 -457h-31l152 457h-469l-149 -457h-31l151 457h-223zM311 485h467l166 504h-469z" />
<glyph unicode="$" horiz-adv-x="765" d="M49 461l23 22q-2 -90 63.5 -149.5t175.5 -59.5q57 0 107.5 17.5t89.5 47.5t63.5 71t30.5 88q4 37 -6 65.5t-32.5 50t-53.5 39t-66 33.5q-39 18 -78.5 37.5t-76.5 38.5q-37 18 -70 37.5t-55.5 44t-32.5 56.5t-4 75q6 53 32.5 99t67.5 80t92.5 53.5t110.5 21.5l33 246h26 l-32 -246q70 -2 124 -30t85 -75l-9 -53q-25 57 -80 93t-135 36q-53 0 -100 -17.5t-84 -48t-61.5 -71.5t-30.5 -88q-4 -37 5 -64.5t29.5 -49t49.5 -40t63 -35.5q37 -18 77 -35.5t79 -35.5t74 -38t58.5 -44.5t34.5 -57t5 -75.5q-6 -53 -33.5 -99.5t-70.5 -80t-97.5 -53 t-113.5 -21.5l-33 -246h-27l33 246q-109 4 -177.5 63.5t-72.5 151.5z" />
<glyph unicode="%" horiz-adv-x="1470" d="M61 0l1315 1475h33l-1315 -1475h-33zM142 876.5q-5 79.5 5 159.5t37 161t68 146.5t97.5 106.5t125.5 41q70 0 115 -41t69.5 -106.5t28.5 -146.5t-6 -161t-37 -159.5t-67.5 -145t-97 -106.5t-126.5 -41t-114.5 41t-68.5 106.5t-29 145zM174 882.5q4 -75.5 25.5 -136 t60.5 -97.5t98 -37t108.5 37t86.5 97.5t62.5 136t35.5 155.5q10 78 6 155t-25.5 137.5t-61.5 97t-99 36.5t-108.5 -36.5t-86 -97t-61.5 -137.5t-35 -155q-10 -80 -6 -155.5zM782 277.5q-4 80.5 6 160.5t37 160t68 145.5t97.5 106.5t125.5 41q70 0 114 -41t68.5 -106.5 t29.5 -145.5t-5 -160t-36.5 -160.5t-67.5 -146t-97.5 -106.5t-126.5 -41t-114.5 41t-69.5 106.5t-29 146zM813 282.5q4 -75.5 25.5 -136t61.5 -97.5t99 -37t108.5 37t86.5 97.5t62.5 136t35.5 155.5q10 78 5 155t-26.5 137.5t-60.5 97t-98 36.5t-108.5 -36.5t-87 -97 t-62.5 -137.5t-35 -155q-10 -80 -6 -155.5z" />
<glyph unicode="&#x26;" horiz-adv-x="1243" d="M57 344q12 90 60.5 162t116 130t146.5 104t152 87q-25 37 -58.5 81t-62 94.5t-46 104.5t-9.5 112q8 70 42 122t82 84.5t105.5 49t112.5 16.5q61 0 114.5 -18.5t91.5 -52.5t55.5 -85t9.5 -114q-10 -72 -50 -129.5t-95.5 -104.5t-119 -87t-120.5 -77l336 -508 q31 55 57.5 123t36.5 146h37q-12 -86 -42 -154t-71 -139l195 -293h-52l-170 260q-86 -123 -203.5 -198.5t-277.5 -75.5q-78 0 -150.5 24.5t-125 71.5t-80 113.5t-17.5 150.5zM94 344q-10 -78 15.5 -139.5t74.5 -104.5t116 -65.5t140 -22.5q152 0 264.5 76t190.5 199 l-348 518q-68 -41 -142.5 -85t-139 -98.5t-112 -123t-59.5 -154.5zM395 1221q-6 -47 12.5 -99.5t47 -102.5t60.5 -96t54 -79q51 33 112.5 70.5t115 83.5t93.5 101.5t48 121.5q8 57 -9.5 102t-51 76t-80.5 47t-99 16q-55 0 -106 -16t-92 -47t-69 -76t-36 -102z" />
<glyph unicode="'" horiz-adv-x="317" d="M49 1108l326 369h41l-330 -369h-37z" />
<glyph unicode="(" horiz-adv-x="561" d="M78 496q37 279 172 526.5t358 452.5h51q-119 -92 -213 -210t-162.5 -248t-111.5 -264.5t-59 -256.5q-16 -123 -9 -257.5t41.5 -265.5t97 -249.5t156.5 -210.5h-51q-172 205 -239.5 456.5t-30.5 526.5z" />
<glyph unicode=")" horiz-adv-x="563" d="M-160 -487q117 92 211 209.5t163 247.5t113 264.5t60 259.5q16 123 8 256t-43 263t-97 248.5t-157 213.5h52q174 -205 240.5 -456t31.5 -525q-37 -281 -172 -529t-359 -452h-51z" />
<glyph unicode="*" horiz-adv-x="768" d="M94 956l312 164l-269 164l21 27l266 -166l43 332h31l-45 -332l309 166l12 -27l-311 -164l268 -164l-18 -26l-269 166l-41 -332h-30l45 332l-312 -166z" />
<glyph unicode="+" horiz-adv-x="1441" d="M152 723v29h555v555h28v-555h555v-29h-555v-555h-28v555h-555z" />
<glyph unicode="," horiz-adv-x="212" d="M-51 -123l47 123h-6l22 176h39l-24 -176l-52 -123h-26z" />
<glyph unicode="-" horiz-adv-x="870" d="M47 444l4 31h699l-7 -31h-696z" />
<glyph unicode="." horiz-adv-x="212" d="M-10 0l22 176h39l-24 -176h-37z" />
<glyph unicode="/" horiz-adv-x="514" d="M-98 -4l680 1479h30l-680 -1479h-30z" />
<glyph unicode="0" d="M143.5 469q-8.5 135 10.5 268q18 133 61 268.5t111.5 243t160 175t205.5 67.5q113 0 186.5 -67.5t113.5 -175t48 -243t-10 -268.5q-18 -135 -62 -269t-112 -241.5t-160 -175t-204 -67.5q-115 0 -188 67.5t-112.5 175t-48 242.5zM183.5 478q6.5 -128 42.5 -229.5 t102.5 -165t169.5 -63.5q100 0 184 62.5t147.5 164t104.5 230.5t59 260q16 131 9 259t-42.5 229.5t-103.5 165t-168 63.5q-102 0 -186 -62.5t-146.5 -164t-103.5 -230.5t-59 -260q-16 -131 -9.5 -259z" />
<glyph unicode="1" d="M477 0l189 1430l-101 -68l6 39l146 90l-199 -1491h-41z" />
<glyph unicode="2" d="M45 0l2 27q66 47 163 106.5t204.5 130t217 153.5t201 175t154 193.5t76.5 211.5q12 98 -10.5 182.5t-73.5 144.5t-128 95t-171 35q-92 0 -176 -32.5t-151.5 -91t-113.5 -138.5t-63 -174q-2 -6 -2 -12.5t-2 -10.5l-22 37q2 4 2 8t2 9q20 96 70 177t121 140t159 92t184 33 q102 0 185 -37t138.5 -102.5t81 -155.5t11.5 -195q-14 -113 -76.5 -216t-153 -197t-199 -177t-215 -154t-200.5 -128t-156 -98h875l-4 -31h-930z" />
<glyph unicode="3" d="M98 119l4 41q53 -70 135 -108t183 -38q94 0 181 35t154.5 96.5t112.5 144.5t58 181q12 98 -11.5 182t-78 145.5t-132 95.5t-172.5 34l5 28q51 0 100 18.5t88 52.5t65.5 80t34.5 101q6 55 -6 101.5t-40.5 80t-71.5 52t-95 18.5q-117 0 -200 -80l6 39q41 35 96 53.5 t111 18.5q59 0 108 -21.5t81 -58.5t47.5 -88t6.5 -113q-12 -96 -72.5 -166.5t-146.5 -99.5q82 -14 146.5 -56t107.5 -104.5t60.5 -142.5t5.5 -172q-14 -104 -62.5 -192.5t-122 -154t-166 -102t-194.5 -36.5q-100 0 -185 35.5t-141 99.5z" />
<glyph unicode="4" d="M78 553l4 33l846 889h49l-117 -891h201l-4 -31h-201l-74 -553h-41l74 553h-737zM119 584h700l113 856z" />
<glyph unicode="5" d="M143 39l4 27q45 -25 99.5 -39.5t113.5 -14.5q94 0 181.5 35t155 96.5t113.5 145.5t58 182t-10 182t-74.5 144.5t-130.5 95.5t-172 35q-113 0 -207 -43l82 590h668l-4 -31h-629l-69 -518q88 33 178 32q100 0 183 -36.5t138.5 -102t79.5 -155t10 -193.5t-62 -193.5 t-122 -155t-167 -102t-193 -36.5q-63 0 -120 14t-104 41z" />
<glyph unicode="6" d="M74 477q29 217 137 405.5t276 336.5q102 90 217 157.5t242 114.5l25 -27q-244 -94 -430 -252q-131 -111 -224.5 -241.5t-146.5 -282.5q72 123 192.5 198t266.5 75q100 0 183 -37t138.5 -102.5t79.5 -155t10 -193.5t-63 -194.5t-123 -156t-167 -102t-195 -36.5 q-104 0 -187.5 36.5t-139.5 103t-81 157t-10 196.5zM115 473q-12 -98 10 -181t73.5 -144.5t128 -96.5t171.5 -35q94 0 179 35t152.5 96.5t113.5 144.5t58 181t-10 182t-73.5 145.5t-128 96.5t-171.5 35q-94 0 -180 -35t-153.5 -96.5t-112.5 -145.5t-57 -182z" />
<glyph unicode="7" d="M205 1442l4 33h960v-9l-856 -1466h-43l840 1442h-905z" />
<glyph unicode="8" d="M74 469q12 92 51 172t99.5 142.5t137 104.5t162.5 56q-80 27 -123 97.5t-30 168.5q8 59 35.5 110.5t70.5 89.5t98.5 59.5t116.5 21.5t110.5 -21.5t82.5 -58.5t47 -88t6 -113q-12 -98 -73.5 -168.5t-149.5 -97.5q82 -14 147.5 -56t108.5 -104.5t61 -142.5t6 -172 q-14 -104 -62 -192.5t-121 -154t-166 -102t-197 -36.5t-188.5 36.5t-139.5 102t-80 154t-10 192.5zM113 469q-12 -98 10 -181t73.5 -144.5t128 -96.5t171.5 -35q94 0 180 35t153.5 96.5t112.5 144.5t57 181t-10 182t-73.5 145.5t-128 96.5t-171.5 35q-94 0 -179 -35 t-152.5 -96.5t-113.5 -145.5t-58 -182zM410 1208q-6 -53 6 -99t40.5 -80t70.5 -53.5t94 -19.5q51 0 99 19.5t85 53.5t62.5 80t31.5 99q6 55 -6 101.5t-40 80t-71 52t-94 18.5q-53 0 -100 -18.5t-84 -52t-62.5 -79.5t-31.5 -102z" />
<glyph unicode="9" d="M143 1001q14 104 63.5 194.5t123 156t167 102.5t195.5 37q104 0 187.5 -37t139.5 -103.5t80.5 -157t10.5 -196.5q-29 -217 -137.5 -405.5t-276.5 -335.5q-102 -90 -216.5 -157.5t-239.5 -114.5l-27 26q244 94 430 252q131 111 224.5 242t146.5 282q-72 -123 -193 -197.5 t-266 -74.5q-102 0 -184 37t-137.5 102.5t-80 154.5t-10.5 193zM182 1001q-12 -98 10.5 -182t74.5 -145.5t128 -96t170 -34.5t180 34.5t154 96t113 145.5t57 182t-10.5 181.5t-73.5 145t-127 96t-170 34.5t-180 -34.5t-154.5 -96t-113.5 -144.5t-58 -182z" />
<glyph unicode=":" horiz-adv-x="212" d="M-10 0l22 176h39l-24 -176h-37zM92 774l23 176h39l-23 -176h-39z" />
<glyph unicode=";" horiz-adv-x="212" d="M-51 -123l47 123h-6l22 176h39l-24 -176l-52 -123h-26zM92 774l23 176h39l-23 -176h-39z" />
<glyph unicode="&#x3c;" horiz-adv-x="1441" d="M152 721v33l1138 481v-33l-1100 -465l1100 -465v-32z" />
<glyph unicode="=" horiz-adv-x="1441" d="M152 489v29h1138v-29h-1138zM152 956v29h1138v-29h-1138z" />
<glyph unicode="&#x3e;" horiz-adv-x="1441" d="M152 240v32l1101 465l-1101 465v33l1138 -481v-33z" />
<glyph unicode="?" horiz-adv-x="905" d="M10 0l23 172h39l-23 -172h-39zM55 324l29 249q82 -43 195 -43q94 0 181 35t155.5 96.5t114.5 144.5t58 181t-11 182t-75.5 145.5t-130 96.5t-172.5 35q-59 0 -115.5 -14.5t-109.5 -38.5l4 26q51 29 111.5 42.5t124.5 13.5q102 0 185 -37t138.5 -102.5t80.5 -155 t11 -193.5t-62 -193t-121 -154t-165 -102.5t-192 -37.5q-92 0 -170 32l-29 -208h-35z" />
<glyph unicode="@" horiz-adv-x="1605" d="M109 741q0 156 57 290t157.5 231.5t233.5 152.5t285 55q137 0 257 -43t208 -122.5t139 -192.5t51 -252q0 -119 -41 -221t-104.5 -178t-140 -119t-148.5 -43q-57 0 -93 38t-16 120q-51 -78 -119.5 -118t-175.5 -40q-57 0 -106 22.5t-85 61.5t-56.5 92t-20.5 115 q0 94 34 196.5t96.5 187.5t149.5 140t193 55q109 0 177.5 -48t107.5 -136l53 145h27l-137 -360l-14 -35q-13 -35 -28.5 -74.5t-27.5 -74.5l-12 -35q-16 -43 -26.5 -83t-6.5 -73t24.5 -52t67.5 -19q63 0 135 41t131.5 113.5t98.5 169.5t39 212q0 129 -47.5 236.5 t-132.5 184.5t-200.5 120t-250.5 43q-152 0 -281 -55.5t-224 -150.5t-148.5 -223t-53.5 -274q0 -176 57.5 -309t153.5 -223t225 -136t271 -46q94 0 180 24.5t163 67.5t140.5 101.5t112.5 125.5h28q-51 -78 -120.5 -141.5t-150.5 -108.5t-171 -69.5t-182 -24.5 q-135 0 -267.5 44t-235.5 134t-166.5 230.5t-63.5 330.5zM418 588q0 -55 18.5 -103.5t52 -84t79.5 -55t102 -19.5q41 0 86 11t87 38.5t80 76t66 121.5l11 28q12 28 27 70t33.5 90t35 90t21.5 56l16 41q-14 55 -44 93t-68 60.5t-81 32t-84 9.5q-98 0 -179 -54.5 t-138.5 -137.5t-89 -180t-31.5 -183z" />
<glyph unicode="A" horiz-adv-x="1429" d="M-98 0l882 1475h58l489 -1475h-43l-184 547h-830l-327 -547h-45zM291 578h805l-289 860z" />
<glyph unicode="B" horiz-adv-x="1073" d="M72 0l196 1475h230q104 0 188 -29t142 -80q58 -50 86 -118q20 -50 21 -106q0 -20 -3 -42q-8 -61 -40 -117.5t-81 -102.5t-112.5 -80t-137.5 -52q4 0 6 -3q98 -4 178 -34.5t134.5 -79.5t80.5 -115q19 -48 20 -100q0 -20 -3 -41q-10 -80 -56.5 -147.5t-120 -119t-167.5 -80 t-201 -28.5h-360zM117 31h307q100 0 190.5 27.5t158 74.5t110.5 109.5t53 134.5q3 20 3 39q1 50 -19 95q-26 62 -82 109.5t-139 75t-183 27.5h-307zM213 752h178q98 0 185.5 27.5t153 74.5t107.5 109.5t52 134.5q3 20 3 40q0 50 -18 94q-26 62 -79.5 109.5t-133 75 t-178.5 27.5h-178z" />
<glyph unicode="C" horiz-adv-x="1486" d="M109 737q20 160 101 297t201.5 238.5t273.5 160t319 58.5q150 0 275.5 -45t219.5 -127l-10 -43q-92 84 -215 130t-270 46q-160 0 -305.5 -55.5t-260 -151.5t-190.5 -226t-96 -282q-7 -49 -7 -97q1 -98 29 -186q42 -130 130.5 -226.5t218.5 -152t290 -55.5q154 0 296 51.5 t259 143.5l-2 -41q-117 -90 -261 -140t-302 -50q-166 0 -303.5 57t-231.5 159t-137 240q-29 93 -29 195q0 50 7 102z" />
<glyph unicode="D" horiz-adv-x="1587" d="M72 0l196 1475h533q166 0 299 -56.5t224 -156t132 -234.5q28 -91 28 -191q0 -49 -7 -100q-20 -154 -97 -289t-194 -234t-266.5 -156.5t-315.5 -57.5h-532zM117 35h487q156 0 298 54t254 148.5t186 223.5t94 276q7 49 7 96q0 93 -27 179q-40 128 -126 222.5t-214 149 t-285 54.5h-488z" />
<glyph unicode="E" horiz-adv-x="1034" d="M72 0l196 1475h758l-4 -33h-717l-92 -690h707l-5 -31h-706l-92 -690h737l-4 -31h-778z" />
<glyph unicode="F" horiz-adv-x="946" d="M72 0l196 1475h711l-6 -33h-668l-92 -692h616l-4 -33h-616l-96 -717h-41z" />
<glyph unicode="G" horiz-adv-x="1566" d="M109 737q20 160 101 297t201.5 238.5t273.5 160t321 58.5q150 0 275.5 -45t219.5 -129l-10 -39q-92 84 -216 130t-271 46q-160 0 -305.5 -55.5t-260 -152.5t-191.5 -228t-97 -283q-7 -49 -7 -97q0 -97 29 -186q41 -130 130 -226.5t219 -152t290 -55.5q145 0 277.5 46.5 t242.5 128.5l62 460h41l-64 -481q-119 -90 -263 -139t-300 -49q-174 0 -315.5 60t-235.5 171q-88 100 -128 235q-26 88 -26 184q0 50 7 103z" />
<glyph unicode="H" horiz-adv-x="1509" d="M72 0l196 1475h41l-96 -721h1087l95 721h43l-197 -1475h-41l94 721h-1085l-96 -721h-41z" />
<glyph unicode="I" horiz-adv-x="380" d="M72 0l196 1475h41l-196 -1475h-41z" />
<glyph unicode="J" horiz-adv-x="577" d="M-33 -8l4 26q10 -2 33 -2q57 0 108.5 20.5t93.5 57.5t68.5 88t34.5 113l156 1180h41l-156 -1182q-10 -72 -42 -130.5t-81 -99.5q-91 -79 -214 -79h-3q-27 0 -43 8z" />
<glyph unicode="K" horiz-adv-x="1159" d="M72 0l196 1475h41l-96 -715h63q158 0 302.5 55t259 152.5t191.5 227.5t99 280h46q-20 -137 -87 -259t-165.5 -219.5t-223.5 -163t-262 -90.5q137 -20 250 -85.5t187.5 -165t108.5 -225.5q22 -81 22 -168q0 -49 -7 -99h-45q8 55 8 108q0 102 -30 190q-45 134 -138.5 229.5 t-227.5 147.5t-292 52h-63l-96 -727h-41z" />
<glyph unicode="L" horiz-adv-x="1036" d="M72 0l196 1475h41l-192 -1442h760l-5 -33h-800z" />
<glyph unicode="M" horiz-adv-x="1716" d="M72 0l196 1475h49l535 -789l743 789h50l-195 -1475h-41l190 1430l-749 -795h-10l-539 795l-188 -1430h-41z" />
<glyph unicode="N" horiz-adv-x="1671" d="M72 0l196 1475h45l1055 -1424l191 1424h40l-196 -1475h-45l-1057 1423l-188 -1423h-41z" />
<glyph unicode="O" horiz-adv-x="1808" d="M109 737q20 160 101 297t201.5 238.5t273.5 160t319 58.5q168 0 305 -58.5t231 -160t136 -238.5q28 -93 29 -196q0 -49 -7 -101q-20 -158 -99 -296t-199 -239.5t-273.5 -159.5t-323.5 -58q-168 0 -305.5 58t-230.5 160t-136 240q-29 93 -29 194q0 49 7 101zM152 737 q-7 -50 -7 -98q-1 -97 27 -185q40 -130 129.5 -226.5t219.5 -152t288 -55.5q160 0 305.5 55.5t259 152t188.5 227t95 282.5q7 51 7 99q0 97 -27 184q-40 131 -128 228.5t-219 152.5t-291 55q-158 0 -303 -55t-258.5 -152.5t-189.5 -228.5t-96 -283z" />
<glyph unicode="P" horiz-adv-x="1036" d="M72 0l196 1475h334q104 0 189.5 -30t143.5 -81q59 -52 85 -120q19 -50 19 -105q0 -21 -3 -43q-10 -80 -56 -149.5t-119 -120t-165 -80t-194 -29.5h-46q-46 0 -100.5 1t-100.5 1h-46l-96 -719h-41zM213 750h285q98 0 184 27.5t152.5 74.5t108.5 109.5t52 134.5q3 20 3 40 q0 50 -18 95q-26 63 -79 110.5t-133 75t-178 27.5h-285z" />
<glyph unicode="Q" horiz-adv-x="1808" d="M109 737q20 160 101 297t201.5 238.5t273.5 160t319 58.5q168 0 305 -58.5t231 -160t136 -238.5q28 -93 28 -196q0 -49 -6 -101q-20 -154 -94 -287t-187 -233l189 -221h-45l-170 199q-119 -98 -269.5 -154.5t-318.5 -56.5t-305.5 58t-230.5 159.5t-136 240.5 q-29 93 -29 194q0 49 7 101zM152 737q-7 -50 -7 -98q0 -97 27 -185q41 -130 130 -226.5t219 -152t288 -55.5q160 0 305.5 55.5t259 152t188.5 227t95 282.5q7 51 7 99q0 97 -27 184q-40 131 -128 228.5t-219 152.5t-291 55q-158 0 -303 -55t-258.5 -152.5t-189.5 -228.5 t-96 -283z" />
<glyph unicode="R" horiz-adv-x="1179" d="M72 0l196 1475h336q102 0 187.5 -29t142.5 -80q57 -50 85 -118q20 -48 20 -104q0 -22 -3 -44q-10 -80 -55 -147.5t-114.5 -118t-160 -79t-190.5 -30.5q123 -29 223.5 -96.5t168.5 -162.5q66 -95 96 -215q19 -78 19 -160q0 -45 -5 -91h-43q5 45 5 88q0 101 -29 194 q-42 132 -132 229t-220 153.5t-286 56.5h-104l-96 -721h-41zM213 750h285q98 0 184 27.5t152.5 74.5t108.5 110.5t52 135.5q2 17 2 34q1 53 -19 100q-26 62 -79 109.5t-132 75t-177 27.5h-285z" />
<glyph unicode="S" horiz-adv-x="993" d="M16 305l25 43q-1 -10 -1 -20q0 -60 22 -112q24 -60 69 -105t108.5 -71t141.5 -26q80 0 153.5 28t130 75t93.5 112.5t47 139.5q3 21 3 40q0 49 -18 86q-26 52 -74 92t-113.5 71.5t-133.5 64.5t-131.5 65.5t-110.5 75.5q-47 44 -71 102q-16 41 -16 93q0 22 3 47 q12 82 51 152.5t99.5 122t135.5 81t157 29.5q102 0 181 -44t122 -120l-10 -49q-35 84 -113 133t-182 49q-74 0 -141.5 -26.5t-121 -74.5t-89 -112.5t-46.5 -138.5q-3 -23 -3 -43q1 -48 17 -86q24 -53 67.5 -93t104 -71t124.5 -61q72 -35 140.5 -69t119.5 -77q52 -43 78 -100 q18 -39 18 -90q0 -23 -4 -49q-10 -82 -51 -153t-104.5 -122t-142.5 -80.5t-167 -29.5q-78 0 -144.5 24.5t-114.5 67.5t-77 101.5t-31 127.5z" />
<glyph unicode="T" horiz-adv-x="1359" d="M160 1436l4 39h1227l-5 -39h-593l-191 -1436h-41l191 1436h-592z" />
<glyph unicode="U" horiz-adv-x="1556" d="M145 561l123 914h41l-123 -914q-5 -39 -6 -76q0 -73 22 -138q32 -99 98.5 -172t164.5 -115t217 -42q121 0 230.5 42t195.5 115t142.5 172t72.5 214l121 914h41l-121 -914q-16 -123 -73.5 -225.5t-147.5 -179.5q-94 -82 -213 -127t-252 -45q-135 0 -244.5 48t-181.5 134 q-66 78 -94 178q-18 64 -19 135q0 40 6 82z" />
<glyph unicode="V" horiz-adv-x="1243" d="M98 1475h43l389 -1426l768 1426h43l-794 -1475h-47z" />
<glyph unicode="W" horiz-adv-x="2314" d="M98 1475h43l359 -1422l737 1422h37l358 -1422l738 1422h43l-764 -1475h-41l-361 1421l-737 -1421h-41z" />
<glyph unicode="X" horiz-adv-x="1386" d="M-98 0l766 737l-570 738h49l549 -709l738 709h51l-766 -738l569 -737h-51l-549 709l-735 -709h-51z" />
<glyph unicode="Y" horiz-adv-x="1157" d="M98 1475h49l445 -631l614 631h49l-647 -666l-106 -809h-41l106 809z" />
<glyph unicode="Z" horiz-adv-x="1288" d="M-96 0v4l1405 1438h-1174l4 33h1245v-7l-1404 -1435h1212l-4 -33h-1284z" />
<glyph unicode="[" horiz-adv-x="690" d="M6 -487l262 1962h432l-4 -29h-397l-252 -1903h397l-4 -30h-434z" />
<glyph unicode="\" horiz-adv-x="509" d="M0 1475h31l481 -1479h-33z" />
<glyph unicode="]" horiz-adv-x="690" d="M-76 -487l4 30h398l252 1903h-398l4 29h434l-260 -1962h-434z" />
<glyph unicode="^" horiz-adv-x="1101" d="M2 872l530 603h35l533 -603h-37l-512 576l-512 -576h-37z" />
<glyph unicode="_" horiz-adv-x="1093" d="M0 -168h1094v-25h-1094v25z" />
<glyph unicode="`" horiz-adv-x="0" d="M528 1458h41l228 -366h-35z" />
<glyph unicode="a" horiz-adv-x="1114" d="M72 453q14 111 66 205t131 162.5t180.5 107.5t216.5 39q143 0 301 -60l-119 -907h-41l24 184q-115 -106 -211 -153t-204 -47q-88 0 -158 34.5t-116 97t-66 148.5q-11 49 -11 103q0 41 7 86zM111 455q-5 -41 -5 -78q0 -53 10 -100q17 -80 59 -138.5t106.5 -90.5t146.5 -32 q102 0 197.5 49.5t212.5 161.5l88 658q-72 27 -133.5 38t-124.5 11q-106 0 -201.5 -36t-169.5 -99.5t-123 -151.5t-63 -192z" />
<glyph unicode="b" horiz-adv-x="1114" d="M78 41l190 1436h39l-94 -713q115 109 211 156t205 47q88 0 158.5 -35t116.5 -97.5t64 -148.5q11 -49 11 -104q0 -41 -6 -86q-14 -111 -66.5 -204t-131.5 -162t-181 -107.5t-215 -38.5q-141 0 -301 57zM119 66q72 -27 133 -39.5t125 -12.5q106 0 201.5 36t169 100.5 t123 153t63.5 192.5q5 40 5 77q-1 54 -11 101q-18 80 -59.5 137t-106 89t-146.5 32q-102 0 -197 -48t-212 -163z" />
<glyph unicode="c" horiz-adv-x="866" d="M74 475q14 104 63 194.5t123 157t166 103.5t195 37q115 0 202 -41l-4 -37q-43 20 -93 31.5t-103 11.5q-96 0 -182.5 -35t-154 -96.5t-113.5 -144.5t-58 -181q-4 -35 -5 -67q0 -60 15 -115q22 -84 74.5 -145.5t129.5 -96.5t171 -35q59 0 117.5 14.5t111.5 39.5l-6 -35 q-113 -51 -231 -51q-104 0 -187.5 37.5t-139.5 103t-81 155.5q-16 57 -16 119q0 37 6 76z" />
<glyph unicode="d" horiz-adv-x="1114" d="M78 496q14 104 55 190t103.5 148.5t141.5 97.5t169 35q106 0 191 -47.5t171 -155.5l95 713h38l-190 -1436q-174 -57 -317 -57q-115 0 -205 38.5t-151.5 107.5t-88.5 162q-17 60 -17 127q0 37 5 77zM117 496q-5 -37 -5 -72q0 -64 16 -120q26 -88 83 -153t142 -101t192 -36 q63 0 128.5 12.5t143.5 39.5l86 655q-88 115 -169 163t-185 48q-80 0 -152.5 -32t-131 -89t-97.5 -137t-51 -178z" />
<glyph unicode="e" horiz-adv-x="1075" d="M74 475q14 104 59 194.5t112.5 157t152.5 103.5t177 37q86 0 157 -32t120 -88q48 -56 74 -135q24 -73 24 -158v-13v-17h-825q-4 -12 -6 -25.5t-4 -27.5q-4 -33 -4 -65q-1 -62 15 -117q24 -84 75 -145.5t128 -96.5t173 -35q98 0 188 36t162 102l-6 -35q-74 -61 -165 -96 t-189 -35q-102 0 -186.5 36.5t-140.5 102t-81 155.5q-16 57 -16 120q0 37 6 77zM129 553h789q0 84 -25 154.5t-70 122t-108.5 80t-139.5 28.5t-146.5 -28.5t-129.5 -80t-103 -122t-67 -154.5z" />
<glyph unicode="f" horiz-adv-x="446" d="M49 920l4 30h189l30 232q8 68 39 124t76 98t103.5 65.5t123.5 23.5q88 0 156 -45l-4 -39q-66 49 -152 49q-55 0 -107 -21.5t-93 -58.5t-68 -88t-35 -110l-28 -230h168l-5 -30h-167l-123 -920h-41l123 920h-189z" />
<glyph unicode="g" horiz-adv-x="1112" d="M-35 -369l4 43q53 -70 136 -110.5t188 -40.5q96 0 182 34.5t154.5 96t113.5 145.5t60 183l28 208q-115 -106 -212 -153t-203 -47q-88 0 -158 33.5t-116 95t-66 147.5q-11 49 -11 103q0 42 7 88q14 111 67.5 205t132 161.5t180 105.5t214.5 38q72 0 144.5 -14.5 t156.5 -45.5l-125 -927q-14 -104 -62.5 -193.5t-121 -155t-166 -102.5t-197.5 -37t-188 37t-142 102zM109 457q-5 -41 -5 -78q0 -53 10 -100q17 -80 60 -138.5t107.5 -90.5t144.5 -32q102 0 197.5 49.5t212.5 161.5l88 656q-72 27 -133.5 39t-124.5 12q-106 0 -201.5 -36 t-169.5 -100.5t-123 -151.5t-63 -191z" />
<glyph unicode="h" horiz-adv-x="1056" d="M72 0l196 1477h39l-94 -715q55 92 146.5 148.5t199.5 56.5q76 0 137.5 -30t103.5 -82q42 -53 60 -123q11 -41 12 -87q0 -32 -6 -67l-78 -578h-38l75 573q4 30 4 58q0 45 -10 85q-16 66 -54 114.5t-94.5 76t-125.5 27.5q-111 0 -202 -64.5t-138 -173.5l-94 -696h-39z" />
<glyph unicode="i" horiz-adv-x="378" d="M72 0l127 950h39l-127 -950h-39zM246 1307l22 170h39l-22 -170h-39z" />
<glyph unicode="j" horiz-adv-x="378" d="M-291 -506l4 33q10 -2 31 -2q55 0 106.5 21.5t91.5 58.5t67.5 88t35.5 112l154 1145h39l-152 -1149q-10 -68 -40 -124t-76 -98t-103 -64.5t-121 -22.5h-18.5t-18.5 2zM246 1307l22 170h39l-22 -170h-39z" />
<glyph unicode="k" horiz-adv-x="987" d="M72 0l196 1477h39l-129 -977h21q119 0 226 35.5t189 97t135.5 143.5t65.5 174h43q-12 -86 -56 -161.5t-111.5 -137t-156 -103.5t-188.5 -61q96 -12 188.5 -49t162 -96t106.5 -145q26 -61 26 -135q0 -30 -4 -62h-41q4 30 4 59q0 88 -38 156q-50 90 -139 146.5t-200.5 83 t-215.5 26.5h-21l-63 -471h-39z" />
<glyph unicode="l" horiz-adv-x="378" d="M72 0l196 1477h39l-196 -1477h-39z" />
<glyph unicode="m" horiz-adv-x="1751" d="M72 0l127 950h39l-27 -188h2q55 94 146.5 149.5t197.5 55.5q131 0 215 -81t94 -208q25 63 64 116.5t89 91.5t109.5 59.5t124.5 21.5q76 0 137.5 -30t103.5 -81q42 -50 60 -122q11 -46 11 -96q0 -28 -4 -58l-78 -580h-39l76 575q4 29 4 56q0 45 -10 87q-16 66 -54.5 113.5 t-94.5 75t-126 27.5t-133.5 -27.5t-113.5 -75t-84 -113t-44 -140.5l-76 -578h-38l75 575q4 29 4 57q0 46 -10 86q-16 66 -54 113.5t-94.5 75t-125.5 27.5q-111 0 -202 -65.5t-138 -170.5l-94 -698h-39z" />
<glyph unicode="n" horiz-adv-x="1056" d="M72 0l127 950h39l-27 -188q59 92 149.5 148.5t198.5 56.5q76 0 137.5 -29t103.5 -81q42 -51 60 -123q11 -42 12 -89q0 -33 -6 -67l-78 -578h-38l75 573q4 30 4 58q0 45 -10 85q-16 66 -54 114.5t-94.5 76t-125.5 27.5q-111 0 -202 -64.5t-138 -171.5l-94 -698h-39z" />
<glyph unicode="o" horiz-adv-x="1181" d="M74 475q14 106 63 196.5t123 156t167 102.5t196 37q102 0 185 -37t138 -102q54 -66 80 -156q16 -58 17 -124q0 -36 -5 -73q-14 -106 -62 -196.5t-122 -156t-167 -102t-195 -36.5t-186.5 36.5t-139.5 102t-81 155.5q-16 57 -16 122q0 36 5 75zM113 475q-4 -35 -4 -67 q0 -60 14 -115q22 -84 73.5 -145.5t128 -96.5t171.5 -35q94 0 180 35t153.5 96.5t113.5 145.5t58 182q4 35 4 67q0 60 -14 115q-22 84 -73.5 145.5t-128 96.5t-171.5 35q-96 0 -182 -35t-153.5 -96.5t-112.5 -145.5t-57 -182z" />
<glyph unicode="p" horiz-adv-x="1114" d="M6 -492l187 1399q90 31 167.5 45.5t149.5 14.5q113 0 204 -39t152.5 -107.5t87.5 -162.5q18 -62 18 -130q0 -37 -5 -75q-14 -102 -55.5 -188.5t-104 -149t-142 -97t-167.5 -34.5q-106 0 -191.5 47t-171.5 153l-90 -676h-39zM141 227q88 -113 169 -162t186 -49 q80 0 152.5 32t131 90.5t97.5 138.5t51 178q5 37 5 72q0 63 -17 120q-25 88 -82.5 151.5t-142.5 99.5t-191 36q-63 0 -128 -11.5t-143 -37.5z" />
<glyph unicode="q" horiz-adv-x="1114" d="M72 453q14 111 66 205t131 162.5t180.5 107.5t216.5 39q143 0 301 -60l-185 -1399h-41l90 676q-115 -106 -211 -153t-204 -47q-88 0 -158 34.5t-116 97t-66 148.5q-11 49 -11 103q0 41 7 86zM111 455q-5 -41 -5 -78q0 -53 10 -100q17 -80 59 -138.5t106.5 -90.5 t146.5 -32q102 0 197.5 49.5t212.5 161.5l88 658q-72 27 -133.5 38t-124.5 11q-106 0 -201.5 -36t-169.5 -99.5t-123 -151.5t-63 -192z" />
<glyph unicode="r" horiz-adv-x="770" d="M72 0l127 950h37l-25 -190q57 94 147.5 150.5t196.5 56.5q72 0 131 -28t100 -77l-28 -22q-37 43 -91.5 66.5t-119.5 23.5q-111 0 -204 -64.5t-140 -171.5l-92 -694h-39z" />
<glyph unicode="s" horiz-adv-x="765" d="M14 199l23 22v-5q-1 -86 63 -144q66 -60 176 -60q57 0 107.5 17.5t89.5 47t63.5 70.5t30.5 89q1 11 1 20q0 26 -7 46q-10 28 -32.5 49.5t-53.5 39t-65 33.5q-39 18 -79 37.5t-77 38.5q-76 37 -124 82q-40 37 -40 103q0 14 2 28q8 55 36 101t70 80t96 53.5t116 19.5 q74 0 131 -29t90 -76l-8 -53q-25 57 -80.5 92t-134.5 35q-53 0 -100.5 -17.5t-84.5 -47t-61.5 -70.5t-30.5 -88l-2 -22q0 -25 7 -43q9 -28 29.5 -49t49.5 -39.5t64 -35.5q37 -18 76.5 -35.5t78.5 -35.5t74 -38t58.5 -44.5t34.5 -56.5q7 -21 7 -47q0 -14 -2 -29 q-6 -55 -35.5 -102.5t-73.5 -81.5t-101.5 -52t-119.5 -18q-113 0 -185.5 60t-76.5 155z" />
<glyph unicode="t" horiz-adv-x="716" d="M90 920l4 22l42 1t92.5 2t92 2t44.5 3l4 24q4 23 10 58t12 76t11.5 75t9.5 57l4 24h26l-43 -314h281l-4 -30h-281l-82 -627q-3 -22 -3 -43q0 -36 8 -68q14 -52 44.5 -88.5t76.5 -57t102 -20.5q20 0 30 2l-6 -32q-10 -2 -19 -2h-20q-63 0 -113.5 22.5t-84.5 63.5 q-32 41 -48 97q-10 37 -11 78q0 21 3 44l84 631h-266z" />
<glyph unicode="u" horiz-adv-x="1056" d="M121 373l78 577h39l-78 -573q-4 -30 -4 -58q0 -45 10 -85q16 -66 54 -114t94.5 -76t125.5 -28q111 0 203 64.5t139 171.5l92 698h41l-127 -950h-38l24 188q-57 -92 -148 -148t-198 -56q-76 0 -138.5 28.5t-103.5 80.5t-59 124q-11 43 -11 91q0 31 5 65z" />
<glyph unicode="v" horiz-adv-x="892" d="M29 950h41l284 -905l525 905h43l-551 -950h-45z" />
<glyph unicode="w" horiz-adv-x="1583" d="M29 950h41l264 -901h2l467 901h35l227 -901l504 901h43l-531 -950h-39l-229 901l-467 -901h-39z" />
<glyph unicode="x" horiz-adv-x="942" d="M-98 0l510 475l-383 475h49l362 -448l480 448h51l-510 -475l383 -475h-49l-363 449l-481 -449h-49z" />
<glyph unicode="y" horiz-adv-x="866" d="M-106 -492l442 664l-307 778h43l293 -731l487 731h43l-958 -1442h-43z" />
<glyph unicode="z" horiz-adv-x="876" d="M-72 0v6l840 912h-678l4 32h746v-4l-842 -913h721l-6 -33h-785z" />
<glyph unicode="{" horiz-adv-x="663" d="M53 479l2 29q37 0 74 25.5t68.5 71.5t56.5 112.5t35 146.5l35 264q10 74 39.5 137.5t72.5 109.5t97.5 73t113.5 27h27l-4 -29h-21q-53 0 -102 -24.5t-89 -67.5t-68 -102.5t-36 -129.5l-35 -260q-10 -70 -29.5 -130t-47 -108.5t-60 -82t-69.5 -47.5q66 -29 97.5 -129.5 t12.5 -239.5l-35 -260q-10 -72 2.5 -131.5t40 -102.5t69.5 -66.5t95 -23.5h23l-4 -28h-27q-59 0 -106.5 26.5t-78 72.5t-44 109.5t-2.5 137.5l34 264q10 80 4 146.5t-25 112.5t-49 71.5t-67 25.5z" />
<glyph unicode="|" horiz-adv-x="364" d="M168 -485v1962h29v-1962h-29z" />
<glyph unicode="}" horiz-adv-x="663" d="M-76 -487l4 28h21q53 0 102 23.5t89 66.5t66.5 102.5t37.5 131.5l35 260q8 70 28.5 130t48 108.5t60.5 82t69 48.5q-66 29 -96.5 129t-11.5 239l35 260q8 70 -3.5 129.5t-40 102.5t-71.5 67.5t-94 24.5h-23l4 29h27q59 0 106.5 -27t78 -73t44 -109.5t2.5 -137.5l-34 -264 q-10 -80 -4 -146.5t25.5 -112.5t50 -71.5t67.5 -25.5l-4 -29q-37 0 -74 -25.5t-68.5 -71.5t-56.5 -112.5t-35 -146.5l-35 -264q-10 -74 -39.5 -137.5t-72.5 -109.5t-97.5 -72.5t-113.5 -26.5h-27z" />
<glyph unicode="~" horiz-adv-x="1445" d="M152 739q174 125 301 125q57 0 130.5 -27.5t147.5 -59.5t142.5 -59.5t117.5 -27.5q31 0 58.5 7.5t61.5 23.5t78 44t103 69l2 -31q-92 -66 -160.5 -105t-142.5 -39q-55 0 -125.5 28t-143.5 60.5t-143.5 60.5t-127.5 28q-29 0 -55.5 -5.5t-59.5 -19.5t-76 -40t-106 -64z " />
<glyph unicode="&#xa1;" horiz-adv-x="374" d="M4 -494l156 1153h35l-150 -1153h-41zM178 811l23 172h39l-23 -172h-39z" />
<glyph unicode="&#xa2;" horiz-adv-x="866" d="M109 737q14 104 61 192.5t118.5 155t163 104.5t191.5 40l33 246h26l-32 -246q106 -2 188 -41l-4 -37q-43 20 -93 31.5t-104 11.5q-96 0 -182 -35t-153.5 -96.5t-113.5 -144t-58 -181.5q-12 -98 10 -182t74.5 -145.5t129 -96t171.5 -34.5q59 0 117.5 14t111.5 39l-6 -35 q-98 -47 -219 -51l-33 -246h-27l33 246q-100 2 -181 41t-134.5 104.5t-77 154.5t-10.5 191z" />
<glyph unicode="&#xa3;" horiz-adv-x="1058" d="M-33 0l330 723h-213l4 27h221l197 432q33 72 83 130t111 99q57 39 120 59.5t124 20.5q10 0 22.5 -2t20.5 -6l-12 -27q-10 2 -33 2q-57 0 -115.5 -21.5t-110.5 -58.5t-96.5 -88t-70.5 -110l-199 -430h305l-4 -27h-311l-317 -690h856l-7 -33h-905z" />
<glyph unicode="&#xa4;" horiz-adv-x="1140" d="M98 285l135 137q-59 63 -91.5 145t-32.5 170t32.5 170t91.5 148l-135 135l19 20l137 -137q66 59 146.5 93t170.5 34q88 0 170 -33.5t146 -93.5l137 137l20 -20l-137 -137q59 -63 92 -145.5t33 -170.5t-32.5 -170t-92.5 -145l137 -137l-20 -21l-137 137 q-63 -59 -145.5 -93t-170.5 -34q-90 0 -171 34t-146 93l-137 -137zM137 737q0 -90 34 -169t93.5 -138t138 -93t168.5 -34q88 0 167 34t138.5 93t93.5 138t34 169t-34 169t-93.5 138.5t-138.5 93t-167 33.5q-90 0 -168.5 -33.5t-138 -93t-93.5 -138.5t-34 -169z" />
<glyph unicode="&#xa5;" horiz-adv-x="1157" d="M80 639l4 27h465l18 143l-61 88h-391l2 25h372l-391 553h49l445 -631l614 631h49l-536 -553h371l-5 -25h-391l-86 -88l-18 -143h465l-2 -27h-467l-84 -639h-41l84 639h-465z" />
<glyph unicode="&#xa6;" horiz-adv-x="364" d="M168 262h29v-747h-29v747zM168 727v750h29v-750h-29z" />
<glyph unicode="&#xa7;" horiz-adv-x="1032" d="M109 610q0 84 31.5 154t90.5 123q-47 41 -73.5 95t-26.5 128q0 82 29.5 151.5t82 121t123 80t150.5 28.5q100 0 182 -44t136 -118v-49q-47 84 -129 133t-187 49q-74 0 -137.5 -26.5t-110.5 -74.5t-73.5 -112.5t-26.5 -138.5t29.5 -127t79 -93t113 -72t130.5 -62 q92 -41 175 -81t141 -97q41 -39 63.5 -88t22.5 -115q0 -86 -33 -155.5t-90 -121.5q47 -41 73.5 -95t26.5 -130q0 -80 -29.5 -149.5t-82 -121t-122 -81t-151.5 -29.5q-100 0 -182 44t-135 120v47q45 -84 127 -133t186 -49q74 0 137.5 26.5t110.5 73.5t74.5 111.5t27.5 140.5 t-30.5 129t-80 93t-114 72t-131.5 62q-92 41 -174 81t-139 98q-39 39 -61.5 88t-22.5 114zM143 612q0 -74 32 -127t85 -93t121 -71.5t139 -64.5q72 -35 137.5 -67.5t116.5 -73.5q53 47 84 112.5t31 143.5q0 76 -33 129t-85 93t-120.5 71.5t-138.5 64.5q-72 35 -137.5 66.5 t-118.5 72.5q-53 -47 -83 -112.5t-30 -143.5z" />
<glyph unicode="&#xa8;" horiz-adv-x="0" d="M436 1092l23 168h30l-22 -168h-31zM811 1092l23 168h28l-22 -168h-29z" />
<glyph unicode="&#xa9;" horiz-adv-x="1724" d="M109 737q0 156 59 293t161.5 239.5t240 162t292.5 59.5q156 0 293 -59.5t239.5 -162t162 -239.5t59.5 -293t-59.5 -293t-162 -239.5t-239.5 -161.5t-293 -59t-293 59t-239.5 161.5t-161.5 240t-59 292.5zM135 737q0 -152 57.5 -285t155.5 -231t230.5 -155.5t283.5 -57.5 q152 0 284 57.5t230.5 155.5t155.5 231t57 285q0 150 -57 283t-155.5 231.5t-230.5 155.5t-284 57t-284 -57t-230 -155.5t-155.5 -231.5t-57.5 -283zM242 737q0 125 48 234.5t132 190.5t197.5 127t242.5 46q119 0 221.5 -39t184.5 -106l-6 -21q-78 68 -180.5 106t-219.5 38 q-125 0 -234.5 -44t-190.5 -122t-127 -183.5t-46 -226.5t46 -226t127 -183t190.5 -123t234.5 -45q123 0 229.5 43t186.5 116l6 -22q-84 -74 -191.5 -116t-230.5 -42q-129 0 -242.5 46t-197.5 127t-132 189.5t-48 235.5z" />
<glyph unicode="&#xaa;" horiz-adv-x="774" d="M154 1180q8 68 39.5 124t80 98t109.5 65.5t131 23.5q45 0 89 -8t97 -27l-73 -553h-33l14 107q-66 -61 -123 -89t-120 -28q-111 0 -169.5 80t-41.5 207zM186 1180q-16 -117 37 -187.5t150 -70.5q59 0 114.5 28.5t126.5 96.5l52 389q-78 29 -152 28q-61 0 -117.5 -21.5 t-100.5 -59t-72.5 -90t-37.5 -113.5z" />
<glyph unicode="&#xab;" horiz-adv-x="892" d="M49 463l4 24l408 285l8 -24l-389 -273l315 -272l-14 -25zM389 463l4 24l408 285l8 -24l-387 -273l315 -272l-16 -25z" />
<glyph unicode="&#xac;" horiz-adv-x="378" d="M-74 516l4 35l238 176l100 750h39l-96 -721l238 178l-5 -35l-237 -178l-96 -721h-39l92 692z" />
<glyph unicode="&#xad;" horiz-adv-x="870" d="M47 444l4 31h699l-7 -31h-696z" />
<glyph unicode="&#xae;" horiz-adv-x="1097" d="M94 1036q0 94 36 177t97.5 144.5t144.5 97.5t177 36t177 -36t144.5 -97.5t97.5 -144.5t36 -177t-36 -177t-97.5 -144.5t-144.5 -97t-177 -35.5t-177 35.5t-144.5 97t-97.5 144.5t-36 177zM119 1036q0 -90 33.5 -167.5t92 -136t136.5 -92.5t168 -34t169 34t137 92.5 t92 136t34 167.5t-34 169t-92 137.5t-137 92t-169 33.5t-168 -33.5t-136.5 -92t-92 -137.5t-33.5 -169zM352 700v670h148q92 0 155.5 -50t63.5 -124q0 -66 -52.5 -113t-129.5 -57q84 -29 141 -90q43 -45 68.5 -105.5t27.5 -130.5h-24q0 66 -24 122.5t-64 97.5 q-45 47 -109 75.5t-135 28.5h-41v-324h-25zM377 1047h121q86 0 141 44t55 105t-55 106.5t-141 45.5h-121v-301z" />
<glyph unicode="&#xaf;" horiz-adv-x="0" d="M356 1092l4 26h564l-4 -26h-564z" />
<glyph unicode="&#xb0;" horiz-adv-x="792" d="M94 1190q0 61 23.5 116.5t64.5 96.5t96.5 64.5t116.5 23.5q63 0 118.5 -23.5t96.5 -64.5t64.5 -96.5t23.5 -116.5t-23.5 -116.5t-64.5 -96.5t-96 -64.5t-119 -23.5q-61 0 -116.5 23.5t-96.5 64.5t-64.5 96t-23.5 117zM119 1190q0 -57 21.5 -107.5t59.5 -88.5t88 -59.5 t107 -21.5t107.5 21.5t88.5 59.5t59.5 88.5t21.5 107.5t-21.5 107.5t-59.5 88t-88 59t-108 21.5q-57 0 -107 -21.5t-88 -59t-59.5 -88t-21.5 -107.5z" />
<glyph unicode="&#xb1;" horiz-adv-x="1441" d="M152 84v29h1138v-29h-1138zM152 811v29h555v551h28v-551h555v-29h-555v-551h-28v551h-555z" />
<glyph unicode="&#xb2;" horiz-adv-x="737" d="M63 584l5 22q31 23 70.5 47.5t86.5 53.5q63 41 138 92t140.5 112.5t114 130t58.5 144.5q8 57 -5.5 106t-44 86t-75.5 57.5t-100 20.5t-104.5 -19.5t-89.5 -54t-67.5 -82t-37.5 -102.5q0 -4 -1 -9t-4 -18l-20 33l2 13q10 57 40 106t75 85t99 56.5t114 20.5q61 0 111 -22.5 t84 -62.5t49.5 -94.5t7.5 -117.5q-10 -78 -57.5 -148.5t-113 -134t-140 -116t-140.5 -93.5q-41 -27 -77 -48t-62 -38h516l-4 -26h-568z" />
<glyph unicode="&#xb3;" horiz-adv-x="698" d="M76 657l4 37q76 -94 194 -94q55 0 106.5 20.5t91.5 57.5t66.5 86t34.5 106q8 59 -6 108.5t-47 85.5t-80 56.5t-104 20.5l2 24q66 0 115 41t59 107q8 63 -27.5 105t-97.5 42q-68 0 -125 -55l4 35q57 45 129 45q76 0 119 -49.5t33 -122.5q-8 -53 -41 -95t-80 -63 q94 -23 144 -101t36 -184q-8 -63 -37.5 -117.5t-73.5 -93t-100.5 -61.5t-120.5 -23q-59 0 -111 21.5t-87 60.5z" />
<glyph unicode="&#xb4;" horiz-adv-x="0" d="M479 1092l326 366h41l-332 -366h-35z" />
<glyph unicode="&#xb5;" horiz-adv-x="1056" d="M6 -489q25 186 43.5 320t30.5 231.5t21.5 167t17.5 127t15 110.5t16.5 119.5t20.5 153.5t28 210h39l-78 -573q-10 -78 6 -143.5t54 -113.5t94.5 -76t125.5 -28q111 0 203 64.5t139 171.5l92 698h41l-127 -950h-38l24 188q-55 -92 -143 -147t-193 -55q-117 -2 -195.5 65.5 t-101.5 175.5l-96 -716h-39z" />
<glyph unicode="&#xb6;" horiz-adv-x="946" d="M94 1026q0 106 35 189t98.5 140.5t151.5 88.5t196 31h203v-1964h-30v1935h-162v-1935h-29v1064h-39q-98 2 -177 40t-133 100.5t-84 142.5t-30 168z" />
<glyph unicode="&#xb7;" horiz-adv-x="210" d="M86 649v176h39v-176h-39z" />
<glyph unicode="&#xb8;" horiz-adv-x="0" d="M344 -371l2 25q20 -10 33.5 -14.5t30.5 -4.5q45 0 79.5 30t40.5 77t-20.5 76.5t-71.5 29.5q-14 0 -27.5 -2t-35.5 -12l24 166h29l-18 -133q10 2 18 3t18 1q55 0 88 -37t25 -92q-6 -55 -49 -92t-100 -37q-33 0 -66 16z" />
<glyph unicode="&#xb9;" horiz-adv-x="344" d="M121 584l115 852l-62 -39l4 33l96 59l-118 -905h-35z" />
<glyph unicode="&#xba;" horiz-adv-x="776" d="M156 1192q8 63 37.5 118.5t73.5 95.5t101.5 62.5t118.5 22.5q63 0 113.5 -22.5t84.5 -62.5t49 -95.5t7 -118.5t-37.5 -118.5t-74.5 -95.5t-101.5 -62.5t-117.5 -22.5q-63 0 -113.5 22.5t-84.5 62.5t-49.5 95t-6.5 119zM186 1192q-8 -57 5.5 -106.5t44 -86t75.5 -57 t101 -20.5q55 0 106 20.5t91 57t67 86t35 106.5t-5.5 107.5t-44 87t-75.5 57t-101 20.5q-55 0 -106 -20.5t-91 -57t-66.5 -87t-35.5 -107.5z" />
<glyph unicode="&#xbb;" horiz-adv-x="892" d="M14 203l389 272l-315 273l14 24l332 -285l-2 -24l-407 -285zM354 203l389 272l-315 273l14 24l332 -285l-2 -24l-407 -285z" />
<glyph unicode="&#xbc;" horiz-adv-x="1374" d="M-90 0l1315 1475h32l-1312 -1475h-35zM121 584l115 852l-62 -39l4 33l96 59l-118 -905h-35zM637 332l4 24l510 535h37l-72 -533h121l-4 -26h-121l-43 -332h-33l43 332h-442zM676 358h407l66 498z" />
<glyph unicode="&#xbd;" horiz-adv-x="1529" d="M-90 0l1315 1475h32l-1312 -1475h-35zM121 584l115 852l-62 -39l4 33l96 59l-118 -905h-35zM776 0l4 23q31 23 71 47t87 53q63 41 138 92t140.5 112.5t113.5 130t59 144.5q8 57 -5.5 106.5t-44 86t-76.5 57t-102 20.5q-53 0 -102 -19t-89 -54t-68 -83t-38 -104 q0 -4 -1 -8t-3 -16l-20 33l2 12q10 57 39.5 106t74.5 85t99.5 56.5t113.5 20.5q61 0 111.5 -22.5t84.5 -62.5t49.5 -94t6.5 -118q-10 -78 -57 -148.5t-112.5 -134t-140.5 -115.5t-140 -93q-41 -27 -77 -48.5t-63 -37.5h517l-5 -27h-567z" />
<glyph unicode="&#xbe;" horiz-adv-x="1638" d="M78 657l4 37q76 -94 194 -94q55 0 106.5 20.5t91.5 57.5t66.5 86t34.5 106q8 59 -6 108.5t-47 85.5t-80 56.5t-104 20.5l4 24q66 0 115 41t59 107q8 63 -27.5 105t-97.5 42q-66 0 -127 -55l6 35q55 45 129 45t117 -49.5t33 -122.5q-8 -53 -41 -95t-80 -63 q94 -23 145 -101t37 -184q-8 -63 -37.5 -117.5t-74.5 -93t-101.5 -61.5t-117.5 -23t-113.5 21.5t-87.5 60.5zM176 0l1315 1475h33l-1315 -1475h-33zM901 332l4 24l510 535h37l-72 -533h121l-4 -26h-121l-43 -332h-33l43 332h-442zM940 358h408l65 498z" />
<glyph unicode="&#xbf;" horiz-adv-x="905" d="M-6 -20q14 104 62 193t121 154.5t165 102.5t195 37q88 0 170 -33l26 209h37l-29 -250q-86 43 -194 43q-96 0 -183.5 -34.5t-155 -95t-113.5 -144.5t-58 -182t10.5 -182.5t74.5 -146t129 -96t173 -34.5q59 0 116.5 14t110.5 39l-4 -27q-53 -29 -113.5 -42t-123.5 -13 q-102 0 -184.5 37t-138.5 102.5t-81.5 154.5t-11.5 194zM752 795l24 172h37l-22 -172h-39z" />
<glyph unicode="&#xc0;" horiz-adv-x="1429" d="M-98 0l882 1475h58l489 -1475h-43l-184 547h-830l-327 -547h-45zM291 578h805l-289 860zM584 1950h39l229 -369h-35z" />
<glyph unicode="&#xc1;" horiz-adv-x="1429" d="M-98 0l882 1475h58l489 -1475h-43l-184 547h-830l-327 -547h-45zM291 578h805l-289 860zM811 1581l328 369h39l-330 -369h-37z" />
<glyph unicode="&#xc2;" horiz-adv-x="1429" d="M-98 0l882 1475h58l489 -1475h-43l-184 547h-830l-327 -547h-45zM291 578h805l-289 860zM528 1581l328 369h39l229 -369h-32l-220 348l-311 -348h-33z" />
<glyph unicode="&#xc3;" horiz-adv-x="1429" d="M-98 0l882 1475h58l489 -1475h-43l-184 547h-830l-327 -547h-45zM291 578h805l-289 860zM508 1567q4 27 12 51t24.5 43.5t43 32t67.5 12.5q49 0 94.5 -18.5t89.5 -40t88 -39t87 -17.5q47 0 78.5 25.5t42.5 87.5h24q-6 -53 -35.5 -96t-111.5 -43q-49 0 -94.5 17 t-89.5 38.5t-87 40t-88 18.5q-47 0 -78.5 -25.5t-39.5 -86.5h-27z" />
<glyph unicode="&#xc4;" horiz-adv-x="1429" d="M-98 0l882 1475h58l489 -1475h-43l-184 547h-830l-327 -547h-45zM291 578h805l-289 860zM627 1581l20 170h31l-23 -170h-28zM999 1581l23 170h29l-23 -170h-29z" />
<glyph unicode="&#xc5;" horiz-adv-x="1429" d="M-98 0l882 1475h58l489 -1475h-43l-184 547h-830l-327 -547h-45zM291 578h805l-289 860zM659 1749q6 39 26 72.5t48.5 59.5t65.5 40t75 14q39 0 71 -14t54.5 -40t33.5 -59.5t5 -72.5t-25.5 -73t-48 -58.5t-64.5 -38.5t-75 -14t-71.5 14t-55 38.5t-34 58.5t-5.5 73z M686 1749q-4 -33 4 -62.5t27.5 -51t47.5 -35t62 -13.5q33 0 66 13.5t58.5 35t42 51t20.5 62.5q8 68 -34 116t-110 48t-121 -48t-63 -116z" />
<glyph unicode="&#xc6;" horiz-adv-x="1835" d="M-98 0l1151 1475h772l-4 -33h-715l-92 -690h704l-4 -31h-704l-92 -690h735l-4 -31h-777l74 547h-569l-430 -547h-45zM397 578h553l113 854z" />
<glyph unicode="&#xc7;" horiz-adv-x="1486" d="M109 737q20 160 101 297t201.5 238.5t273.5 160t319 58.5q150 0 275.5 -45t219.5 -127l-10 -43q-92 84 -215 130t-270 46q-160 0 -305.5 -55.5t-260 -151.5t-190.5 -226t-96 -282t21.5 -282.5t130.5 -227t219 -152t290 -55.5q154 0 296 51.5t259 143.5l-2 -41 q-117 -88 -257 -138t-294 -52l-16 -117q10 2 18 3t19 1q55 0 87.5 -37t26.5 -92q-8 -55 -51 -92t-98 -37q-35 0 -68 16l4 25q18 -10 31.5 -14.5t30.5 -4.5q45 0 79.5 30t41.5 77q6 47 -21 76.5t-72 29.5q-14 0 -27.5 -2t-33.5 -12l20 150q-164 2 -297 61t-225 160.5 t-134 238t-21 293.5z" />
<glyph unicode="&#xc8;" horiz-adv-x="1034" d="M72 0l196 1475h758l-4 -33h-717l-92 -690h707l-5 -31h-706l-92 -690h737l-4 -31h-778zM528 1950h41l230 -369h-37z" />
<glyph unicode="&#xc9;" horiz-adv-x="1034" d="M72 0l196 1475h758l-4 -33h-717l-92 -690h707l-5 -31h-706l-92 -690h737l-4 -31h-778zM473 1581l328 369h41l-332 -369h-37z" />
<glyph unicode="&#xca;" horiz-adv-x="1034" d="M72 0l196 1475h758l-4 -33h-717l-92 -690h707l-5 -31h-706l-92 -690h737l-4 -31h-778zM365 1581l325 369h39l229 -369h-32l-219 348l-310 -348h-32z" />
<glyph unicode="&#xcb;" horiz-adv-x="1034" d="M72 0l196 1475h758l-4 -33h-717l-92 -690h707l-5 -31h-706l-92 -690h737l-4 -31h-778zM475 1581l23 170h28l-22 -170h-29zM848 1581l22 170h29l-22 -170h-29z" />
<glyph unicode="&#xcc;" horiz-adv-x="380" d="M53 1950h41l230 -369h-37zM72 0l196 1475h41l-196 -1475h-41z" />
<glyph unicode="&#xcd;" horiz-adv-x="380" d="M72 0l196 1475h41l-196 -1475h-41zM281 1581l327 369h41l-332 -369h-36z" />
<glyph unicode="&#xce;" horiz-adv-x="380" d="M4 1581l328 369h39l229 -369h-33l-219 348l-311 -348h-33zM72 0l196 1475h41l-196 -1475h-41z" />
<glyph unicode="&#xcf;" horiz-adv-x="380" d="M72 0l196 1475h41l-196 -1475h-41zM100 1581l23 170h31l-23 -170h-31zM473 1581l23 170h30l-22 -170h-31z" />
<glyph unicode="&#xd0;" horiz-adv-x="1587" d="M-57 723l4 29h225l96 723h533q166 0 299 -56.5t224 -156t132 -234.5t21 -291q-20 -154 -97 -289t-194 -234t-266.5 -156.5t-315.5 -57.5h-532l96 723h-225zM117 35h487q156 0 298 54t254 148.5t186 223.5t94 276t-20 275.5t-126 222.5t-214 148.5t-285 54.5h-488 l-90 -686h541l-4 -29h-541z" />
<glyph unicode="&#xd1;" horiz-adv-x="1671" d="M72 0l196 1475h45l1055 -1424l191 1424h40l-196 -1475h-45l-1057 1423l-188 -1423h-41zM629 1567q2 27 10 51t25.5 43.5t44 32t67.5 12.5q49 0 94 -18.5t89.5 -40t87.5 -39t88 -17.5q47 0 78.5 25.5t39.5 87.5h27q-4 -27 -11 -51.5t-24.5 -44t-44 -31.5t-67.5 -12 q-49 0 -94.5 17t-89.5 38.5t-87 40t-88 18.5q-47 0 -78.5 -25.5t-40.5 -86.5h-26z" />
<glyph unicode="&#xd2;" horiz-adv-x="1808" d="M109 737q20 160 101 297t201.5 238.5t273.5 160t319 58.5q168 0 305 -58.5t231 -160t136 -238.5t22 -297q-20 -158 -99 -296t-199 -239.5t-273.5 -159.5t-323.5 -58q-168 0 -305.5 58t-230.5 159.5t-136 240t-22 295.5zM152 737q-20 -152 20.5 -282.5t129.5 -227 t219 -152t288 -55.5q160 0 305.5 55.5t259 152t188.5 227t95 282.5t-20 283t-128 228.5t-219 152.5t-291 55q-158 0 -303 -55t-258.5 -152.5t-189.5 -228.5t-96 -283zM803 1950h41l229 -369h-37z" />
<glyph unicode="&#xd3;" horiz-adv-x="1808" d="M109 737q20 160 101 297t201.5 238.5t273.5 160t319 58.5q168 0 305 -58.5t231 -160t136 -238.5t22 -297q-20 -158 -99 -296t-199 -239.5t-273.5 -159.5t-323.5 -58q-168 0 -305.5 58t-230.5 159.5t-136 240t-22 295.5zM152 737q-20 -152 20.5 -282.5t129.5 -227 t219 -152t288 -55.5q160 0 305.5 55.5t259 152t188.5 227t95 282.5t-20 283t-128 228.5t-219 152.5t-291 55q-158 0 -303 -55t-258.5 -152.5t-189.5 -228.5t-96 -283zM963 1581l325 369h41l-332 -369h-34z" />
<glyph unicode="&#xd4;" horiz-adv-x="1808" d="M109 737q20 160 101 297t201.5 238.5t273.5 160t319 58.5q168 0 305 -58.5t231 -160t136 -238.5t22 -297q-20 -158 -99 -296t-199 -239.5t-273.5 -159.5t-323.5 -58q-168 0 -305.5 58t-230.5 159.5t-136 240t-22 295.5zM152 737q-20 -152 20.5 -282.5t129.5 -227 t219 -152t288 -55.5q160 0 305.5 55.5t259 152t188.5 227t95 282.5t-20 283t-128 228.5t-219 152.5t-291 55q-158 0 -303 -55t-258.5 -152.5t-189.5 -228.5t-96 -283zM719 1581l325 369h41l228 -369h-33l-219 348l-309 -348h-33z" />
<glyph unicode="&#xd5;" horiz-adv-x="1808" d="M109 737q20 160 101 297t201.5 238.5t273.5 160t319 58.5q168 0 305 -58.5t231 -160t136 -238.5t22 -297q-20 -158 -99 -296t-199 -239.5t-273.5 -159.5t-323.5 -58q-168 0 -305.5 58t-230.5 159.5t-136 240t-22 295.5zM152 737q-20 -152 20.5 -282.5t129.5 -227 t219 -152t288 -55.5q160 0 305.5 55.5t259 152t188.5 227t95 282.5t-20 283t-128 228.5t-219 152.5t-291 55q-158 0 -303 -55t-258.5 -152.5t-189.5 -228.5t-96 -283zM696 1567q4 27 12.5 51t25 43.5t44 32t68.5 12.5q47 0 92 -18.5t90 -40t88 -39t88 -17.5q47 0 78 25.5 t41 87.5h27q-4 -27 -12.5 -51.5t-25 -44t-43 -31.5t-67.5 -12q-49 0 -95 17t-90 38.5t-87 40t-88 18.5q-47 0 -78 -25.5t-41 -86.5h-27z" />
<glyph unicode="&#xd6;" horiz-adv-x="1808" d="M109 737q20 160 101 297t201.5 238.5t273.5 160t319 58.5q168 0 305 -58.5t231 -160t136 -238.5t22 -297q-20 -158 -99 -296t-199 -239.5t-273.5 -159.5t-323.5 -58q-168 0 -305.5 58t-230.5 159.5t-136 240t-22 295.5zM152 737q-20 -152 20.5 -282.5t129.5 -227 t219 -152t288 -55.5q160 0 305.5 55.5t259 152t188.5 227t95 282.5t-20 283t-128 228.5t-219 152.5t-291 55q-158 0 -303 -55t-258.5 -152.5t-189.5 -228.5t-96 -283zM815 1581l23 170h28l-22 -170h-29zM1188 1581l22 170h29l-22 -170h-29z" />
<glyph unicode="&#xd7;" horiz-adv-x="1441" d="M154 190l546 547l-546 547l20 21l547 -547l547 547l20 -21l-547 -547l547 -547l-20 -20l-547 547l-547 -547z" />
<glyph unicode="&#xd8;" horiz-adv-x="1806" d="M109 737q20 160 101 297t201.5 238.5t273.5 160t319 58.5q147 0 272 -45t217 -125l172 170l16 -18l-172 -168q111 -104 161.5 -249t27.5 -319q-23 -158 -100.5 -296t-197.5 -239.5t-273.5 -159.5t-323.5 -58q-143 0 -263 42t-212 117l-166 -161l-17 18l164 160 q-117 104 -170 252.5t-30 324.5zM150 737q-20 -152 20.5 -282.5t129.5 -227t219 -152t288 -55.5q160 0 305 55.5t260 152t190 227t95 282.5t-21 283t-129 228.5t-218 152.5t-290 55t-304 -55t-258.5 -152.5t-190.5 -228.5t-96 -283z" />
<glyph unicode="&#xd9;" horiz-adv-x="1556" d="M145 561l123 914h41l-123 -914q-16 -115 15.5 -214t98.5 -172t165 -115t217 -42q121 0 230.5 42t195.5 115t142.5 172t72.5 214l121 914h41l-121 -914q-16 -123 -73.5 -225.5t-147.5 -179.5q-94 -82 -213 -127t-252 -45q-135 0 -244.5 48t-181.5 134q-66 78 -94.5 178 t-12.5 217zM778 1950h39l230 -369h-35z" />
<glyph unicode="&#xda;" horiz-adv-x="1556" d="M145 561l123 914h41l-123 -914q-16 -115 15.5 -214t98.5 -172t165 -115t217 -42q121 0 230.5 42t195.5 115t142.5 172t72.5 214l121 914h41l-121 -914q-16 -123 -73.5 -225.5t-147.5 -179.5q-94 -82 -213 -127t-252 -45q-135 0 -244.5 48t-181.5 134q-66 78 -94.5 178 t-12.5 217zM733 1581l328 369h41l-332 -369h-37z" />
<glyph unicode="&#xdb;" horiz-adv-x="1556" d="M145 561l123 914h41l-123 -914q-16 -115 15.5 -214t98.5 -172t165 -115t217 -42q121 0 230.5 42t195.5 115t142.5 172t72.5 214l121 914h41l-121 -914q-16 -123 -73.5 -225.5t-147.5 -179.5q-94 -82 -213 -127t-252 -45q-135 0 -244.5 48t-181.5 134q-66 78 -94.5 178 t-12.5 217zM592 1581l328 369h38l230 -369h-33l-219 348l-311 -348h-33z" />
<glyph unicode="&#xdc;" horiz-adv-x="1556" d="M145 561l123 914h41l-123 -914q-16 -115 15.5 -214t98.5 -172t165 -115t217 -42q121 0 230.5 42t195.5 115t142.5 172t72.5 214l121 914h41l-121 -914q-16 -123 -73.5 -225.5t-147.5 -179.5q-94 -82 -213 -127t-252 -45q-135 0 -244.5 48t-181.5 134q-66 78 -94.5 178 t-12.5 217zM690 1581l21 170h30l-22 -170h-29zM1063 1581l22 170h29l-22 -170h-29z" />
<glyph unicode="&#xdd;" horiz-adv-x="1157" d="M98 1475h49l445 -631l614 631h49l-647 -666l-106 -809h-41l106 809zM670 1581l327 369h41l-331 -369h-37z" />
<glyph unicode="&#xde;" horiz-adv-x="1038" d="M72 0l196 1475h41l-49 -359h293q104 0 189 -29.5t143.5 -81t86 -120t17.5 -148.5t-56 -149.5t-119 -120.5t-165 -80t-196 -29h-146h-101t-46 2l-47 -360h-41zM164 389h287q98 0 184 27.5t152.5 75t108.5 110.5t52 135q8 72 -17.5 135.5t-78.5 110.5t-132 74.5t-177 27.5 h-287z" />
<glyph unicode="&#xdf;" horiz-adv-x="1064" d="M70 0l145 1104q10 82 50 153.5t99.5 124t134 82t156.5 29.5t148.5 -29.5t112 -81t65.5 -122t10 -152.5q-10 -68 -38.5 -128t-71.5 -108.5t-100.5 -83t-121.5 -49.5q133 -29 207 -130t56 -242q-12 -82 -52.5 -152t-101.5 -121t-140 -80.5t-165 -29.5t-155.5 29.5 t-119.5 82.5l7 41q43 -55 112.5 -88t155.5 -33q80 0 151.5 28t128 75t93 112.5t47.5 139.5q10 74 -10.5 138t-65.5 112.5t-109.5 75t-142.5 26.5l4 31q74 0 141.5 26.5t120.5 74.5t88 112.5t45 140.5q10 74 -8 138.5t-60 112.5t-101.5 74.5t-133.5 26.5t-140.5 -27.5 t-119.5 -74.5t-89 -111.5t-46 -140.5l-147 -1106h-39z" />
<glyph unicode="&#xe0;" horiz-adv-x="1114" d="M72 453q14 111 66 205t131 162.5t180.5 107.5t216.5 39q143 0 301 -60l-119 -907h-41l24 184q-115 -106 -211 -153t-204 -47q-88 0 -158 34.5t-116 97t-65.5 148.5t-4.5 189zM111 455q-12 -98 5 -178t59 -138.5t106.5 -90.5t146.5 -32q102 0 197.5 49.5t212.5 161.5 l88 658q-72 27 -133.5 38t-124.5 11q-106 0 -201.5 -36t-169.5 -99.5t-123 -151.5t-63 -192zM487 1458h41l230 -368h-37z" />
<glyph unicode="&#xe1;" horiz-adv-x="1114" d="M72 453q14 111 66 205t131 162.5t180.5 107.5t216.5 39q143 0 301 -60l-119 -907h-41l24 184q-115 -106 -211 -153t-204 -47q-88 0 -158 34.5t-116 97t-65.5 148.5t-4.5 189zM111 455q-12 -98 5 -178t59 -138.5t106.5 -90.5t146.5 -32q102 0 197.5 49.5t212.5 161.5 l88 658q-72 27 -133.5 38t-124.5 11q-106 0 -201.5 -36t-169.5 -99.5t-123 -151.5t-63 -192zM588 1090l327 368h39l-329 -368h-37z" />
<glyph unicode="&#xe2;" horiz-adv-x="1114" d="M72 453q14 111 66 205t131 162.5t180.5 107.5t216.5 39q143 0 301 -60l-119 -907h-41l24 184q-115 -106 -211 -153t-204 -47q-88 0 -158 34.5t-116 97t-65.5 148.5t-4.5 189zM111 455q-12 -98 5 -178t59 -138.5t106.5 -90.5t146.5 -32q102 0 197.5 49.5t212.5 161.5 l88 658q-72 27 -133.5 38t-124.5 11q-106 0 -201.5 -36t-169.5 -99.5t-123 -151.5t-63 -192zM379 1092l328 366h38l230 -366h-35l-217 346l-311 -346h-33z" />
<glyph unicode="&#xe3;" horiz-adv-x="1114" d="M72 453q14 111 66 205t131 162.5t180.5 107.5t216.5 39q143 0 301 -60l-119 -907h-41l24 184q-115 -106 -211 -153t-204 -47q-88 0 -158 34.5t-116 97t-65.5 148.5t-4.5 189zM111 455q-12 -98 5 -178t59 -138.5t106.5 -90.5t146.5 -32q102 0 197.5 49.5t212.5 161.5 l88 658q-72 27 -133.5 38t-124.5 11q-106 0 -201.5 -36t-169.5 -99.5t-123 -151.5t-63 -192zM291 1077q4 25 12 49.5t24.5 44t43 31.5t67.5 12q49 0 94.5 -18t90.5 -39.5t88 -39t88 -17.5q47 0 77.5 25.5t41.5 86.5h26q-4 -25 -12 -49t-24.5 -43.5t-44 -32t-68.5 -12.5 q-49 0 -94.5 17.5t-89.5 39t-87 39t-88 17.5q-47 0 -77.5 -24.5t-41.5 -86.5h-26z" />
<glyph unicode="&#xe4;" horiz-adv-x="1114" d="M72 453q14 111 66 205t131 162.5t180.5 107.5t216.5 39q143 0 301 -60l-119 -907h-41l24 184q-115 -106 -211 -153t-204 -47q-88 0 -158 34.5t-116 97t-65.5 148.5t-4.5 189zM111 455q-12 -98 5 -178t59 -138.5t106.5 -90.5t146.5 -32q102 0 197.5 49.5t212.5 161.5 l88 658q-72 27 -133.5 38t-124.5 11q-106 0 -201.5 -36t-169.5 -99.5t-123 -151.5t-63 -192zM479 1092l23 168h28l-22 -168h-29zM852 1092l22 168h29l-22 -168h-29z" />
<glyph unicode="&#xe5;" horiz-adv-x="1114" d="M72 453q14 111 66 205t131 162.5t180.5 107.5t216.5 39q143 0 301 -60l-119 -907h-41l24 184q-115 -106 -211 -153t-204 -47q-88 0 -158 34.5t-116 97t-65.5 148.5t-4.5 189zM111 455q-12 -98 5 -178t59 -138.5t106.5 -90.5t146.5 -32q102 0 197.5 49.5t212.5 161.5 l88 658q-72 27 -133.5 38t-124.5 11q-106 0 -201.5 -36t-169.5 -99.5t-123 -151.5t-63 -192zM518 1260q4 39 23.5 72.5t48 58t65.5 39t76 14.5q78 0 127 -53t39 -131q-6 -39 -25.5 -73t-48 -59.5t-65.5 -40t-76 -14.5q-78 0 -126 54.5t-38 132.5zM543 1260 q-10 -68 31.5 -115t111.5 -47q68 0 121 47t63 115t-31.5 114.5t-109.5 46.5q-70 0 -123 -47t-63 -114z" />
<glyph unicode="&#xe6;" horiz-adv-x="1865" d="M72 453q14 111 66 205t131 162.5t180.5 107.5t216.5 39q137 0 288 -60l-34 -266q31 72 77.5 132.5t105 103.5t126 66.5t141.5 23.5q86 0 155.5 -32t118 -88t75 -134t26.5 -172v-17h-825q-4 -12 -6.5 -25.5t-4.5 -27.5q-12 -98 11.5 -182t75 -145.5t128 -96.5t172.5 -35 q98 0 188.5 36t162.5 102l-9 -35q-74 -61 -164 -96t-188 -35q-82 0 -150.5 24.5t-121.5 67.5t-89 104.5t-48 134.5l-41 -315h-29l24 184q-115 -106 -211 -153t-204 -47q-88 0 -158 34.5t-116 97t-65.5 148.5t-4.5 189zM111 455q-12 -98 5 -178t59 -138.5t106.5 -90.5 t146.5 -32q102 0 197.5 49.5t212.5 161.5l88 658q-72 27 -133.5 38t-124.5 11q-106 0 -201.5 -36t-169.5 -99.5t-123 -151.5t-63 -192zM924 553h788q0 84 -25.5 154.5t-70.5 122t-108.5 80t-139.5 28.5t-146.5 -28.5t-129 -80t-102.5 -122t-66 -154.5z" />
<glyph unicode="&#xe7;" horiz-adv-x="866" d="M74 475q14 104 62 194.5t122 157t167 103.5t196 37q115 0 202 -41l-4 -37q-43 20 -93 31.5t-103 11.5q-96 0 -182.5 -35t-154 -96.5t-113.5 -144.5t-58 -181t10 -182t74.5 -145.5t129.5 -96.5t171 -35q59 0 117.5 14.5t111.5 39.5l-6 -35q-51 -25 -106.5 -37t-112.5 -14 l-17 -117q20 4 37 4q55 0 88 -37t25 -92q-6 -55 -49 -92t-101 -37q-33 0 -65 16l2 25q18 -10 32.5 -14.5t30.5 -4.5q45 0 80 30t41 77t-20.5 76.5t-73.5 29.5q-12 0 -26.5 -2t-34.5 -12l22 150q-100 2 -180 40.5t-134.5 104.5t-78 155t-8.5 191z" />
<glyph unicode="&#xe8;" horiz-adv-x="1075" d="M74 475q14 104 59 194.5t112.5 157t152.5 103.5t177 37q86 0 157 -32t120 -88t74.5 -135t23.5 -171v-17h-825q-4 -12 -6 -25.5t-4 -27.5q-12 -98 11.5 -182t74.5 -145.5t128 -96.5t173 -35q98 0 188 36t162 102l-6 -35q-74 -61 -165 -96t-189 -35q-102 0 -186.5 36.5 t-140.5 102t-81 156t-10 196.5zM129 553h789q0 84 -25 154.5t-70 122t-108.5 80t-139.5 28.5t-146.5 -28.5t-129.5 -80t-103 -122t-67 -154.5zM385 1458h41l229 -368h-37z" />
<glyph unicode="&#xe9;" horiz-adv-x="1075" d="M74 475q14 104 59 194.5t112.5 157t152.5 103.5t177 37q86 0 157 -32t120 -88t74.5 -135t23.5 -171v-17h-825q-4 -12 -6 -25.5t-4 -27.5q-12 -98 11.5 -182t74.5 -145.5t128 -96.5t173 -35q98 0 188 36t162 102l-6 -35q-74 -61 -165 -96t-189 -35q-102 0 -186.5 36.5 t-140.5 102t-81 156t-10 196.5zM129 553h789q0 84 -25 154.5t-70 122t-108.5 80t-139.5 28.5t-146.5 -28.5t-129.5 -80t-103 -122t-67 -154.5zM522 1090l326 368h41l-332 -368h-35z" />
<glyph unicode="&#xea;" horiz-adv-x="1075" d="M74 475q14 104 59 194.5t112.5 157t152.5 103.5t177 37q86 0 157 -32t120 -88t74.5 -135t23.5 -171v-17h-825q-4 -12 -6 -25.5t-4 -27.5q-12 -98 11.5 -182t74.5 -145.5t128 -96.5t173 -35q98 0 188 36t162 102l-6 -35q-74 -61 -165 -96t-189 -35q-102 0 -186.5 36.5 t-140.5 102t-81 156t-10 196.5zM129 553h789q0 84 -25 154.5t-70 122t-108.5 80t-139.5 28.5t-146.5 -28.5t-129.5 -80t-103 -122t-67 -154.5zM287 1092l327 366h39l230 -366h-33l-219 346l-312 -346h-32z" />
<glyph unicode="&#xeb;" horiz-adv-x="1075" d="M74 475q14 104 59 194.5t112.5 157t152.5 103.5t177 37q86 0 157 -32t120 -88t74.5 -135t23.5 -171v-17h-825q-4 -12 -6 -25.5t-4 -27.5q-12 -98 11.5 -182t74.5 -145.5t128 -96.5t173 -35q98 0 188 36t162 102l-6 -35q-74 -61 -165 -96t-189 -35q-102 0 -186.5 36.5 t-140.5 102t-81 156t-10 196.5zM129 553h789q0 84 -25 154.5t-70 122t-108.5 80t-139.5 28.5t-146.5 -28.5t-129.5 -80t-103 -122t-67 -154.5zM383 1092l23 168h30l-22 -168h-31zM756 1092l22 168h31l-23 -168h-30z" />
<glyph unicode="&#xec;" horiz-adv-x="378" d="M-12 1458h39l229 -368h-35zM72 0l127 950h39l-127 -950h-39z" />
<glyph unicode="&#xed;" horiz-adv-x="378" d="M72 0l127 950h39l-127 -950h-39zM217 1090l326 368h41l-332 -368h-35z" />
<glyph unicode="&#xee;" horiz-adv-x="378" d="M-61 1092l327 366h39l230 -366h-35l-217 346l-312 -346h-32zM72 0l127 950h39l-127 -950h-39z" />
<glyph unicode="&#xef;" horiz-adv-x="378" d="M35 1092l22 168h29l-23 -168h-28zM72 0l127 950h39l-127 -950h-39zM408 1092l22 168h29l-21 -168h-30z" />
<glyph unicode="&#xf0;" horiz-adv-x="1181" d="M74 475q14 104 62 193.5t121 156t165 103.5t194 37q147 0 252 -77t140 -206q-10 193 -86 352.5t-205 280.5l-338 -152l-8 21l325 147q-47 43 -101 79t-114 65l21 22q129 -61 231 -151l334 151l8 -22l-323 -146q166 -156 243.5 -374t42.5 -478q-14 -106 -63 -196.5 t-123 -157t-167.5 -103t-195.5 -36.5t-185 36.5t-139 103t-81 157t-10 194.5zM113 473q-12 -98 10 -181t73.5 -144.5t128 -96.5t171.5 -35q94 0 180 35t153.5 96.5t112.5 144.5t57 181t-10 182t-73.5 145.5t-128 96.5t-171.5 35q-94 0 -180 -35t-153.5 -96.5t-112.5 -145.5 t-57 -182z" />
<glyph unicode="&#xf1;" horiz-adv-x="1056" d="M72 0l127 950h39l-27 -188q59 92 149.5 148.5t198.5 56.5q76 0 137.5 -29t103.5 -81t60.5 -123.5t5.5 -155.5l-78 -578h-38l75 573q10 78 -6 143.5t-54 114t-94.5 76t-125.5 27.5q-111 0 -202 -64.5t-138 -171.5l-94 -698h-39zM256 1077q4 25 12 49.5t24.5 44t43 31.5 t67.5 12q49 0 94.5 -18t89.5 -39.5t88 -39t87 -17.5q47 0 78.5 25.5t40.5 86.5h26q-6 -51 -35.5 -94t-111.5 -43q-49 0 -94 17.5t-89.5 39t-87.5 39t-88 17.5q-47 0 -78.5 -24.5t-39.5 -86.5h-27z" />
<glyph unicode="&#xf2;" d="M74 475q14 106 63 196.5t123 156t167 102.5t196 37q102 0 185 -37t138 -102.5t80.5 -156t11.5 -196.5t-62 -196.5t-122 -156t-167 -102t-195 -36.5t-186.5 36.5t-139.5 102t-81 156t-11 196.5zM113 475q-12 -98 10 -182t73.5 -145.5t128 -96.5t171.5 -35q94 0 180 35 t153.5 96.5t113.5 145.5t58 182t-10 182t-73.5 145.5t-128 96.5t-171.5 35q-96 0 -182 -35t-153.5 -96.5t-112.5 -145.5t-57 -182zM444 1458h41l230 -368h-37z" />
<glyph unicode="&#xf3;" d="M74 475q14 106 63 196.5t123 156t167 102.5t196 37q102 0 185 -37t138 -102.5t80.5 -156t11.5 -196.5t-62 -196.5t-122 -156t-167 -102t-195 -36.5t-186.5 36.5t-139.5 102t-81 156t-11 196.5zM113 475q-12 -98 10 -182t73.5 -145.5t128 -96.5t171.5 -35q94 0 180 35 t153.5 96.5t113.5 145.5t58 182t-10 182t-73.5 145.5t-128 96.5t-171.5 35q-96 0 -182 -35t-153.5 -96.5t-112.5 -145.5t-57 -182zM565 1090l326 368h41l-332 -368h-35z" />
<glyph unicode="&#xf4;" d="M74 475q14 106 63 196.5t123 156t167 102.5t196 37q102 0 185 -37t138 -102.5t80.5 -156t11.5 -196.5t-62 -196.5t-122 -156t-167 -102t-195 -36.5t-186.5 36.5t-139.5 102t-81 156t-11 196.5zM113 475q-12 -98 10 -182t73.5 -145.5t128 -96.5t171.5 -35q94 0 180 35 t153.5 96.5t113.5 145.5t58 182t-10 182t-73.5 145.5t-128 96.5t-171.5 35q-96 0 -182 -35t-153.5 -96.5t-112.5 -145.5t-57 -182zM340 1092l328 366h39l229 -366h-33l-219 346l-311 -346h-33z" />
<glyph unicode="&#xf5;" d="M74 475q14 106 63 196.5t123 156t167 102.5t196 37q102 0 185 -37t138 -102.5t80.5 -156t11.5 -196.5t-62 -196.5t-122 -156t-167 -102t-195 -36.5t-186.5 36.5t-139.5 102t-81 156t-11 196.5zM113 475q-12 -98 10 -182t73.5 -145.5t128 -96.5t171.5 -35q94 0 180 35 t153.5 96.5t113.5 145.5t58 182t-10 182t-73.5 145.5t-128 96.5t-171.5 35q-96 0 -182 -35t-153.5 -96.5t-112.5 -145.5t-57 -182zM319 1077q4 25 12.5 49.5t25 44t43 31.5t67.5 12q49 0 94 -18t89 -39.5t88 -39t87 -17.5q47 0 79 25.5t40 86.5h27q-6 -51 -36 -94t-112 -43 q-49 0 -94 17.5t-89 39t-87 39t-88 17.5q-47 0 -79 -24.5t-40 -86.5h-27z" />
<glyph unicode="&#xf6;" d="M74 475q14 106 63 196.5t123 156t167 102.5t196 37q102 0 185 -37t138 -102.5t80.5 -156t11.5 -196.5t-62 -196.5t-122 -156t-167 -102t-195 -36.5t-186.5 36.5t-139.5 102t-81 156t-11 196.5zM113 475q-12 -98 10 -182t73.5 -145.5t128 -96.5t171.5 -35q94 0 180 35 t153.5 96.5t113.5 145.5t58 182t-10 182t-73.5 145.5t-128 96.5t-171.5 35q-96 0 -182 -35t-153.5 -96.5t-112.5 -145.5t-57 -182zM436 1092l23 168h30l-22 -168h-31zM811 1092l23 168h28l-22 -168h-29z" />
<glyph unicode="&#xf7;" horiz-adv-x="1441" d="M152 723v29h1138v-29h-1138zM686 367q0 14 9.5 24t25.5 10t26.5 -10t10.5 -24q0 -16 -10.5 -26.5t-26.5 -10.5t-25.5 10t-9.5 27zM686 1108q0 16 9.5 26.5t25.5 10.5t26.5 -10.5t10.5 -26.5q0 -14 -10.5 -24.5t-26.5 -10.5t-25.5 10.5t-9.5 24.5z" />
<glyph unicode="&#xf8;" horiz-adv-x="1181" d="M37 2l127 123q-55 66 -80 156t-10 194q14 106 62 196.5t122 156t167 102.5t196 37q90 0 164.5 -28t129.5 -79l111 109l18 -21l-110 -106q63 -68 90.5 -162t13.5 -205q-14 -106 -62 -196.5t-122 -156t-167 -102t-195 -36.5q-98 0 -176 31.5t-134 88.5l-125 -122zM113 475 q-12 -98 10 -182t73.5 -145.5t127 -96.5t172.5 -35q94 0 180 35t153.5 96.5t112.5 145.5t57 182t-10 182t-73.5 145.5t-128 96.5t-171.5 35q-94 0 -180 -35t-153.5 -96.5t-112.5 -145.5t-57 -182z" />
<glyph unicode="&#xf9;" horiz-adv-x="1056" d="M121 373l78 577h39l-78 -573q-10 -78 6 -143.5t54 -113.5t94.5 -76t125.5 -28q111 0 203 64.5t139 171.5l92 698h41l-127 -950h-38l24 188q-57 -92 -148 -148t-198 -56q-76 0 -138.5 28.5t-103.5 80.5t-59 124t-6 156zM461 1458h41l227 -368h-35z" />
<glyph unicode="&#xfa;" horiz-adv-x="1056" d="M121 373l78 577h39l-78 -573q-10 -78 6 -143.5t54 -113.5t94.5 -76t125.5 -28q111 0 203 64.5t139 171.5l92 698h41l-127 -950h-38l24 188q-57 -92 -148 -148t-198 -56q-76 0 -138.5 28.5t-103.5 80.5t-59 124t-6 156zM420 1090l325 368h41l-331 -368h-35z" />
<glyph unicode="&#xfb;" horiz-adv-x="1056" d="M121 373l78 577h39l-78 -573q-10 -78 6 -143.5t54 -113.5t94.5 -76t125.5 -28q111 0 203 64.5t139 171.5l92 698h41l-127 -950h-38l24 188q-57 -92 -148 -148t-198 -56q-76 0 -138.5 28.5t-103.5 80.5t-59 124t-6 156zM276 1092l328 366h39l229 -366h-32l-219 346 l-312 -346h-33z" />
<glyph unicode="&#xfc;" horiz-adv-x="1056" d="M121 373l78 577h39l-78 -573q-10 -78 6 -143.5t54 -113.5t94.5 -76t125.5 -28q111 0 203 64.5t139 171.5l92 698h41l-127 -950h-38l24 188q-57 -92 -148 -148t-198 -56q-76 0 -138.5 28.5t-103.5 80.5t-59 124t-6 156zM373 1092l22 168h31l-23 -168h-30zM748 1092l22 168 h29l-23 -168h-28z" />
<glyph unicode="&#xfd;" horiz-adv-x="866" d="M-106 -492l442 664l-307 778h43l293 -731l487 731h43l-958 -1442h-43zM463 1090l325 368h41l-331 -368h-35z" />
<glyph unicode="&#xfe;" horiz-adv-x="1114" d="M6 -492l262 1967h39l-74 -557q78 25 144.5 37t132.5 12q113 0 204 -39t152.5 -107.5t88 -162.5t12.5 -205q-14 -102 -55.5 -188.5t-104 -149t-142 -97t-167.5 -34.5q-106 0 -191.5 47t-171.5 153l-90 -676h-39zM141 227q88 -113 169 -162t186 -49q80 0 152.5 32t131 90.5 t97.5 138.5t51 178q14 104 -11.5 192t-83 151.5t-142.5 99.5t-191 36q-63 0 -128 -11.5t-143 -37.5z" />
<glyph unicode="&#xff;" horiz-adv-x="866" d="M-106 -492l442 664l-307 778h43l293 -731l487 731h43l-958 -1442h-43zM279 1092l22 168h29l-23 -168h-28zM651 1092l23 168h28l-22 -168h-29z" />
<glyph unicode="&#x152;" horiz-adv-x="1914" d="M168 737q20 156 97 291t195 234.5t266 156t314 56.5h867l-4 -33h-719l-90 -690h706l-4 -31h-706l-93 -690h738l-4 -31h-885q-166 0 -300 57.5t-225.5 156.5t-132.5 234.5t-20 288.5zM209 737q-18 -147 20.5 -276t125.5 -223.5t214 -148.5t285 -54h102l187 1403h-103 q-158 0 -300 -54.5t-253.5 -148.5t-184.5 -222t-93 -276z" />
<glyph unicode="&#x153;" horiz-adv-x="1996" d="M74 475q14 106 63 196.5t123 156t167 102.5t196 37q86 0 158.5 -28t127 -77t87 -116.5t40.5 -149.5q27 82 74 149.5t107.5 116.5t133 77t150.5 28q86 0 155.5 -32t119 -88t75 -134t25.5 -172v-17h-825q-4 -12 -5.5 -25.5t-5.5 -27.5q-12 -98 11.5 -182t76 -145.5 t129 -96.5t170.5 -35q98 0 188.5 36t162.5 102l-6 -35q-74 -61 -165 -96t-190 -35q-86 0 -159.5 27.5t-127 76.5t-87 117.5t-39.5 150.5q-29 -82 -80.5 -150.5t-118 -117.5t-147 -76.5t-166.5 -27.5q-102 0 -186.5 36.5t-139.5 102t-81 156t-11 196.5zM113 475 q-12 -98 10 -182t73.5 -145.5t128 -96.5t171.5 -35q94 0 180 35t153.5 96.5t113.5 145.5t58 182t-10 182t-73.5 145.5t-128 96.5t-171.5 35q-96 0 -182 -35t-153.5 -96.5t-112.5 -145.5t-57 -182zM1057 553h786q0 84 -24.5 154.5t-69.5 122t-108.5 80t-139.5 28.5 t-146.5 -28.5t-130 -80t-103.5 -122t-64 -154.5z" />
<glyph unicode="&#x178;" horiz-adv-x="1157" d="M98 1475h49l445 -631l614 631h49l-647 -666l-106 -809h-41l106 809zM489 1581l23 170h29l-23 -170h-29zM862 1581l23 170h28l-22 -170h-29z" />
<glyph unicode="&#x2c6;" horiz-adv-x="0" d="M340 1092l328 366h39l229 -366h-33l-219 346l-311 -346h-33z" />
<glyph unicode="&#x2dc;" horiz-adv-x="0" d="M319 1075q2 27 10.5 51.5t26 44t44 31.5t67.5 12q49 0 94 -18t89 -39.5t88 -39t87 -17.5q47 0 79 25.5t40 86.5h27q-6 -53 -36 -96t-112 -43q-49 0 -94 17.5t-89 39t-87 40t-88 18.5q-47 0 -79 -25.5t-40 -87.5h-27z" />
<glyph unicode="&#x2000;" horiz-adv-x="975" />
<glyph unicode="&#x2001;" horiz-adv-x="1950" />
<glyph unicode="&#x2002;" horiz-adv-x="975" />
<glyph unicode="&#x2003;" horiz-adv-x="1950" />
<glyph unicode="&#x2004;" horiz-adv-x="650" />
<glyph unicode="&#x2005;" horiz-adv-x="487" />
<glyph unicode="&#x2006;" horiz-adv-x="325" />
<glyph unicode="&#x2007;" horiz-adv-x="325" />
<glyph unicode="&#x2008;" horiz-adv-x="243" />
<glyph unicode="&#x2009;" horiz-adv-x="390" />
<glyph unicode="&#x200a;" horiz-adv-x="108" />
<glyph unicode="&#x2010;" horiz-adv-x="870" d="M47 444l4 31h699l-7 -31h-696z" />
<glyph unicode="&#x2011;" horiz-adv-x="870" d="M47 444l4 31h699l-7 -31h-696z" />
<glyph unicode="&#x2012;" horiz-adv-x="870" d="M47 444l4 31h699l-7 -31h-696z" />
<glyph unicode="&#x2013;" horiz-adv-x="1302" d="M59 526l4 33h1129l-6 -33h-1127z" />
<glyph unicode="&#x2014;" horiz-adv-x="2361" d="M59 526l4 33h2188l-4 -33h-2188z" />
<glyph unicode="&#x2018;" horiz-adv-x="212" d="M145 1176l23 176l51 123h27l-45 -123h6l-23 -176h-39z" />
<glyph unicode="&#x2019;" horiz-adv-x="212" d="M127 1176l47 122h-8l24 177h37l-22 -177l-51 -122h-27z" />
<glyph unicode="&#x201a;" horiz-adv-x="212" d="M-51 -123l47 123h-6l22 176h39l-24 -176l-52 -123h-26z" />
<glyph unicode="&#x201c;" horiz-adv-x="444" d="M145 1176l23 176l51 123h27l-45 -123h6l-23 -176h-39zM377 1176l22 176l52 123h26l-45 -123h6l-22 -176h-39z" />
<glyph unicode="&#x201d;" horiz-adv-x="444" d="M127 1176l47 122h-8l24 177h37l-22 -177l-51 -122h-27zM358 1176l48 122h-9l25 177h39l-25 -177l-51 -122h-27z" />
<glyph unicode="&#x201e;" horiz-adv-x="444" d="M-51 -123l47 123h-6l22 176h39l-24 -176l-52 -123h-26zM182 -123l45 123h-6l23 176h39l-23 -176l-51 -123h-27z" />
<glyph unicode="&#x2022;" horiz-adv-x="296" d="M109 737q0 16 12 27.5t29 11.5q16 0 27 -11.5t11 -27.5t-11 -28.5t-27 -12.5t-28.5 12.5t-12.5 28.5z" />
<glyph unicode="&#x2026;" horiz-adv-x="1538" d="M-10 0l22 176h39l-24 -176h-37zM651 0l23 176h39l-23 -176h-39zM1313 0l24 176h39l-24 -176h-39z" />
<glyph unicode="&#x202f;" horiz-adv-x="390" />
<glyph unicode="&#x2039;" horiz-adv-x="552" d="M49 463l4 24l408 285l8 -24l-389 -273l317 -272l-16 -25z" />
<glyph unicode="&#x203a;" horiz-adv-x="552" d="M14 203l389 272l-315 273l14 24l332 -285l-2 -24l-407 -285z" />
<glyph unicode="&#x205f;" horiz-adv-x="487" />
<glyph unicode="&#x2122;" horiz-adv-x="1902" d="M86 1444v31h737v-31h-352v-862h-33v862h-352zM907 582v893h35l379 -471l379 471h35v-893h-33v850l-377 -469h-8l-377 469v-850h-33z" />
<glyph unicode="&#x25fc;" horiz-adv-x="952" d="M0 0v952h952v-952h-952z" />
<glyph unicode="&#xfb01;" horiz-adv-x="819" d="M49 920l4 30h189l30 232q8 68 39 124t76 98t103.5 65.5t123.5 23.5q88 0 156 -45l-4 -39q-66 49 -152 49q-55 0 -107 -21.5t-93 -58.5t-68 -88t-35 -110l-28 -230h395l-127 -950h-39l123 920h-356l-123 -920h-41l123 920h-189z" />
<glyph unicode="&#xfb02;" horiz-adv-x="819" d="M49 920l4 30h189l30 232q8 68 39 124t76 98t103.5 65.5t123.5 23.5q35 0 69 -6t65 -10l-197 -1477h-39l190 1444q-20 6 -41.5 10t-46.5 4q-55 0 -107 -21.5t-93 -58.5t-68 -88t-35 -110l-28 -230h161l-4 -30h-161l-123 -920h-41l123 920h-189z" />
</font>
</defs>
</svg>
