<?xml version="1.0" encoding="utf-8"?>
<!-- Generator: Adobe Illustrator 19.0.0, SVG Export Plug-In . SVG Version: 6.00 Build 0)  -->
<svg version="1.1" xmlns="http://www.w3.org/2000/svg" xmlns:xlink="http://www.w3.org/1999/xlink" x="0px" y="0px" width="439px"
	 height="234px" viewBox="0 0 439 234" style="enable-background:new 0 0 439 234;" xml:space="preserve">
<style type="text/css">
	.st0{fill:#454656;stroke:#FFFFFF;stroke-width:2;stroke-miterlimit:5;}
</style>
<g id="text">
</g>
<g id="Layer_1">
</g>
<g id="Layer_3">
	<g id="XMLID_4_">
		<polygon id="XMLID_30_" class="st0" points="254.17285,150.41797 284.73535,150.41797 284.73535,140.03516 264.55664,140.03516 
			264.55664,108.05664 276.23926,108.05664 276.23926,97.67236 264.55664,97.67236 264.55664,68.40869 284.73535,68.40869 
			284.73535,58.02441 254.17285,58.02441 		"/>
		<path id="XMLID_44_" class="st0" d="M328.22656,62.8877c-1.61328-1.53418-3.50098-2.73291-5.66406-3.59912
			c-2.16504-0.86475-4.50391-1.29834-7.02051-1.29834c-2.43945,0-4.74121,0.354-6.90332,1.06201
			c-2.16504,0.70801-4.07129,1.81055-5.72363,3.3042c-1.65137,1.49512-2.94922,3.36279-3.89355,5.60498
			s-1.41602,4.89697-1.41602,7.96484v59.7085c0,2.83203,0.47168,5.36914,1.41602,7.61133
			c0.94434,2.24121,2.24219,4.12891,3.89355,5.66406c1.65234,1.5332,3.55859,2.69531,5.72363,3.48047
			c2.16211,0.78516,4.46387,1.17969,6.90332,1.17969c2.5166,0,4.85547-0.39453,7.02051-1.17969
			c2.16309-0.78516,4.05078-1.94727,5.66406-3.48047c1.61133-1.53516,2.89063-3.42285,3.83496-5.66406
			c0.94434-2.24219,1.41602-4.7793,1.41602-7.61133v-4.60254l-10.38379,3.42285v1.17969c0,2.12305-0.74902,3.91406-2.24219,5.36914
			c-1.49512,1.45605-3.26563,2.18262-5.30957,2.18262c-2.12402,0-3.91504-0.72656-5.36914-2.18262
			c-1.45703-1.45508-2.18359-3.24609-2.18359-6.36914v-59.7085c0-1.5957,0.72656-3.50244,2.18359-4.72266
			c1.4541-1.21875,3.24512-1.8291,5.36914-1.8291c2.04395,0,3.81445,0.61035,5.30957,1.8291
			c1.49316,1.22021,2.24219,3.12695,2.24219,5.72266v3.06836h10.38379v-3.06836c0-2.67334-0.47168-5.13281-1.41602-7.375
			C331.11719,66.30957,329.83789,64.42139,328.22656,62.8877z"/>
		<polygon id="XMLID_49_" class="st0" points="371.54492,98.38037 356.44141,98.38037 356.44141,58.02441 346.05762,58.02441 
			346.05762,150.41797 356.44141,150.41797 356.44141,108.76465 371.54492,108.76465 371.54492,150.41797 381.92969,150.41797 
			381.92969,58.02441 371.54492,58.02441 		"/>
		<path id="XMLID_52_" class="st0" d="M162.59424,17.16663C161.8244,17.06793,161.04553,17,160.25,17
			s-1.5744,0.06793-2.34424,0.16663H51.24518v17.01001V34.5v1.84668V52.75v137.09668H22.55969l28.68549,27.42999l38.10547-0.16003
			v-88.67896h30.94623l39.35999,88.62l0.26001,0.78998l40-0.85999l-6.21997-15.15997v0.01001l-0.26001,0.10999l-32.66003-73.51001
			h0.07001v-0.15076c9.89935-0.32062,17.90314-8.49597,17.90314-18.46954V52.75h32.5v164.07001h36V52.75h142.83588v70.41663v0.43005
			v21.42999v5.96997L423.25,123.16663V52.75V39.66663v-3.31995V34.5V17.16663H162.59424z M142.75,93.53735H90.35065V50.25H142.75
			V93.53735z"/>
	</g>
</g>
</svg>
