<?xml version="1.0" encoding="utf-8"?>
<!-- Generator: Adobe Illustrator 19.0.0, SVG Export Plug-In . SVG Version: 6.00 Build 0)  -->
<svg version="1.1" xmlns="http://www.w3.org/2000/svg" xmlns:xlink="http://www.w3.org/1999/xlink" x="0px" y="0px" width="800px"
	 height="800px" viewBox="0 0 800 800" style="enable-background:new 0 0 800 800;" xml:space="preserve">
<style type="text/css">
	.Drop_x0020_Shadow{fill:none;}
	.Round_x0020_Corners_x0020_2_x0020_pt{fill:#FFFFFF;stroke:#231F20;stroke-miterlimit:10;}
	.Live_x0020_Reflect_x0020_X{fill:none;}
	.Bevel_x0020_Soft{fill:url(#SVGID_1_);}
	.Dusk{fill:#FFFFFF;}
	.Foliage_GS{fill:#FFDD00;}
	.Pompadour_GS{fill-rule:evenodd;clip-rule:evenodd;fill:#44ADE2;}
	.st0{fill:none;stroke:#000000;stroke-miterlimit:10;}
	.st1{fill:none;stroke:#000000;stroke-width:0.5;stroke-linecap:round;stroke-linejoin:round;}
	.st2{fill:#231F20;}
	.st3{fill:none;stroke:#FFFFFF;stroke-miterlimit:10;}
	.st4{fill:#414042;}
</style>
<linearGradient id="SVGID_1_" gradientUnits="userSpaceOnUse" x1="0" y1="0" x2="0.7071" y2="0.70711">
	<stop  offset="0" style="stop-color:#DEDFE3"/>
	<stop  offset="0.17833" style="stop-color:#DADBDF"/>
	<stop  offset="0.36114" style="stop-color:#CECFD3"/>
	<stop  offset="0.54604" style="stop-color:#B9BCBF"/>
	<stop  offset="0.7324" style="stop-color:#9CA0A2"/>
	<stop  offset="0.91815" style="stop-color:#787D7E"/>
	<stop  offset="1" style="stop-color:#656B6C"/>
</linearGradient>
<g id="text">
	<g id="XMLID_5_">
		<g id="XMLID_2_">
			<path id="XMLID_3_" d="M416.98535,447.91797h-30.5625v-92.39355h30.5625v10.38428h-20.17871v29.26367h11.68262v10.38428
				h-11.68262v31.97852h20.17871V447.91797z"/>
			<path id="XMLID_12_" d="M459.22754,431.63477c0,2.83203-0.47168,5.36914-1.41602,7.61133
				c-0.94434,2.24121-2.22363,4.12891-3.83496,5.66406c-1.61328,1.5332-3.50098,2.69531-5.66406,3.48047
				c-2.16504,0.78516-4.50391,1.17969-7.02051,1.17969c-2.43945,0-4.74121-0.39453-6.90332-1.17969
				c-2.16504-0.78516-4.07129-1.94727-5.72363-3.48047c-1.65137-1.53516-2.94922-3.42285-3.89355-5.66406
				c-0.94434-2.24219-1.41602-4.7793-1.41602-7.61133v-59.7085c0-3.06787,0.47168-5.72266,1.41602-7.96484
				s2.24219-4.10986,3.89355-5.60498c1.65234-1.49365,3.55859-2.59619,5.72363-3.3042
				c2.16211-0.70801,4.46387-1.06201,6.90332-1.06201c2.5166,0,4.85547,0.43359,7.02051,1.29834
				c2.16309,0.86621,4.05078,2.06494,5.66406,3.59912c1.61133,1.53369,2.89063,3.42188,3.83496,5.66357
				c0.94434,2.24219,1.41602,4.70166,1.41602,7.375v3.06836h-10.38379v-3.06836c0-2.5957-0.74902-4.50244-2.24219-5.72266
				c-1.49512-1.21875-3.26563-1.8291-5.30957-1.8291c-2.12402,0-3.91504,0.61035-5.36914,1.8291
				c-1.45703,1.22021-2.18359,3.12695-2.18359,5.72266v59.7085c0,2.12305,0.72656,3.91406,2.18359,5.36914
				c1.4541,1.45605,3.24512,2.18262,5.36914,2.18262c2.04395,0,3.81445-0.72656,5.30957-2.18262
				c1.49316-1.45508,2.24219-3.24609,2.24219-5.36914v-1.17969l10.38379-3.42285V431.63477z"/>
			<path id="XMLID_14_" d="M502.17969,447.91797h-10.38477v-41.65332h-15.10352v41.65332h-10.38379v-92.39355h10.38379v40.35596
				h15.10352v-40.35596h10.38477V447.91797z"/>
		</g>
	</g>
	<g id="XMLID_7_">
		<rect x="187.53671" y="395.03738" width="79.96329" height="32.27995"/>
	</g>
	<g id="XMLID_9_">
		<rect x="232.5" y="422" width="5.5" height="0"/>
	</g>
	<g id="XMLID_6_">
		<path d="M286.00003,427.31735h-0.00006c-10.17499,0-18.49997-8.32498-18.49997-18.49997v-74.31741
			C267.5,324.32498,275.82498,316,285.99997,316h0.00006c10.17499,0,18.49997,8.32498,18.49997,18.49997v74.31741
			C304.5,418.99237,296.17502,427.31735,286.00003,427.31735z"/>
	</g>
	<g id="XMLID_11_">
		<g>
			<rect x="337" y="331" width="36" height="184.82001"/>
		</g>
	</g>
	<g id="XMLID_32_">
		<g id="XMLID_28_">
			<polygon id="XMLID_39_" points="319.44687,500.83771 325.66687,515.98767 285.66687,516.84772 285.40689,516.05768 
				319.18689,500.94769 			"/>
			<polygon id="XMLID_38_" points="286.52689,427.43768 319.18689,500.94769 285.40689,516.05768 246.04688,427.43768 			"/>
			<polygon id="XMLID_37_" points="286.59686,395.15768 286.59686,427.43768 286.52689,427.43768 278.04688,408.33771 
				244.27687,423.44769 246.04688,427.43768 214.83688,427.43768 214.83688,395.15768 			"/>
			<polygon id="XMLID_36_" points="278.04688,408.33771 286.52689,427.43768 246.04688,427.43768 244.27687,423.44769 			"/>
		</g>
		<g id="XMLID_35_">
			<polygon id="XMLID_44_" class="st0" points="319.18689,500.94769 285.40689,516.05768 246.04688,427.43768 244.27687,423.44769 
				278.04688,408.33771 286.52689,427.43768 			"/>
			<polyline id="XMLID_43_" class="st1" points="319.44687,500.8277 319.44687,500.83771 325.66687,515.98767 			"/>
			<line id="XMLID_42_" class="st1" x1="285.66687" y1="516.84772" x2="325.66687" y2="515.98767"/>
			<polygon id="XMLID_40_" class="st1" points="246.04688,427.43768 214.83688,427.43768 214.83688,395.15768 286.59686,395.15768 
				286.59686,427.43768 286.52689,427.43768 			"/>
		</g>
	</g>
</g>
<g id="Layer_1">
	<g id="XMLID_1_">
		<g id="XMLID_46_">
			<polygon id="XMLID_51_" class="st2" points="176.99518,488.67999 176.99518,515.90002 176.63429,516.33002 148.30966,488.67999 
							"/>
			<polygon id="XMLID_50_" class="st2" points="176.99518,336.54001 215.10065,336.38 215.10065,515.73999 176.99518,515.90002 
				176.99518,488.67999 			"/>
			<polygon id="XMLID_49_" class="st2" points="549,422 549,422.42999 516.82599,445.47 515.83588,443.85999 515.83588,422.42999 
				515.83588,422 			"/>
			<rect id="XMLID_48_" x="515.83588" y="339.35999" class="st2" width="33.16415" height="82.64"/>
			<rect id="XMLID_47_" x="176.99518" y="316" class="st2" width="372.00482" height="19.18"/>
		</g>
		<g id="XMLID_23_">
			<polyline id="XMLID_45_" class="st3" points="176.99518,516.67999 176.63429,516.33002 148.30966,488.67999 			"/>
		</g>
	</g>
	<g id="XMLID_29_">
		<g>
			<rect x="176.99518" y="333.5" class="st4" width="372.00482" height="18.25"/>
		</g>
	</g>
</g>
</svg>
