<?xml version="1.0" ?><!DOCTYPE svg  PUBLIC '-//W3C//DTD SVG 1.1//EN'  'http://www.w3.org/Graphics/SVG/1.1/DTD/svg11.dtd'><svg height="512px" style="shape-rendering:geometricPrecision; text-rendering:geometricPrecision; image-rendering:optimizeQuality; fill-rule:evenodd; clip-rule:evenodd" viewBox="0 0 511.995 512" width="512px" xml:space="preserve" xmlns="http://www.w3.org/2000/svg" xmlns:xlink="http://www.w3.org/1999/xlink"><defs><style type="text/css">
   <![CDATA[
    .fil0 {fill:#EF4E41}
   ]]>
  </style></defs><g id="Layer_x0020_1"><path class="fil0" d="M-0 0l511.995 0 0 512 -511.995 0 0 -512zm399.361 363.324c-18.9535,13.9207 -109.666,13.3111 -143.096,13.3111 -34.8407,-0.00259424 -120.194,0.376165 -139.77,-11.643 -18.2998,-11.2486 -27.8492,-59.4341 -28.6353,-107.254 0,-0.010377 0,-0.0233482 0,-0.0337252 0,-0.0181597 0,-0.0259424 0,-0.0337252 0.786056,-47.8197 10.3355,-99.3466 28.6353,-110.587 19.5762,-12.0217 104.927,-11.7182 139.77,-11.7182 33.4294,0 124.142,-0.534414 143.096,13.3863 16.7433,12.2915 24.6427,61.948 24.7776,108.919 0,0.00778273 0,0.0181597 0,0.0337252 0,0.010377 0,0.0259424 0,0.0337252 -0.134901,46.9636 -8.03437,93.2838 -24.7776,105.586zm-175.384 -171.345l0 128.01 96.0052 -64.0026 -96.0052 -64.0078z"/></g></svg>